<svg xmlns="http://www.w3.org/2000/svg" width="916.166" height="855.24" viewBox="0 0 916.166 855.24">
  <g id="Grupo_1177443" data-name="Grupo 1177443" transform="translate(-341.917 -433)">
    <path id="Trazado_873466" data-name="Trazado 873466" d="M0,0V68.059" transform="translate(467.759 575.059) rotate(180)" fill="none" stroke="#445866" stroke-width="3"/>
    <path id="Trazado_995640" data-name="Trazado 995640" d="M0,0V68.059" transform="translate(467.759 721.859) rotate(180)" fill="none" stroke="#445866" stroke-width="3"/>
    <path id="Trazado_995649" data-name="Trazado 995649" d="M0,0V68.059" transform="translate(467.759 986.395) rotate(180)" fill="none" stroke="#445866" stroke-width="3"/>
    <path id="Trazado_995647" data-name="Trazado 995647" d="M0,0V34.264" transform="translate(467.759 838.594) rotate(180)" fill="none" stroke="#445866" stroke-width="3"/>
    <path id="Trazado_995657" data-name="Trazado 995657" d="M0,0V34.264" transform="translate(467.759 1096.756) rotate(180)" fill="none" stroke="#445866" stroke-width="3"/>
    <path id="Trazado_995659" data-name="Trazado 995659" d="M0,0V23.912" transform="translate(467.759 1211.225) rotate(180)" fill="none" stroke="#445866" stroke-width="3"/>
    <path id="Trazado_995597" data-name="Trazado 995597" d="M0,0V57.739" transform="translate(753.499 555.294) rotate(90)" fill="none" stroke="#445866" stroke-width="3"/>
    <path id="Trazado_995625" data-name="Trazado 995625" d="M0,0V57.739" transform="translate(753.499 764.394) rotate(90)" fill="none" stroke="#445866" stroke-width="3"/>
    <path id="Trazado_995651" data-name="Trazado 995651" d="M0,0V57.739" transform="translate(753.499 1148.367) rotate(90)" fill="none" stroke="#445866" stroke-width="3"/>
    <path id="Trazado_995654" data-name="Trazado 995654" d="M0,0V57.739" transform="translate(753.499 1247.482) rotate(90)" fill="none" stroke="#445866" stroke-width="3"/>
    <path id="Trazado_995638" data-name="Trazado 995638" d="M0,0V57.739" transform="translate(753.499 848.01) rotate(90)" fill="none" stroke="#445866" stroke-width="3"/>
    <path id="Trazado_995645" data-name="Trazado 995645" d="M0,0V57.739" transform="translate(753.499 988.565) rotate(90)" fill="none" stroke="#445866" stroke-width="3"/>
    <path id="Trazado_995601" data-name="Trazado 995601" d="M0,0V57.739" transform="translate(753.499 683.677) rotate(90)" fill="none" stroke="#445866" stroke-width="3"/>
    <path id="Trazado_995599" data-name="Trazado 995599" d="M0,0V57.739" transform="translate(753.499 619.08) rotate(90)" fill="none" stroke="#445866" stroke-width="3"/>
    <path id="Trazado_995635" data-name="Trazado 995635" d="M0,0V57.739" transform="translate(753.499 911.796) rotate(90)" fill="none" stroke="#445866" stroke-width="3"/>
    <path id="Trazado_995641" data-name="Trazado 995641" d="M0,0V57.739" transform="translate(753.499 1068.312) rotate(90)" fill="none" stroke="#445866" stroke-width="3"/>
    <rect id="Rectángulo_377825" data-name="Rectángulo 377825" width="916" height="74" rx="10" transform="translate(341.917 433)" fill="#1b5e20"/>
    <text id="Turismo_comunitario._Fundamentos_y_diagnóstico_territorial" data-name="Turismo comunitario. Fundamentos y diagnóstico territorial" transform="translate(523.917 454.707)" fill="#fff" font-size="20" font-family="Roboto-Bold, Roboto" font-weight="700"><tspan x="9.005" y="21">Turismo comunitario. Fundamentos y diagnóstico territorial</tspan></text>
    <rect id="Rectángulo_454873" data-name="Rectángulo 454873" width="238" height="56" rx="12" transform="translate(353.593 591.507)" fill="#69300a"/>
    <rect id="Rectángulo_454898" data-name="Rectángulo 454898" width="238" height="56" rx="12" transform="translate(353.593 736.395)" fill="#183461"/>
    <rect id="Rectángulo_454899" data-name="Rectángulo 454899" width="238" height="56" rx="12" transform="translate(353.593 850.401)" fill="#f4b400"/>
    <rect id="Rectángulo_454900" data-name="Rectángulo 454900" width="238" height="56" rx="12" transform="translate(353.593 999.359)" fill="#0d47a1"/>
    <rect id="Rectángulo_454901" data-name="Rectángulo 454901" width="238" height="56" rx="12" transform="translate(353.593 1124.313)" fill="#8e3b0f"/>
    <rect id="Rectángulo_454902" data-name="Rectángulo 454902" width="238" height="56" rx="12" transform="translate(353.593 1219.388)" fill="#12263f"/>
    <text id="Se_fundamenta_en_" data-name="Se fundamenta en
" transform="translate(405.593 610.582)" fill="#fff" font-size="16" font-family="Roboto-Medium, Roboto" font-weight="500"><tspan x="1.887" y="17">Se fundamenta en</tspan></text>
    <text id="Se_define_como_" data-name="Se define como
" transform="translate(405.593 753.395)" fill="#fff" font-size="16" font-family="Roboto-Medium, Roboto" font-weight="500"><tspan x="11.43" y="17">Se define como</tspan></text>
    <text id="Se_orienta_por_" data-name="Se orienta por
" transform="translate(405.593 867.401)" fill="#12263f" font-size="16" font-family="Roboto-Medium, Roboto" font-weight="500"><tspan x="16.883" y="17">Se orienta por</tspan></text>
    <text id="Requiere_diagnóstico_territorial_" data-name="Requiere diagnóstico territorial
" transform="translate(379.761 1007.48)" fill="#fff" font-size="16" font-family="Roboto-Medium, Roboto" font-weight="500"><tspan x="17.293" y="17">Requiere diagnóstico </tspan></text>
    <text id="Se_gestiona_mediante_" data-name="Se gestiona mediante
" transform="translate(379.761 1144.148)" fill="#fff" font-size="16" font-family="Roboto-Medium, Roboto" font-weight="500"><tspan x="15.359" y="17">Se gestiona mediante</tspan></text>
    <text id="Se_fortalece_con_" data-name="Se fortalece con
" transform="translate(379.761 1239.223)" fill="#fff" font-size="16" font-family="Roboto-Medium, Roboto" font-weight="500"><tspan x="34.5" y="17">Se fortalece con</tspan></text>
    <path id="Trazado_995589" data-name="Trazado 995589" d="M-13728.177-6427.734l4.344,4.344,4.344-4.344" transform="translate(14191.592 6998.448)" fill="none" stroke="#445866" stroke-width="3"/>
    <path id="Trazado_995639" data-name="Trazado 995639" d="M-13728.177-6427.734l4.344,4.344,4.344-4.344" transform="translate(14191.592 7145.249)" fill="none" stroke="#445866" stroke-width="3"/>
    <path id="Trazado_995648" data-name="Trazado 995648" d="M-13728.177-6427.734l4.344,4.344,4.344-4.344" transform="translate(14191.592 7409.785)" fill="none" stroke="#445866" stroke-width="3"/>
    <path id="Trazado_995646" data-name="Trazado 995646" d="M-13728.177-6427.734l4.344,4.344,4.344-4.344" transform="translate(14191.592 7261.983)" fill="none" stroke="#445866" stroke-width="3"/>
    <path id="Trazado_995656" data-name="Trazado 995656" d="M-13728.177-6427.734l4.344,4.344,4.344-4.344" transform="translate(14191.592 7520.146)" fill="none" stroke="#445866" stroke-width="3"/>
    <path id="Trazado_995658" data-name="Trazado 995658" d="M-13728.177-6427.734l4.344,4.344,4.344-4.344" transform="translate(14191.592 7634.614)" fill="none" stroke="#445866" stroke-width="3"/>
    <path id="Trazado_995596" data-name="Trazado 995596" d="M-13728.177-6427.734l4.344,4.344,4.344-4.344" transform="translate(7178.759 -13168.539) rotate(-90)" fill="none" stroke="#445866" stroke-width="3"/>
    <path id="Trazado_995627" data-name="Trazado 995627" d="M-13728.177-6427.734l4.344,4.344,4.344-4.344" transform="translate(7178.759 -12959.438) rotate(-90)" fill="none" stroke="#445866" stroke-width="3"/>
    <path id="Trazado_995650" data-name="Trazado 995650" d="M-13728.177-6427.734l4.344,4.344,4.344-4.344" transform="translate(7178.759 -12575.465) rotate(-90)" fill="none" stroke="#445866" stroke-width="3"/>
    <path id="Trazado_995653" data-name="Trazado 995653" d="M-13728.177-6427.734l4.344,4.344,4.344-4.344" transform="translate(7178.759 -12476.352) rotate(-90)" fill="none" stroke="#445866" stroke-width="3"/>
    <path id="Trazado_995636" data-name="Trazado 995636" d="M-13728.177-6427.734l4.344,4.344,4.344-4.344" transform="translate(7178.759 -12875.822) rotate(-90)" fill="none" stroke="#445866" stroke-width="3"/>
    <path id="Trazado_995644" data-name="Trazado 995644" d="M-13728.177-6427.734l4.344,4.344,4.344-4.344" transform="translate(7178.759 -12735.266) rotate(-90)" fill="none" stroke="#445866" stroke-width="3"/>
    <path id="Trazado_995600" data-name="Trazado 995600" d="M-13728.177-6427.734l4.344,4.344,4.344-4.344" transform="translate(7178.759 -13040.156) rotate(-90)" fill="none" stroke="#445866" stroke-width="3"/>
    <path id="Trazado_995598" data-name="Trazado 995598" d="M-13728.177-6427.734l4.344,4.344,4.344-4.344" transform="translate(7178.759 -13104.754) rotate(-90)" fill="none" stroke="#445866" stroke-width="3"/>
    <path id="Trazado_995634" data-name="Trazado 995634" d="M-13728.177-6427.734l4.344,4.344,4.344-4.344" transform="translate(7178.759 -12812.037) rotate(-90)" fill="none" stroke="#445866" stroke-width="3"/>
    <path id="Trazado_995642" data-name="Trazado 995642" d="M-13728.177-6427.734l4.344,4.344,4.344-4.344" transform="translate(7178.759 -12655.523) rotate(-90)" fill="none" stroke="#445866" stroke-width="3"/>
    <rect id="Rectángulo_454876" data-name="Rectángulo 454876" width="472.324" height="46.589" rx="10" transform="translate(785.759 532)" fill="#f4b183"/>
    <rect id="Rectángulo_454903" data-name="Rectángulo 454903" width="472.324" height="77.589" rx="10" transform="translate(785.759 725.601)" fill="#0d47a1"/>
    <rect id="Rectángulo_454911" data-name="Rectángulo 454911" width="472.324" height="77.589" rx="10" transform="translate(785.759 1111.535)" fill="#8e3b0f"/>
    <rect id="Rectángulo_454912" data-name="Rectángulo 454912" width="472.324" height="77.589" rx="10" transform="translate(785.759 1210.65)" fill="#d2e1f1"/>
    <rect id="Rectángulo_454910" data-name="Rectángulo 454910" width="472.324" height="77.589" rx="10" transform="translate(785.759 951.732)" fill="#90caf9"/>
    <rect id="Rectángulo_454908" data-name="Rectángulo 454908" width="472.324" height="46.589" rx="10" transform="translate(785.759 824.716)" fill="#ffe082"/>
    <rect id="Rectángulo_454878" data-name="Rectángulo 454878" width="472.324" height="46.589" rx="10" transform="translate(785.759 660.342)" fill="#f4b183"/>
    <rect id="Rectángulo_454877" data-name="Rectángulo 454877" width="472.324" height="46.589" rx="10" transform="translate(785.759 595.787)" fill="#f4b183"/>
    <rect id="Rectángulo_454907" data-name="Rectángulo 454907" width="472.324" height="46.589" rx="10" transform="translate(785.759 888.503)" fill="#ffe082"/>
    <rect id="Rectángulo_454909" data-name="Rectángulo 454909" width="472.324" height="46.589" rx="10" transform="translate(785.759 1046.978)" fill="#90caf9"/>
    <text id="Tendencias_turísticas_mundiales." data-name="Tendencias turísticas mundiales." transform="translate(835.771 545.878)" fill="#12263f" font-size="16" font-family="Roboto-Regular, Roboto"><tspan x="0" y="17">Tendencias turísticas mundiales.</tspan></text>
    <text id="Participación_activa_de_la_comunidad_en_la_gestión_del_territorio_y_distribución_de_beneficios._" data-name="Participación activa de la comunidad en la gestión del territorio y distribución de beneficios.
" transform="translate(835.771 740.937)" fill="#fff" font-size="16" font-family="Roboto-Regular, Roboto"><tspan x="0" y="17">Participación activa de la comunidad en la gestión del </tspan><tspan x="0" y="41">territorio y distribución de beneficios.</tspan></text>
    <text id="Modelos_organizativos_cooperativa_asociativa_comunitaria_._" data-name="Modelos organizativos (cooperativa, asociativa, comunitaria).
" transform="translate(835.771 1126.871)" fill="#fff" font-size="16" font-family="Roboto-Regular, Roboto"><tspan x="0" y="17">Modelos organizativos (cooperativa, asociativa, </tspan><tspan x="0" y="41">comunitaria).</tspan></text>
    <text id="Emprendimiento_Formalización_registro_mercantil_RUT_RNT_._" data-name="Emprendimiento + Formalización (registro mercantil – RUT – RNT).
" transform="translate(835.771 1225.986)" fill="#12263f" font-size="16" font-family="Roboto-Regular, Roboto"><tspan x="0" y="17">Emprendimiento + Formalización (registro mercantil – </tspan><tspan x="0" y="41">RUT – RNT).</tspan></text>
    <text id="Principios_equidad_inclusión_autonomía_._" data-name="Principios (equidad, inclusión, autonomía).
" transform="translate(835.771 838.594)" fill="#12263f" font-size="16" font-family="Roboto-Regular, Roboto"><tspan x="0" y="17">Principios (equidad, inclusión, autonomía).</tspan></text>
    <text id="Activos_patrimoniales_culturales_físicos_sociales_humanos_económicos_ambientales_._" data-name="Activos patrimoniales  (culturales, físicos, sociales, humanos, económicos, ambientales).
" transform="translate(835.771 965.068)" fill="#12263f" font-size="16" font-family="Roboto-Regular, Roboto"><tspan x="0" y="17" xml:space="preserve">Activos patrimoniales  (culturales, físicos, sociales, </tspan><tspan x="0" y="41">humanos, económicos, ambientales).</tspan></text>
    <text id="Marco_normativo_RNT_ley_300_política_pública_._" data-name="Marco normativo (RNT, ley 300, política pública).
" transform="translate(835.771 674.22)" fill="#12263f" font-size="16" font-family="Roboto-Regular, Roboto"><tspan x="0" y="17">Marco normativo (RNT, ley 300, política pública).</tspan></text>
    <text id="Sostenibilidad_ambiental_sociocultural_económica_._" data-name="Sostenibilidad (ambiental, sociocultural, económica).
" transform="translate(835.771 609.665)" fill="#12263f" font-size="16" font-family="Roboto-Regular, Roboto"><tspan x="0" y="17">Sostenibilidad (ambiental, sociocultural, económica).</tspan></text>
    <text id="Código_Mundial_de_Ética_para_el_Turismo._" data-name="Código Mundial de Ética para el Turismo.
" transform="translate(835.771 902.381)" fill="#12263f" font-size="16" font-family="Roboto-Regular, Roboto"><tspan x="0" y="17">Código Mundial de Ética para el Turismo.</tspan></text>
    <text id="Nivel_de_organización_comunitaria._" data-name="Nivel de organización comunitaria.
" transform="translate(835.771 1060.855)" fill="#12263f" font-size="16" font-family="Roboto-Regular, Roboto"><tspan x="0" y="17">Nivel de organización comunitaria.</tspan></text>
    <g id="Grupo_1177437" data-name="Grupo 1177437" transform="translate(14379.057 5949.999)">
      <path id="Trazado_995622" data-name="Trazado 995622" d="M-13744.973-5394.662h20.939v80.536" fill="none" stroke="#12263f" stroke-width="3"/>
      <path id="Trazado_995623" data-name="Trazado 995623" d="M-13744.973-5227.954h20.938v-86.23" transform="translate(0 -38.367)" fill="none" stroke="#12263f" stroke-width="3"/>
    </g>
    <g id="Grupo_1177438" data-name="Grupo 1177438" transform="translate(634.083 736.395)">
      <path id="Trazado_995622-2" data-name="Trazado 995622" d="M-13744.973-5394.662h20.939v56" transform="translate(13744.973 5394.662)" fill="none" stroke="#12263f" stroke-width="3"/>
      <path id="Trazado_995623-2" data-name="Trazado 995623" d="M-13744.973-5295.8h20.938" transform="translate(13744.973 5350.354)" fill="none" stroke="#12263f" stroke-width="3"/>
    </g>
    <g id="Grupo_1177441" data-name="Grupo 1177441" transform="translate(634.083 1120.368)">
      <path id="Trazado_995622-3" data-name="Trazado 995622" d="M-13744.973-5394.662h20.939v56" transform="translate(13744.973 5394.662)" fill="none" stroke="#12263f" stroke-width="3"/>
      <path id="Trazado_995623-3" data-name="Trazado 995623" d="M-13744.973-5295.8h20.938" transform="translate(13744.973 5350.354)" fill="none" stroke="#12263f" stroke-width="3"/>
    </g>
    <g id="Grupo_1177442" data-name="Grupo 1177442" transform="translate(634.083 1219.483)">
      <path id="Trazado_995622-4" data-name="Trazado 995622" d="M-13744.973-5394.662h20.939v56" transform="translate(13744.973 5394.662)" fill="none" stroke="#12263f" stroke-width="3"/>
      <path id="Trazado_995623-4" data-name="Trazado 995623" d="M-13744.973-5295.8h20.938" transform="translate(13744.973 5350.354)" fill="none" stroke="#12263f" stroke-width="3"/>
    </g>
    <g id="Grupo_1177439" data-name="Grupo 1177439" transform="translate(634.083 850.401)">
      <path id="Trazado_995622-5" data-name="Trazado 995622" d="M-13744.973-5394.661h20.939v56" transform="translate(13744.973 5394.661)" fill="none" stroke="#12263f" stroke-width="3"/>
      <path id="Trazado_995623-5" data-name="Trazado 995623" d="M-13744.973-5292.552h20.938v-21.631" transform="translate(13744.973 5348.552)" fill="none" stroke="#12263f" stroke-width="3"/>
    </g>
    <g id="Grupo_1177440" data-name="Grupo 1177440" transform="translate(634.083 988.565)">
      <path id="Trazado_995622-6" data-name="Trazado 995622" d="M-13744.973-5394.661h20.939v79.787" transform="translate(13744.973 5394.661)" fill="none" stroke="#12263f" stroke-width="3"/>
      <path id="Trazado_995623-6" data-name="Trazado 995623" d="M-13744.973-5292.552h20.938v-21.631" transform="translate(13744.973 5372.337)" fill="none" stroke="#12263f" stroke-width="3"/>
    </g>
    <path id="Trazado_995624" data-name="Trazado 995624" d="M-13550.033-6381.173h20.881" transform="translate(14205.057 7000.253)" fill="none" stroke="#12263f" stroke-width="3"/>
    <path id="Trazado_995629" data-name="Trazado 995629" d="M-13550.033-6381.173h20.881" transform="translate(14205.057 7145.473)" fill="none" stroke="#12263f" stroke-width="3"/>
    <path id="Trazado_995652" data-name="Trazado 995652" d="M-13550.033-6381.173h20.881" transform="translate(14205.057 7529.446)" fill="none" stroke="#12263f" stroke-width="3"/>
    <path id="Trazado_995655" data-name="Trazado 995655" d="M-13550.033-6381.173h20.881" transform="translate(14205.057 7628.561)" fill="none" stroke="#12263f" stroke-width="3"/>
    <path id="Trazado_995637" data-name="Trazado 995637" d="M-13550.033-6381.173h20.881" transform="translate(14205.057 7259.575)" fill="none" stroke="#12263f" stroke-width="3"/>
    <path id="Trazado_995643" data-name="Trazado 995643" d="M-13550.033-6381.173h20.881" transform="translate(14205.057 7409.631)" fill="none" stroke="#12263f" stroke-width="3"/>
  </g>
</svg>
