<svg xmlns="http://www.w3.org/2000/svg" width="76.289" height="76.289" viewBox="0 0 76.289 76.289">
  <g id="Grupo_1179512" data-name="Grupo 1179512" transform="translate(-320 -3079.224)">
    <path id="Elipse_5729" data-name="Elipse 5729" d="M38.145,0A38.145,38.145,0,1,1,0,38.145,38.145,38.145,0,0,1,38.145,0Z" transform="translate(320 3079.224)" fill="#0d47a1"/>
    <path id="Trazado_996467" data-name="Trazado 996467" d="M112.464,101.427l-7.233-7.233V70.475a2.544,2.544,0,0,0-2.544-2.544H94.029l-.017-.017-5.383-5.383-3.205-3.2A1.467,1.467,0,0,0,84,58.951v-.006a1.556,1.556,0,0,0-.155.052L83.823,59a1.423,1.423,0,0,0-.223.118l-.055.036a1.438,1.438,0,0,0-.205.168h0a1.5,1.5,0,0,0,0,2.085l.42.42-1.5,1.5L80.85,64.741l-3.191,3.191h-8.8l-.029,0a5.056,5.056,0,0,0-.978.1l-.006,0a4.968,4.968,0,0,0-1.781.751l0,0a5.021,5.021,0,0,0-.737.608l0,0a5.05,5.05,0,0,0-.607.736c-.014.021-.026.044-.039.065-.074.113-.146.228-.211.347-.017.03-.029.062-.045.093-.058.113-.116.226-.166.344-.025.058-.043.119-.065.178-.035.093-.073.185-.1.281s-.053.2-.077.3c-.015.06-.033.118-.046.178-.016.078-.024.158-.036.237a5.041,5.041,0,0,0-.063.719c0,.017,0,.034,0,.051h0v32.861h0c0,.159.009.316.024.471.009.1.026.195.04.292.008.049.014.1.023.148.024.127.054.252.086.375l.01.038a5,5,0,0,0,2.1,2.869l.034.021q.2.13.418.24c.038.02.077.037.115.055.12.057.241.11.366.158.052.02.1.039.156.057.117.04.235.075.356.107.058.015.116.032.175.045.124.028.251.049.378.067.055.008.109.019.165.025a5.037,5.037,0,0,0,.556.033h36.37v-6.64l2.255,2.255a1.045,1.045,0,0,0,1.1.245,1.025,1.025,0,0,0,.229-.11,1.04,1.04,0,0,0,.166-.135l1.9-1.9.856-.856.731-.731h0A1.056,1.056,0,0,0,112.464,101.427Z" transform="translate(271.994 3032.102)" fill="#382b73"/>
    <g id="Grupo_1178881" data-name="Grupo 1178881" transform="translate(335.855 3088.368)">
      <g id="Grupo_1178879" data-name="Grupo 1178879" transform="translate(0 9.037)">
        <path id="Trazado_996468" data-name="Trazado 996468" d="M103.535,173.48H68.861a5,5,0,0,1-5-5h0a5,5,0,0,1,5-5h36.37v8.3A1.7,1.7,0,0,1,103.535,173.48Z" transform="translate(-63.861 -130.619)" fill="#f7cb15"/>
        <path id="Trazado_996469" data-name="Trazado 996469" d="M66.691,181.782a4.986,4.986,0,0,0,3.938,1.926H107v-3.851H70.629A4.987,4.987,0,0,0,66.691,181.782Z" transform="translate(-65.628 -140.847)" fill="#e7ad27"/>
        <path id="Trazado_996470" data-name="Trazado 996470" d="M68.861,163.48a5,5,0,0,0-5,5h0a4.983,4.983,0,0,0,.311,1.723,5,5,0,0,1,4.689-3.277H105.23V163.48Z" transform="translate(-63.861 -130.619)" fill="#fede3a"/>
        <path id="Trazado_996471" data-name="Trazado 996471" d="M166.911,172.289V168H162.62Z" transform="translate(-125.541 -133.441)" fill="#e7ad27"/>
        <path id="Trazado_996472" data-name="Trazado 996472" d="M103.535,171.784H68.978a3.382,3.382,0,0,1-3.413-3.078,3.307,3.307,0,0,1,3.3-3.53H105.23v-1.7H68.861a5,5,0,0,0-5,5h0a5,5,0,0,0,5,5h36.37v-1.7Z" transform="translate(-63.861 -130.619)" fill="#a72973"/>
        <path id="Trazado_996473" data-name="Trazado 996473" d="M119.551,165.176a4.316,4.316,0,0,0,.44-1.7H102.62l1.114,1.7Z" transform="translate(-88.068 -130.619)" fill="#a72973"/>
        <path id="Trazado_996474" data-name="Trazado 996474" d="M102.686,75.955H68.861a5,5,0,0,0-5,5h0v32.861a5,5,0,0,1,5-5H105.23V78.5A2.544,2.544,0,0,0,102.686,75.955Z" transform="translate(-63.861 -75.955)" fill="#ef5a9d"/>
        <rect id="Rectángulo_455247" data-name="Rectángulo 455247" width="36.373" height="11.385" transform="translate(4.996 5.416)" fill="#e43d91"/>
        <path id="Trazado_996475" data-name="Trazado 996475" d="M107.046,110.512v-5.666L96.263,94.062a1.048,1.048,0,0,0-1.476-.014l-1.075-1.075-2.27-2.27-1.09-1.09,3.267-3.267h0l1.411-1.411h0l1.5-1.5.42.42A1.46,1.46,0,0,0,99.2,83.65c.013-.018.025-.036.036-.054a1.449,1.449,0,0,0,.118-.224c0-.007,0-.015.008-.022a1.533,1.533,0,0,0,.052-.155h-.007a1.468,1.468,0,0,0-.375-1.425l-3.205-3.205-2.611-2.611H82.1l-9.488,9.488L71.2,86.854l-1.5,1.5-.42-.42a1.468,1.468,0,0,0-1.425-.375l0-.007a1.4,1.4,0,0,0-.154.052l-.023.008a1.491,1.491,0,0,0-.223.118l-.055.036a1.405,1.405,0,0,0-.394.4,1.475,1.475,0,0,0,.189,1.854L78.993,101.81a1.474,1.474,0,0,0,2.085,0,1.449,1.449,0,0,0,.168-.206l.036-.054a1.442,1.442,0,0,0,.118-.223c0-.008,0-.015.008-.023a1.439,1.439,0,0,0,.052-.155h-.006a1.468,1.468,0,0,0-.375-1.425l-.42-.42,1.5-1.5h0L83.567,96.4l3.267-3.267,4.436,4.436a1.055,1.055,0,0,0,.014,1.477l11.471,11.471Z" transform="translate(-65.677 -75.955)" fill="#a72973"/>
        <path id="Trazado_996476" data-name="Trazado 996476" d="M68.857,75.955a5,5,0,0,0-5,5h0v32.861a5,5,0,0,1,5-5Z" transform="translate(-63.861 -75.955)" fill="#a72973"/>
      </g>
      <g id="Grupo_1178880" data-name="Grupo 1178880" transform="translate(1.092)">
        <rect id="Rectángulo_455248" data-name="Rectángulo 455248" width="15.49" height="22.443" transform="translate(18.806 2.937) rotate(45)" fill="#009add"/>
        <rect id="Rectángulo_455249" data-name="Rectángulo 455249" width="7.921" height="22.443" transform="translate(21.482 5.613) rotate(45)" fill="#1caee4"/>
        <rect id="Rectángulo_455250" data-name="Rectángulo 455250" width="15.49" height="14.214" transform="translate(15.897 5.846) rotate(45)" fill="#e7ad27"/>
        <rect id="Rectángulo_455251" data-name="Rectángulo 455251" width="7.921" height="14.214" transform="translate(18.573 8.522) rotate(45)" fill="#fede3a"/>
        <path id="Trazado_996477" data-name="Trazado 996477" d="M126.815,66.2,115.021,54.4a1.474,1.474,0,0,1,0-2.085h0a1.473,1.473,0,0,1,2.084,0L128.9,64.111a1.474,1.474,0,0,1,0,2.085h0A1.474,1.474,0,0,1,126.815,66.2Z" transform="translate(-96.635 -51.885)" fill="#1caee4"/>
        <path id="Trazado_996478" data-name="Trazado 996478" d="M128.941,68.322l-5.383-5.383a1.474,1.474,0,0,1,0-2.085h0a1.474,1.474,0,0,1,2.085,0l5.383,5.383a1.474,1.474,0,0,1,0,2.085h0A1.474,1.474,0,0,1,128.941,68.322Z" transform="translate(-101.967 -57.217)" fill="#27c1e6"/>
        <path id="Trazado_996479" data-name="Trazado 996479" d="M78.993,114.017,67.2,102.224a1.474,1.474,0,0,1,0-2.085h0a1.474,1.474,0,0,1,2.085,0l11.793,11.793a1.474,1.474,0,0,1,0,2.085h0A1.474,1.474,0,0,1,78.993,114.017Z" transform="translate(-66.768 -81.753)" fill="#009add"/>
        <path id="Trazado_996480" data-name="Trazado 996480" d="M81.12,116.143l-5.383-5.383a1.474,1.474,0,0,1,0-2.085h0a1.474,1.474,0,0,1,2.085,0l5.383,5.383a1.474,1.474,0,0,1,0,2.085h0A1.475,1.475,0,0,1,81.12,116.143Z" transform="translate(-72.1 -87.084)" fill="#1caee4"/>
        <rect id="Rectángulo_455252" data-name="Rectángulo 455252" width="27.723" height="4.973" transform="translate(23.582 20.066) rotate(45)" fill="#fede3a"/>
        <rect id="Rectángulo_455253" data-name="Rectángulo 455253" width="1.541" height="4.973" transform="translate(26.943 23.427) rotate(44.999)" fill="#f7cb15"/>
        <rect id="Rectángulo_455254" data-name="Rectángulo 455254" width="1.541" height="4.973" transform="translate(23.582 20.066) rotate(45)" fill="#f7cb15"/>
        <rect id="Rectángulo_455255" data-name="Rectángulo 455255" width="1.694" height="27.723" transform="translate(20.066 23.583) rotate(-45)" fill="#e7ad27"/>
        <rect id="Rectángulo_455256" data-name="Rectángulo 455256" width="27.591" height="7.041" rx="2.813" transform="translate(28.748 23.769) rotate(45)" fill="#1caee4"/>
        <path id="Trazado_996481" data-name="Trazado 996481" d="M159.643,134.686,141.626,116.67a1.056,1.056,0,0,0-1.494,0l-.731.731a1.056,1.056,0,0,1,1.494,0l18.016,18.016a1.056,1.056,0,0,1,0,1.494l.731-.731A1.057,1.057,0,0,0,159.643,134.686Z" transform="translate(-112.132 -92.154)" fill="#27c1e6"/>
        <path id="Trazado_996482" data-name="Trazado 996482" d="M151.467,140.921,133.45,122.9a1.056,1.056,0,0,1,0-1.494l-1.9,1.9a1.056,1.056,0,0,0,0,1.494l18.016,18.016a1.056,1.056,0,0,0,1.494,0l1.9-1.9A1.057,1.057,0,0,1,151.467,140.921Z" transform="translate(-107.036 -95.308)" fill="#136da0"/>
        <rect id="Rectángulo_455257" data-name="Rectángulo 455257" width="15.49" height="2.12" transform="translate(18.806 2.937) rotate(45)" fill="#136da0"/>
        <rect id="Rectángulo_455258" data-name="Rectángulo 455258" width="15.49" height="2.12" transform="translate(4.435 17.307) rotate(45)" fill="#136da0"/>
        <path id="Trazado_996483" data-name="Trazado 996483" d="M80.036,113.058,68.243,101.265a1.473,1.473,0,0,1-.381-1.424,1.474,1.474,0,0,0-.661,2.466L78.993,114.1a1.474,1.474,0,0,0,2.466-.661A1.473,1.473,0,0,1,80.036,113.058Z" transform="translate(-66.768 -81.836)" fill="#136da0"/>
        <path id="Trazado_996484" data-name="Trazado 996484" d="M127.857,65.237,116.064,53.444a1.473,1.473,0,0,1-.381-1.424,1.474,1.474,0,0,0-.661,2.466l11.793,11.793a1.474,1.474,0,0,0,2.466-.661A1.474,1.474,0,0,1,127.857,65.237Z" transform="translate(-96.635 -51.969)" fill="#009add"/>
      </g>
    </g>
  </g>
</svg>
