<svg xmlns="http://www.w3.org/2000/svg" width="144" height="144" viewBox="0 0 144 144">
  <g id="Grupo_1179515" data-name="Grupo 1179515" transform="translate(-728.029 -4786.249)">
    <circle id="Elipse_13613" data-name="Elipse 13613" cx="72" cy="72" r="72" transform="translate(728.029 4786.249)" fill="#0d47a1"/>
    <circle id="Elipse_13614" data-name="Elipse 13614" cx="65" cy="65" r="65" transform="translate(735.029 4793.249)" fill="#fff"/>
    <g id="Grupo_1178899" data-name="Grupo 1178899" transform="translate(595.947 4719.518)">
      <g id="Grupo_1178897" data-name="Grupo 1178897" transform="translate(164.137 98.845)">
        <g id="Grupo_1178884" data-name="Grupo 1178884" transform="translate(45.204 71.795)">
          <path id="Trazado_996504" data-name="Trazado 996504" d="M319.356,289.2v6.648a1.334,1.334,0,0,1-1.33,1.329H284.788V289.2Z" transform="translate(-284.788 -289.199)" fill="#183461"/>
        </g>
        <g id="Grupo_1178885" data-name="Grupo 1178885" transform="translate(2.659 31.909)">
          <path id="Trazado_996505" data-name="Trazado 996505" d="M250.376,184.645v39.886H215.808v7.977H174.592a1.333,1.333,0,0,1-1.329-1.329v-35.9h34.249a1.286,1.286,0,0,1,.319.027,2.643,2.643,0,0,1,2.061,1.449l1.25,2.487a2.465,2.465,0,0,0,4.667-1.1V184.645h34.568Z" transform="translate(-173.263 -184.645)" fill="#e0a57d"/>
        </g>
        <g id="Grupo_1178886" data-name="Grupo 1178886" transform="translate(7.977 47.863)">
          <path id="Trazado_996506" data-name="Trazado 996506" d="M187.2,226.467h26.591V245.08H187.2Z" transform="translate(-187.204 -226.467)" fill="#f3f9ff"/>
        </g>
        <g id="Grupo_1178887" data-name="Grupo 1178887" transform="translate(53.181 37.227)">
          <path id="Trazado_996507" data-name="Trazado 996507" d="M305.7,198.585h21.273V203.9H305.7Z" transform="translate(-305.699 -198.585)" fill="#69300a"/>
        </g>
        <g id="Grupo_1178888" data-name="Grupo 1178888" transform="translate(45.204 13.295)">
          <path id="Trazado_996508" data-name="Trazado 996508" d="M319.356,150.477v3.989h-7.977v-1.329a9.307,9.307,0,1,0-18.614,0v1.329h-7.977v-3.989l.625-.159a4.562,4.562,0,0,0,3.125-2.686,4.943,4.943,0,0,0-.333-4.441l-.239-.4,3.763-3.763.479.293a4.715,4.715,0,0,0,2.446.678,4.623,4.623,0,0,0,1.835-.372,4.765,4.765,0,0,0,2.792-3.231l.133-.545h5.318l.133.545a4.776,4.776,0,0,0,7.073,2.925l.479-.293,3.763,3.763-.293.479a4.761,4.761,0,0,0-.678,2.459,4.74,4.74,0,0,0,3.6,4.614Z" transform="translate(-284.788 -135.852)" fill="#e0e9e9"/>
        </g>
        <g id="Grupo_1178889" data-name="Grupo 1178889" transform="translate(53.181 21.272)">
          <path id="Trazado_996509" data-name="Trazado 996509" d="M324.313,166.07V167.4h-5.318V166.07a3.989,3.989,0,1,0-7.977,0V167.4H305.7V166.07a9.307,9.307,0,1,1,18.614,0Z" transform="translate(-305.699 -156.763)" fill="#305729"/>
        </g>
        <g id="Grupo_1178890" data-name="Grupo 1178890" transform="translate(0 0)">
          <path id="Trazado_996510" data-name="Trazado 996510" d="M211.5,132.91V146.4a2.465,2.465,0,0,1-4.667,1.1l-1.25-2.487a2.643,2.643,0,0,0-2.061-1.449v-3.417a7.847,7.847,0,0,0-2.3-5.557,3.913,3.913,0,0,0-.346-.319l-.013-15.994a11.966,11.966,0,1,0-23.932,0v15.981c-.119.106-.239.212-.359.332a7.848,7.848,0,0,0-2.3,5.557v3.39h-6.648a1.333,1.333,0,0,1-1.329-1.329V102.33A1.333,1.333,0,0,1,167.622,101h42.545a1.333,1.333,0,0,1,1.329,1.329V132.91Z" transform="translate(-166.293 -101.001)" fill="#183461"/>
        </g>
        <g id="Grupo_1178891" data-name="Grupo 1178891" transform="translate(10.636 5.318)">
          <path id="Trazado_996511" data-name="Trazado 996511" d="M206.14,122.918a15.793,15.793,0,0,1-6.222,3.843l-.425.146V130.9a6.631,6.631,0,0,0,3.523,5.863l-.452,1.808a2.667,2.667,0,0,1-2.061,1.968l-.745.146-1.915.386a7.913,7.913,0,0,0-3.67,1.822V126.907a11.966,11.966,0,0,1,23.932,0l.013,15.994a7.856,7.856,0,0,0-3.683-1.835l-1.915-.386-.744-.146a2.666,2.666,0,0,1-2.061-1.968l-.452-1.808a6.464,6.464,0,0,0,1.582-1.157,6.676,6.676,0,0,0,1.941-4.707v-3.988l-.425-.146A15.789,15.789,0,0,1,206.14,122.918Z" transform="translate(-194.174 -114.941)" fill="#fff"/>
        </g>
        <g id="Grupo_1178892" data-name="Grupo 1178892" transform="translate(7.977 31.058)">
          <path id="Trazado_996512" data-name="Trazado 996512" d="M198.133,187.254l3.7,6.648H187.2v-3.39a7.848,7.848,0,0,1,2.3-5.557c.12-.12.24-.226.359-.332a7.913,7.913,0,0,1,3.67-1.822l1.915-.386Z" transform="translate(-187.204 -182.414)"/>
        </g>
        <g id="Grupo_1178893" data-name="Grupo 1178893" transform="translate(22.602 31.058)">
          <path id="Trazado_996513" data-name="Trazado 996513" d="M240.166,190.511v3.417a1.286,1.286,0,0,0-.319-.027H225.541l3.7-6.648,2.686-4.84,1.915.386a7.854,7.854,0,0,1,3.683,1.835,3.913,3.913,0,0,1,.346.319,7.847,7.847,0,0,1,2.3,5.557Z" transform="translate(-225.541 -182.414)"/>
        </g>
        <g id="Grupo_1178894" data-name="Grupo 1178894" transform="translate(18.906 35.897)">
          <path id="Trazado_996514" data-name="Trazado 996514" d="M223.244,195.1l-3.7,6.648-3.7-6.648Z" transform="translate(-215.852 -195.1)" fill="#f4b400"/>
        </g>
        <g id="Grupo_1178895" data-name="Grupo 1178895" transform="translate(16.22 27.136)">
          <path id="Trazado_996515" data-name="Trazado 996515" d="M221.575,176.055l-2.686,4.84H211.5l-2.686-4.84.745-.146a2.667,2.667,0,0,0,2.061-1.968l.452-1.808a6.615,6.615,0,0,0,6.249,0l.452,1.808a2.666,2.666,0,0,0,2.061,1.968Z" transform="translate(-208.812 -172.133)" fill="#e0a57d"/>
        </g>
        <g id="Grupo_1178896" data-name="Grupo 1178896" transform="translate(15.954 13.295)">
          <path id="Trazado_996516" data-name="Trazado 996516" d="M221.41,139.841v3.988a6.676,6.676,0,0,1-1.941,4.707,6.653,6.653,0,0,1-7.831,1.157,6.631,6.631,0,0,1-3.523-5.863v-3.988l.425-.146a15.793,15.793,0,0,0,6.222-3.843,15.789,15.789,0,0,0,6.222,3.843Z" transform="translate(-208.115 -135.852)" fill="#e0a57d"/>
        </g>
      </g>
      <g id="Grupo_1178898" data-name="Grupo 1178898" transform="translate(162.808 97.516)">
        <path id="Trazado_996517" data-name="Trazado 996517" d="M243.692,125.34a3.433,3.433,0,0,1-2.108-5.1l.818-1.365-5.228-5.227-1.363.816a3.432,3.432,0,0,1-5.1-2.1l-.387-1.55h-7.4l-.387,1.551a3.434,3.434,0,0,1-5.1,2.1l-1.362-.816-5.226,5.226.771,1.288a3.631,3.631,0,0,1,.241,3.246,3.241,3.241,0,0,1-1.191,1.426V100.175a2.662,2.662,0,0,0-2.659-2.659H165.467a2.662,2.662,0,0,0-2.659,2.659v39.886a2.662,2.662,0,0,0,2.659,2.659v34.568a2.662,2.662,0,0,0,2.659,2.659H242.58a2.662,2.662,0,0,0,2.659-2.659V125.727Zm-29.374-.912a6.308,6.308,0,0,0-.14-5.119l2.327-2.327a6.089,6.089,0,0,0,8.479-3.512h3.282a6.091,6.091,0,0,0,8.48,3.512l2.321,2.321a6.092,6.092,0,0,0,3.513,8.48v1.64H237.26a10.636,10.636,0,0,0-21.272,0H210.67V127.78a5.926,5.926,0,0,0,3.648-3.352Zm9.649,5a2.659,2.659,0,0,1,5.318,0Zm2.659-5.318a5.323,5.323,0,0,0-5.318,5.318h-2.659a7.977,7.977,0,0,1,15.954,0h-2.659A5.323,5.323,0,0,0,226.625,124.107Zm-61.159-23.932h42.545v44.069a1.135,1.135,0,0,1-2.151.507l-1.243-2.485a3.98,3.98,0,0,0-1.924-1.852V138a9.135,9.135,0,0,0-2.641-6.446l-.019-15.426a13.3,13.3,0,1,0-26.591,0v15.408A9.136,9.136,0,0,0,170.785,138v2.058h-5.318Zm24.183,33.238h-5.822l-1.5-2.692a4,4,0,0,0,2.115-2.607l.084-.336a7.822,7.822,0,0,0,4.414,0l.084.336a4,4,0,0,0,2.115,2.607Zm-1.477,2.659-1.433,2.581-1.433-2.581Zm-1.433-22.119a17.4,17.4,0,0,0,5.318,3.127v3.038a5.318,5.318,0,1,1-10.636,0v-3.039A17.376,17.376,0,0,0,186.74,113.953Zm5.9,14.5a1.336,1.336,0,0,1-1.029-.981l-.221-.883a7.966,7.966,0,0,0,3.328-6.47v-4.947l-1.33-.443a14.678,14.678,0,0,1-5.318-3.18v-3.4H185.41v3.394a14.659,14.659,0,0,1-5.318,3.18l-1.329.444v4.947a7.966,7.966,0,0,0,3.328,6.47l-.221.883a1.333,1.333,0,0,1-1.029.981l-2.662.532a9.208,9.208,0,0,0-2.076.7V116.129a10.636,10.636,0,1,1,21.273,0l.016,13.564a9.209,9.209,0,0,0-2.091-.711Zm-17.28,4.927a6.522,6.522,0,0,1,3.341-1.788l.967-.193,4.814,8.664H173.444V138A6.5,6.5,0,0,1,175.359,133.379Zm18.454-1.982.966.193A6.537,6.537,0,0,1,200.035,138v2.061H189ZM168.126,142.72h32.925a1.322,1.322,0,0,1,1.189.735l1.243,2.485a3.795,3.795,0,0,0,7.189-1.7v-12.16H242.58v37.227H208.012v7.977H168.126Zm42.545,34.568V171.97H242.58v5.318Z" transform="translate(-162.808 -97.516)"/>
        <path id="Trazado_996518" data-name="Trazado 996518" d="M326.146,195.1H302.214v7.977h23.932Zm-10.636,2.659h2.659v2.659h-2.659Zm-2.659,2.659h-2.659v-2.659h2.659Zm-7.977-2.659h2.659v2.659h-2.659Zm18.614,2.659h-2.659v-2.659h2.659Z" transform="translate(-249.033 -157.873)"/>
        <path id="Trazado_996519" data-name="Trazado 996519" d="M183.719,285.714h2.659v5.318h-2.659Z" transform="translate(-175.742 -213.919)"/>
        <path id="Trazado_996520" data-name="Trazado 996520" d="M197.659,285.714h2.659v5.318h-2.659Z" transform="translate(-184.364 -213.919)"/>
        <path id="Trazado_996521" data-name="Trazado 996521" d="M211.6,285.714h2.659v5.318H211.6Z" transform="translate(-192.987 -213.919)"/>
        <path id="Trazado_996522" data-name="Trazado 996522" d="M225.541,285.714H228.2v5.318h-2.659Z" transform="translate(-201.609 -213.919)"/>
        <path id="Trazado_996523" data-name="Trazado 996523" d="M239.481,285.714h2.659v5.318h-2.659Z" transform="translate(-210.231 -213.919)"/>
        <path id="Trazado_996524" data-name="Trazado 996524" d="M253.422,285.714h2.659v5.318h-2.659Z" transform="translate(-218.854 -213.919)"/>
        <path id="Trazado_996525" data-name="Trazado 996525" d="M183.719,244.254h29.25V222.981h-29.25Zm2.659-18.613H210.31v15.954H186.378Z" transform="translate(-175.742 -175.118)"/>
        <path id="Trazado_996526" data-name="Trazado 996526" d="M302.214,271.774h2.659v2.659h-2.659Z" transform="translate(-249.033 -205.297)"/>
        <path id="Trazado_996527" data-name="Trazado 996527" d="M316.155,271.774h2.659v2.659h-2.659Z" transform="translate(-257.655 -205.297)"/>
        <path id="Trazado_996528" data-name="Trazado 996528" d="M330.1,271.774h2.659v2.659H330.1Z" transform="translate(-266.278 -205.297)"/>
        <path id="Trazado_996529" data-name="Trazado 996529" d="M344.036,271.774h2.659v2.659h-2.659Z" transform="translate(-274.9 -205.297)"/>
        <path id="Trazado_996530" data-name="Trazado 996530" d="M357.977,271.774h2.659v2.659h-2.659Z" transform="translate(-283.523 -205.297)"/>
        <path id="Trazado_996531" data-name="Trazado 996531" d="M295.244,250.863h7.977v2.659h-7.977Z" transform="translate(-244.722 -192.363)"/>
        <path id="Trazado_996532" data-name="Trazado 996532" d="M323.125,250.863h15.954v2.659H323.125Z" transform="translate(-261.966 -192.363)"/>
        <path id="Trazado_996533" data-name="Trazado 996533" d="M295.244,236.922h7.977v2.659h-7.977Z" transform="translate(-244.722 -183.741)"/>
        <path id="Trazado_996534" data-name="Trazado 996534" d="M323.125,236.922h15.954v2.659H323.125Z" transform="translate(-261.966 -183.741)"/>
        <path id="Trazado_996535" data-name="Trazado 996535" d="M295.244,222.981h7.977v2.659h-7.977Z" transform="translate(-244.722 -175.118)"/>
        <path id="Trazado_996536" data-name="Trazado 996536" d="M323.125,222.981h15.954v2.659H323.125Z" transform="translate(-261.966 -175.118)"/>
      </g>
    </g>
  </g>
</svg>
