<svg xmlns="http://www.w3.org/2000/svg" width="96" height="96" viewBox="0 0 96 96">
  <g id="Grupo_154427" data-name="Grupo 154427" transform="translate(-794.039 -2920.081)">
    <path id="Elipse_5729" data-name="Elipse 5729" d="M48,0A48,48,0,1,1,0,48,48,48,0,0,1,48,0Z" transform="translate(794.039 2920.081)" fill="#0d47a1"/>
    <g id="Grupo_1178314" data-name="Grupo 1178314" transform="translate(742.146 2864.01)">
      <path id="Trazado_995874" data-name="Trazado 995874" d="M72.568,199.228c-2.556-3.026-1.421-6.173.32-7.608a5.106,5.106,0,0,1,6.745,7.662l2.587,2.843c1.8-1.918,3.854-2.33,5.736-.012l2.515-2.75c-.406-.709-.825-1.512-1.32-2.265a1.1,1.1,0,0,0-.772-.428c-1.6-.04-3.2-.013-4.793-.023-1-.007-1.259-.263-1.261-1.284-.007-3.367-.015-6.733,0-10.1a5.324,5.324,0,0,1,3.227-5.023c-2.069-3.18-1.912-5.825.434-7.691a5.108,5.108,0,0,1,6.656,7.739l2.543,2.8c1.3-1.169,2.777-2.389,4.78-.743,1.941-1.654,3.457-.467,4.79.733l2.559-2.806a5.079,5.079,0,0,1-1.572-4.41,4.882,4.882,0,0,1,1.705-3.164,5.085,5.085,0,0,1,6.792.1c2.073,1.919,2.138,4.664.15,7.416.263.16.529.31.782.479a4.852,4.852,0,0,1,2.389,4.113c.04,3.594.016,7.189.026,10.784,0,.766-.387,1.07-1.12,1.065-1.6-.011-3.2.015-4.793-.012a.9.9,0,0,0-1,.65,16.376,16.376,0,0,1-1.217,2.061l2.51,2.7c1.822-2.006,3.825-2.175,5.588.093l2.591-2.857c-2.1-2.726-2.156-5.357-.081-7.388a5.1,5.1,0,0,1,6.789-.314c2.294,1.885,2.437,4.476.391,7.66a5.205,5.205,0,0,1,2.887,3.1,6.619,6.619,0,0,1,.307,1.926c.03,3.338.017,6.676.013,10.014,0,1.147-.211,1.36-1.345,1.362q-5.136.008-10.271,0c-1.2,0-1.362-.179-1.365-1.414,0-1.484.033-2.969-.026-4.45a1.674,1.674,0,0,0-.539-1.019c-.644-.6-1.364-1.118-2.1-1.71-.826.641-1.687,1.279-2.505,1.968-.151.127-.172.463-.174.7-.015,1.541,0,3.081-.01,4.622-.005,1.053-.225,1.3-1.234,1.3q-10.913.009-21.826,0c-.971,0-1.192-.237-1.2-1.24-.013-1.541.029-3.083-.029-4.621a1.665,1.665,0,0,0-.536-1.023c-.687-.635-1.446-1.191-2.18-1.781-.859.668-1.727,1.311-2.546,2.009a1.116,1.116,0,0,0-.231.759c-.021,1.569,0,3.138-.014,4.707-.007.945-.232,1.185-1.157,1.188q-5.307.016-10.614,0c-.959,0-1.2-.257-1.205-1.239-.008-3.424-.015-6.848,0-10.271A5.269,5.269,0,0,1,72.568,199.228Zm26.471,14.624c0-3.517.093-6.987-.042-10.448a3.188,3.188,0,0,0-3.212-2.769c-.74-.026-1.482-.011-2.223-.01-2.35,0-3.392.823-3.979,3.129-.218.855-.811,1.085-1.528.558-.734-.539-1.457-1.1-2.157-1.68a1,1,0,0,0-1.567.089c-.489.567-.217,1.041.271,1.464.99.858,1.965,1.735,2.957,2.59a3.975,3.975,0,0,0,4.961.572c.963-.492,1.9-1.05,2.9-1.45.3-.121.778.188,1.174.3-.13.39-.146,1-.408,1.136-2.067,1.079-3.98,2.623-6.536,2.332v4.187Zm29.566.016a1.469,1.469,0,0,0,.082-.3c0-3.251.034-6.5-.014-9.752a3.317,3.317,0,0,0-3.208-3.173c-.825-.036-1.654-.017-2.481-.014a3.444,3.444,0,0,0-3.762,3.07c-.2.9-.818,1.153-1.566.6s-1.454-1.1-2.16-1.679a.99.99,0,0,0-1.513.054c-.486.53-.315,1.036.193,1.477,1.033.9,2.052,1.81,3.091,2.7a3.939,3.939,0,0,0,4.75.558c.964-.492,1.918-1,2.884-1.49.517-.26,1.034-.262,1.319.318.263.534-.013.928-.5,1.188-.579.307-1.163.6-1.736.921a7.557,7.557,0,0,1-4.715,1.306v4.216Zm-48.061-4.131a5.808,5.808,0,0,1-1.6-.163q-2.585-1.078-5.1-2.327a1.1,1.1,0,0,1-.253-.991,1.368,1.368,0,0,1,1.134-.368,21.865,21.865,0,0,1,2.743,1.38c2.4,1.347,4.4.627,6.162-1.532l-1.282-1.545c-1.123.686-1.579.485-1.821-.782a3.427,3.427,0,0,0-3.162-2.768c-.882-.038-1.767-.023-2.651-.014a3.4,3.4,0,0,0-3.628,3.638c-.012,2.965,0,5.93,0,8.894,0,.22.033.439.052.669h9.4Zm31.47-5.446c-1.058.546-1.455.348-1.687-.838a3.462,3.462,0,0,0-3.308-2.819c-.769-.025-1.54-.012-2.311-.009-2.5.008-3.838,1.339-3.847,3.862-.01,2.853,0,5.706,0,8.559,0,.271.028.543.042.793h9.415v-4.126c-.5-.029-.953-.037-1.4-.084-1.885-.2-3.34-1.4-4.991-2.15-.566-.255-.893-.7-.558-1.3.313-.561.848-.489,1.352-.231.812.415,1.614.848,2.425,1.264,2.487,1.276,4.453.827,6.195-1.4Zm3.834-9.392c0-3.2,0-6.279,0-9.354a8.666,8.666,0,0,0-.04-1.025,3.376,3.376,0,0,0-3.054-2.872c-.853-.051-1.71-.027-2.565-.024a3.47,3.47,0,0,0-3.827,3.1c-.186.853-.8,1.113-1.509.6-.737-.535-1.463-1.09-2.16-1.678a1,1,0,0,0-1.572.051c-.456.53-.276,1.039.239,1.479,1.018.87,2.011,1.77,3.027,2.643a4.17,4.17,0,0,0,4.847.547c.888-.452,1.767-.923,2.655-1.375.545-.278,1.14-.449,1.481.228s-.136,1.05-.7,1.319l-4.76,2.285a5.112,5.112,0,0,1,3.007,3.689.623.623,0,0,0,.462.367C112.828,194.91,114.278,194.9,115.849,194.9ZM92.27,190.737c-.846-.3-1.714-.561-2.536-.925-.858-.379-1.668-.865-2.5-1.3-.569-.293-.986-.7-.614-1.352.349-.611.916-.444,1.431-.178.937.484,1.848,1.023,2.806,1.458a4.131,4.131,0,0,0,4.445-.431c1.176-.9,2.25-1.93,3.364-2.909.472-.415.631-.9.167-1.411a.983.983,0,0,0-1.508-.089c-.641.522-1.3,1.024-1.954,1.526-1.021.781-1.578.575-1.824-.667a3.416,3.416,0,0,0-3.371-2.835c-.77-.02-1.54-.011-2.311-.006a3.453,3.453,0,0,0-3.779,3.767c-.012,2.881,0,5.763,0,8.644,0,.272.028.543.046.864,1.524,0,2.948.015,4.371-.018a.7.7,0,0,0,.513-.4A5.245,5.245,0,0,1,92.27,190.737Zm7.7,10.257,2.329-1.878a5.143,5.143,0,0,1,2.736-8.636l-5.059-4.12-5.058,4.084a5.177,5.177,0,0,1,2.76,8.7Zm-27.153-5.462a3.313,3.313,0,0,0,3.362,3.346,3.348,3.348,0,0,0-.013-6.7A3.293,3.293,0,0,0,72.819,195.532Zm54.148,0a3.3,3.3,0,0,0-3.352-3.349,3.348,3.348,0,0,0-.01,6.7A3.318,3.318,0,0,0,126.967,195.531ZM89.161,173.186a3.347,3.347,0,0,0-.048,6.693,3.347,3.347,0,1,0,.048-6.693Zm24.964,3.376a3.284,3.284,0,0,0-3.325-3.373,3.347,3.347,0,0,0-3.379,3.343,3.386,3.386,0,0,0,3.308,3.346A3.323,3.323,0,0,0,114.125,176.562Zm-8.165,22.315a3.347,3.347,0,1,0-.106-6.693,3.347,3.347,0,0,0,.106,6.693Zm-8.583-3.362a3.356,3.356,0,1,0-3.366,3.363A3.34,3.34,0,0,0,97.378,195.514Z" transform="translate(0 -81.102)" fill="#fff"/>
      <path id="Trazado_995875" data-name="Trazado 995875" d="M196.837,73.589a8.921,8.921,0,0,1,5.053,16.28,2.5,2.5,0,0,0-.843,1.166c-.385,1.1-.623,2.251-1,3.353-.132.387-.451.9-.774.976s-.792-.281-1.1-.557a7.224,7.224,0,0,1-.975-1.187,7.779,7.779,0,0,0-3.828-2.99,8.668,8.668,0,0,1-5.241-10.169A8.989,8.989,0,0,1,196.837,73.589Zm1.883,19.149c.281-.992.531-1.776.721-2.575a2.43,2.43,0,0,1,1.236-1.618,7.128,7.128,0,0,0,2.951-8.433,7.21,7.21,0,1,0-8.076,9.472,2.386,2.386,0,0,1,1.176.715C197.4,91.022,197.986,91.826,198.72,92.738Z" transform="translate(-98.283 0)" fill="#fff"/>
      <path id="Trazado_995876" data-name="Trazado 995876" d="M361.408,175.442a6.7,6.7,0,0,1-2.654,5.74,2.284,2.284,0,0,0-.945,1.432,19.311,19.311,0,0,1-.6,2.136c-.3.873-1,1.008-1.625.335-.174-.188-.326-.4-.482-.6a7.028,7.028,0,0,0-3.215-2.592,6.449,6.449,0,0,1-3.787-7.212,6.778,6.778,0,0,1,6.088-5.488,6.692,6.692,0,0,1,6.826,4.51A15.986,15.986,0,0,1,361.408,175.442Zm-5.456,7.293c.1-.333.18-.547.231-.767a3.251,3.251,0,0,1,1.473-2.153,4.519,4.519,0,0,0,1.986-4.284,4.963,4.963,0,0,0-9.817-.632,4.874,4.874,0,0,0,3.37,5.684,3.351,3.351,0,0,1,2.173,1.465A7.908,7.908,0,0,0,355.951,182.735Z" transform="translate(-230.953 -79.22)" fill="#fff"/>
      <path id="Trazado_995877" data-name="Trazado 995877" d="M82.79,175.529A6.746,6.746,0,0,1,80.2,181.1a2.585,2.585,0,0,0-1.07,1.643,16.209,16.209,0,0,1-.559,1.971c-.31.913-1.049,1.046-1.673.321-.2-.237-.4-.481-.586-.736a6.269,6.269,0,0,0-3.049-2.4,6.514,6.514,0,0,1-3.83-7.2,6.819,6.819,0,0,1,6.081-5.508,6.7,6.7,0,0,1,6.786,4.324A16.915,16.915,0,0,1,82.79,175.529Zm-5.5,7.2c.1-.319.176-.5.217-.688a3.317,3.317,0,0,1,1.567-2.283,4.344,4.344,0,0,0,1.929-3.46,4.982,4.982,0,0,0-9.8-1.6,4.885,4.885,0,0,0,3.249,5.832,4.1,4.1,0,0,1,2.47,1.753C77,182.4,77.1,182.5,77.294,182.73Z" transform="translate(-0.008 -79.212)" fill="#fff"/>
      <path id="Trazado_995878" data-name="Trazado 995878" d="M235.391,119.392a1.45,1.45,0,0,1-1.417-1.325,1.4,1.4,0,0,1,1.4-1.409,1.3,1.3,0,0,1,1.339,1.352A1.341,1.341,0,0,1,235.391,119.392Z" transform="translate(-136.454 -35.695)" fill="#fff"/>
      <path id="Trazado_995879" data-name="Trazado 995879" d="M259.938,118.068a1.347,1.347,0,0,1-1.373,1.334,1.435,1.435,0,0,1-1.37-1.37,1.386,1.386,0,0,1,1.446-1.358A1.3,1.3,0,0,1,259.938,118.068Z" transform="translate(-155.701 -35.708)" fill="#fff"/>
      <path id="Trazado_995880" data-name="Trazado 995880" d="M212.12,119.423A1.431,1.431,0,0,1,210.807,118a1.373,1.373,0,0,1,1.5-1.3,1.32,1.32,0,0,1,1.25,1.442A1.373,1.373,0,0,1,212.12,119.423Z" transform="translate(-117.254 -35.73)" fill="#fff"/>
      <path id="Trazado_995881" data-name="Trazado 995881" d="M371.337,200.445a1.46,1.46,0,0,1-1.451,1.29,1.372,1.372,0,0,1-1.275-1.517,1.3,1.3,0,0,1,1.46-1.213A1.362,1.362,0,0,1,371.337,200.445Z" transform="translate(-248.038 -103.94)" fill="#fff"/>
      <path id="Trazado_995882" data-name="Trazado 995882" d="M392.254,199.005a1.315,1.315,0,0,1,1.4,1.3,1.408,1.408,0,0,1-1.377,1.438,1.471,1.471,0,0,1-1.375-1.374A1.353,1.353,0,0,1,392.254,199.005Z" transform="translate(-266.514 -103.943)" fill="#fff"/>
      <path id="Trazado_995883" data-name="Trazado 995883" d="M90.8,200.385a1.377,1.377,0,0,1-1.367,1.35,1.493,1.493,0,0,1-1.379-1.377A1.384,1.384,0,0,1,89.5,199,1.3,1.3,0,0,1,90.8,200.385Z" transform="translate(-15.516 -103.937)" fill="#fff"/>
      <path id="Trazado_995884" data-name="Trazado 995884" d="M113.547,200.388a1.423,1.423,0,0,1-1.383,1.351,1.4,1.4,0,0,1-1.347-1.461,1.367,1.367,0,0,1,2.73.11Z" transform="translate(-34.384 -103.942)" fill="#fff"/>
    </g>
  </g>
</svg>
