<svg xmlns="http://www.w3.org/2000/svg" width="96" height="96" viewBox="0 0 96 96">
  <g id="Grupo_154427" data-name="Grupo 154427" transform="translate(-794.039 -2920.081)">
    <path id="Elipse_5729" data-name="Elipse 5729" d="M48,0A48,48,0,1,1,0,48,48,48,0,0,1,48,0Z" transform="translate(794.039 2920.081)" fill="#0d47a1"/>
    <g id="Grupo_1178315" data-name="Grupo 1178315" transform="translate(734.112 2858.178)">
      <path id="Trazado_995885" data-name="Trazado 995885" d="M174.569,130.706c-.406.931-.742,1.8-1.158,2.619a1.4,1.4,0,0,0,.027,1.4c.526,1.084.912,2.234,1.413,3.331a1.716,1.716,0,0,0,.74.777,20.867,20.867,0,0,0,2.117.831,1.268,1.268,0,0,1,.938,1.332q-.027,2.533,0,5.067a1.217,1.217,0,0,1-.994,1.363c-1.849.426-3.189,1.358-3.474,3.383a.333.333,0,0,1-.065.155c-1.214,1.535-.833,3.045.078,4.539a1.369,1.369,0,0,1-.346,1.93c-1.168,1.1-2.292,2.244-3.41,3.393a1.193,1.193,0,0,1-1.65.3c-1.645-1.055-3.135-.918-4.983-.14-1.757.739-2.859,1.623-3.252,3.44-.178.823-.727,1.1-1.553,1.082-1.632-.041-3.265-.024-4.9-.007-.677.007-1.183-.221-1.317-.914-.407-2.1-1.809-2.981-3.719-3.752a4.444,4.444,0,0,0-4.209.1c-1.271.685-1.322.593-2.322-.4-1.077-1.073-2.134-2.164-3.234-3.213a1.2,1.2,0,0,1-.31-1.654,3.984,3.984,0,0,0,.017-4.994,2.049,2.049,0,0,1-.344-.945c-.132-1.125-.9-1.5-1.85-1.853-2.338-.856-2.238-.477-2.222-3.125.007-1.21.021-2.421-.006-3.631a1.277,1.277,0,0,1,1-1.451c1.8-.43,3.2-1.251,3.437-3.3a.664.664,0,0,1,.14-.3c1.127-1.474.879-2.928-.053-4.377a1.437,1.437,0,0,1,.335-2.076c1.159-1.066,2.257-2.2,3.355-3.329a1.182,1.182,0,0,1,1.642-.323,4.1,4.1,0,0,0,5.023.036,1.188,1.188,0,0,1,.544-.22c1.539-.159,2.074-1.233,2.487-2.537.524-1.656.58-1.638,2.331-1.638,1.464,0,2.928.01,4.391,0a1.164,1.164,0,0,1,1.265.881c.19.587.505,1.138.656,1.732a1.778,1.778,0,0,0,1.4,1.347,20.089,20.089,0,0,1,2.945,1.241,1.376,1.376,0,0,0,1.345.037c.656-.32,1.346-.572,2-.9a1.176,1.176,0,0,1,1.523.249c1.227,1.24,2.472,2.462,3.691,3.709A4.768,4.768,0,0,1,174.569,130.706Zm-30.535-2.8c-.171.143-.349.271-.5.424-.642.632-1.236,1.321-1.928,1.892a1.1,1.1,0,0,0-.274,1.656,5.086,5.086,0,0,1,.66,1.545,2.815,2.815,0,0,1-.076,1.486,15.971,15.971,0,0,0-1.158,2.513,4.31,4.31,0,0,1-3.653,3.8.941.941,0,0,0-.486.706c-.065.755-.023,1.518-.023,2.279,0,1.483,0,1.484,1.422,2.042.34.134.677.276,1.023.392a1.72,1.72,0,0,1,1.128,1.237A23.365,23.365,0,0,0,141.7,151.7a2.451,2.451,0,0,1,.109,2.511c-.93,1.926-.9,1.943.624,3.465s1.525,1.526,3.468.694a4.016,4.016,0,0,0,.463-.2,1.562,1.562,0,0,1,1.658.049,18.2,18.2,0,0,0,3.552,1.518,2.923,2.923,0,0,1,2.29,2.235c.476,1.588.55,1.566,2.181,1.566a16.108,16.108,0,0,1,1.688.012,1.139,1.139,0,0,0,1.449-.969,6.494,6.494,0,0,1,.686-1.716,2.023,2.023,0,0,1,.885-.782c1.536-.682,3.087-1.332,4.656-1.932a2.518,2.518,0,0,1,1.267-.053,4.723,4.723,0,0,1,1.082.46c1.493.681,1.5.685,2.659-.488.613-.618,1.587-1.184,1.713-1.894.132-.746-.52-1.654-.9-2.461a1.705,1.705,0,0,1,.091-1.587c.656-1.424,1.184-2.907,1.832-4.335a3.151,3.151,0,0,1,.94-1.067,4.057,4.057,0,0,1,1.007-.417c1.562-.635,1.57-.636,1.558-2.286-.006-.869.256-1.949-.159-2.546s-1.516-.742-2.335-1.033a1.641,1.641,0,0,1-1.064-1.183,16.975,16.975,0,0,0-1.421-3.59,2.878,2.878,0,0,1-.051-3.194c.773-1.477.726-1.51-.487-2.712-.618-.612-1.192-1.562-1.91-1.7s-1.591.546-2.38.9a1.765,1.765,0,0,1-1.67-.1,22.879,22.879,0,0,0-3.715-1.567,2.608,2.608,0,0,1-1.981-1.893c-.595-1.87-.652-1.86-2.582-1.848-.811.005-1.781-.207-2.385.161-.518.316-.618,1.318-.9,2.016a2.118,2.118,0,0,0-.134.309c-.145.629-.594.866-1.167,1.071a33.045,33.045,0,0,0-3.972,1.609,2.146,2.146,0,0,1-2.277.092A21.8,21.8,0,0,0,144.033,127.909Z" transform="translate(-47.427 -34.918)" fill="#fff"/>
      <path id="Trazado_995886" data-name="Trazado 995886" d="M82.779,82.973v51.981H134.9c-.505-.52-.936-.974-1.379-1.416a.956.956,0,0,1-.113-1.484c.489-.5,1.017-.369,1.48.091,1,.991,2,1.979,2.986,2.985.612.625.627,1.068.037,1.677-.98,1.01-1.986,1.995-2.987,2.984-.484.479-1.043.643-1.548.091-.466-.509-.292-1.042.167-1.493a6.59,6.59,0,0,0,1.2-1.427H82.59c-1.65,0-1.8-.143-1.8-1.773q0-25.472,0-50.944V83.183l-.236-.139c-.408.444-.8.9-1.229,1.33a.97.97,0,0,1-1.492.121.944.944,0,0,1,.078-1.484q1.513-1.532,3.05-3.041a1.024,1.024,0,0,1,1.624.016q1.524,1.522,3.047,3.044a.979.979,0,1,1-1.378,1.375Z" transform="translate(0 0)" fill="#fff"/>
      <path id="Trazado_995887" data-name="Trazado 995887" d="M211.426,208.877a10.869,10.869,0,1,1,10.92-10.858A10.849,10.849,0,0,1,211.426,208.877Zm8.982-10.98a8.948,8.948,0,1,0-8.8,9.057A8.963,8.963,0,0,0,220.408,197.9Z" transform="translate(-102.252 -89.385)" fill="#fff"/>
    </g>
  </g>
</svg>
