<svg xmlns="http://www.w3.org/2000/svg" width="96" height="96" viewBox="0 0 96 96">
  <g id="Grupo_154427" data-name="Grupo 154427" transform="translate(-794.039 -2920.081)">
    <path id="Elipse_5729" data-name="Elipse 5729" d="M48,0A48,48,0,1,1,0,48,48,48,0,0,1,48,0Z" transform="translate(794.039 2920.081)" fill="#0d47a1"/>
    <g id="Grupo_1178316" data-name="Grupo 1178316" transform="translate(734.901 2869.875)">
      <path id="Trazado_995888" data-name="Trazado 995888" d="M131.1,119.128a20.131,20.131,0,0,0,2.079,6.925c.176.351.389.684.549,1.042a2.114,2.114,0,0,1-1.832,3.085q-5.713.094-11.428,0a2.131,2.131,0,0,1-1.81-3.208c.608-1.311,1.165-2.646,1.727-3.978a8.171,8.171,0,0,0,.265-1.06,26.778,26.778,0,0,1-10.061,3.569,26.194,26.194,0,0,1-10.5-.745c.108.75.233,1.418.3,2.093.21,2.251-.805,3.353-3.071,3.354q-10.34,0-20.681,0c-2.133,0-3.213-1.121-3.027-3.235a9.342,9.342,0,0,1,5.055-7.78c1.084-.6,2.213-1.11,3.31-1.682a.834.834,0,0,0,.118-1.54,6.057,6.057,0,0,1-2.905-4.576c-.018-.2-.274-.436-.478-.555a3,3,0,0,1-1.7-2.611c-.01-2.677-.389-5.386.481-8.009a10.088,10.088,0,0,1,3.877-5.108,1.9,1.9,0,0,0,.737-.939A25.894,25.894,0,0,1,93.744,78.177c.1-.064.192-.143.378-.282-.86-1.2-.323-2.253.523-3.145a3.477,3.477,0,0,0,.681-3.105c-.168-1.545.09-2.112,1.541-2.671a4.16,4.16,0,0,0,2.59-2.639,1.9,1.9,0,0,1,2.463-1.461,4.561,4.561,0,0,0,3.838-1.042,1.846,1.846,0,0,1,2.781.01,4.609,4.609,0,0,0,3.841,1.034,1.914,1.914,0,0,1,2.455,1.479,4.089,4.089,0,0,0,2.518,2.587c1.552.592,1.823,1.127,1.574,2.811a3.654,3.654,0,0,0,.887,3.229,2.207,2.207,0,0,1,.346,2.921c.664.449,1.3.85,1.9,1.291A25.563,25.563,0,0,1,132.7,97.23a.9.9,0,0,0,.755.916,5.427,5.427,0,0,1,3.308,2.778,2.2,2.2,0,0,0,.851.854,5.606,5.606,0,0,1,2.178,8.074,1.911,1.911,0,0,0-.255,1.158,5.074,5.074,0,0,1-4.927,5.807,1.568,1.568,0,0,0-.8.264C132.933,117.705,132.092,118.369,131.1,119.128Zm-14.8-2.462c-.306-.15-.517-.252-.725-.357a4.971,4.971,0,0,1-2.784-5.144,1.982,1.982,0,0,0-.336-1.488,5.56,5.56,0,0,1,2.17-7.856,2.567,2.567,0,0,0,.97-.971,5.627,5.627,0,0,1,6.209-2.856,1.376,1.376,0,0,0,.775,0c1.054-.469,2.086-.988,3.23-1.54a18.859,18.859,0,0,0-7.894-11.95,1.086,1.086,0,0,0-.726-.018c-1.313.267-1.859,1.254-2.316,2.391-.537,1.336-1.157,1.791-2.5,1.554a4.376,4.376,0,0,0-3.889,1.1,1.86,1.86,0,0,1-2.578.062,4.313,4.313,0,0,0-4.14-1.118.515.515,0,0,1-.09,0,2.022,2.022,0,0,1-2.154-1.316c-.238-.522-.465-1.049-.719-1.563a2.167,2.167,0,0,0-2.939-.754,17.12,17.12,0,0,0-4.438,4.61c-.832,1.3-1.5,2.706-2.272,4.135.392.127.532.173.673.218a9.907,9.907,0,0,1,7.2,9.386,41.222,41.222,0,0,1-.021,4.711,3.272,3.272,0,0,1-.86,2.173,5,5,0,0,0-1.767,2.912,1.183,1.183,0,0,0,.439,1.5,18.742,18.742,0,0,0,12.221,4.555A18.242,18.242,0,0,0,116.3,116.667Zm14.47-.343.271.2a10.844,10.844,0,0,0,1.326-1.344,1.41,1.41,0,0,1,1.52-.693c2.452.363,3.94-1.389,3.213-3.787a1.475,1.475,0,0,1,.355-1.563,3.329,3.329,0,0,0-1.345-5.582,2.291,2.291,0,0,1-1.139-1.121c-.837-2-2.546-2.853-4.524-2.059a1.563,1.563,0,0,1-1.936-.4,3.213,3.213,0,0,0-4.7-.007,1.565,1.565,0,0,1-1.935.412,3.347,3.347,0,0,0-4.576,2.13,1.979,1.979,0,0,1-1,1.018c-2.588,1.049-3.2,3.541-1.415,5.7a1.809,1.809,0,0,1,.294,1.447c-.712,2.318.8,4.189,3.208,3.821a1.419,1.419,0,0,1,1.538.658,13.192,13.192,0,0,0,1.314,1.382l.277-.145c.043-.891.093-1.782.126-2.673a2.319,2.319,0,0,1,2.506-2.476c1.36-.021,2.721-.025,4.081,0a2.227,2.227,0,0,1,2.4,2.278C130.706,114.454,130.726,115.39,130.77,116.324Zm-23.622-28.6a6.126,6.126,0,0,0,.825-.563,4.05,4.05,0,0,1,3.947-.966.817.817,0,0,0,1.13-.659,4.079,4.079,0,0,1,2.907-2.951.932.932,0,0,0,.772-1.27,3.977,3.977,0,0,1,1.075-3.994A.837.837,0,0,0,117.821,76a4.056,4.056,0,0,1-1.092-4.075.89.89,0,0,0-.736-1.2,4.165,4.165,0,0,1-2.966-3.01.756.756,0,0,0-1.005-.618,4.4,4.4,0,0,1-4.331-1.17.707.707,0,0,0-1.1,0,4.407,4.407,0,0,1-4.332,1.172.7.7,0,0,0-.968.531,4.39,4.39,0,0,1-3.158,3.18.746.746,0,0,0-.584,1.023,4.341,4.341,0,0,1-1.191,4.318.655.655,0,0,0,.022,1.019A4.368,4.368,0,0,1,97.54,81.5a.757.757,0,0,0,.616,1.013,4.443,4.443,0,0,1,3.151,3.19c.131.43.37.651.87.526a4.4,4.4,0,0,1,4.348,1.093A4.2,4.2,0,0,0,107.148,87.727Zm-24.4,31.905c-.944.473-1.831.921-2.721,1.363a7.243,7.243,0,0,0-4.159,5.765c-.166,1.148-.087,1.246,1.085,1.246q8.609,0,17.218,0c1.087,0,2.175-.015,3.262.005.6.011.864-.255.75-.826a15.151,15.151,0,0,0-.568-2.366c-1.116-2.971-3.83-3.974-6.395-5.166C89.359,123.149,84.913,123.47,82.743,119.632Zm4.3-3.914a8.847,8.847,0,0,0,4.531-2.341,3.764,3.764,0,0,0,1.035-3.066A1.155,1.155,0,0,1,93.691,109c.668-.081,1.085-.394,1.1-1.078a1.048,1.048,0,0,0-1.046-1.133A1.175,1.175,0,0,1,92.6,105.62c-.072-.748-.581-1.1-1.273-1.352-1.3-.465-2.553-1.039-3.842-1.525a1.443,1.443,0,0,0-.934-.022c-1.318.493-2.606,1.067-3.925,1.558-.647.241-1.157.571-1.215,1.3a1.217,1.217,0,0,1-1.2,1.222,1.1,1.1,0,0,0,.04,2.193,1.168,1.168,0,0,1,1.143,1.347,3.861,3.861,0,0,0,1.74,3.645A8.811,8.811,0,0,0,87.046,115.718Zm44.245,12.243c-.727-2.352-1.614-4.636-2.111-7-.506-2.405-.626-4.892-.923-7.4H123.93c-.2,4.979-.727,9.875-3.222,14.405Zm-52.01-23.484a4.44,4.44,0,0,1,3.1-2.437,15.941,15.941,0,0,0,3.273-1.466,2.126,2.126,0,0,1,2.747.046,9.614,9.614,0,0,0,2.411,1.208c1.624.445,3.189.877,3.908,2.676.293-3.376-.844-6.04-3.713-7.748a7.407,7.407,0,0,0-8.3.179A7.533,7.533,0,0,0,79.281,104.476Zm41.824,14.4a6.515,6.515,0,0,1-1.311-.726c-.557-.508-.962-.386-1.571-.036-7.515,4.318-15.023,4.279-22.46-.195-1.148-.691-2.175-1.584-3.265-2.388-.18.13-.353.249-.521.377-.756.577-.709,1.193.123,1.638q.279.149.564.288c2.083,1.026,4.237,1.94,5.719,3.865a1.571,1.571,0,0,0,.7.366,23.114,23.114,0,0,0,15.273.311A21.444,21.444,0,0,0,121.105,118.877ZM118.95,79.856c-.085.146-.115.173-.113.2a15.876,15.876,0,0,0,.174,1.892,1.646,1.646,0,0,0,.537.934,20.986,20.986,0,0,1,8.288,12.676,2.58,2.58,0,0,0,1.6,2.244c.29.1.593.168.89.25a3.079,3.079,0,0,0,.119-.828,23.36,23.36,0,0,0-4.6-11.271A23,23,0,0,0,118.95,79.856Zm-23.488-.106A23.942,23.942,0,0,0,84.556,93.624a8.569,8.569,0,0,1,1.455-.17c.762.048,1.087-.3,1.345-.989A20.764,20.764,0,0,1,94.7,82.919a1.264,1.264,0,0,0,.528-.655C95.353,81.5,95.38,80.723,95.462,79.751ZM89.189,117.6a17.6,17.6,0,0,1-2.229.269,16.437,16.437,0,0,1-2.153-.28,2.1,2.1,0,0,0,1.027,2.227,2.056,2.056,0,0,0,2.313.01A2.115,2.115,0,0,0,89.189,117.6Z" fill="#fff"/>
      <path id="Trazado_995889" data-name="Trazado 995889" d="M236.435,103.3a7.816,7.816,0,1,1-7.793-7.772A7.842,7.842,0,0,1,236.435,103.3Zm-7.782,5.595a5.58,5.58,0,1,0-5.625-5.538A5.582,5.582,0,0,0,228.654,108.892Z" transform="translate(-121.482 -26.668)" fill="#fff"/>
    </g>
  </g>
</svg>
