<svg xmlns="http://www.w3.org/2000/svg" width="96" height="96" viewBox="0 0 96 96">
  <g id="Grupo_154427" data-name="Grupo 154427" transform="translate(-794.039 -2920.081)">
    <path id="Elipse_5729" data-name="Elipse 5729" d="M48,0A48,48,0,1,1,0,48,48,48,0,0,1,48,0Z" transform="translate(794.039 2920.081)" fill="#0d47a1"/>
    <g id="Grupo_1178317" data-name="Grupo 1178317" transform="translate(717.676 2888.76)">
      <path id="Trazado_995890" data-name="Trazado 995890" d="M211.35,46.632a3.853,3.853,0,0,1,1.653.375,11.818,11.818,0,0,1,5.163,4.332,11.158,11.158,0,0,1,.316,12.323,11.075,11.075,0,0,1-10.92,5.734,11.654,11.654,0,0,1-3.61-22.42l.007,0a3.983,3.983,0,0,1,1.576-.34Zm2.04,15.03a4.562,4.562,0,0,1-5.432-2.557,1.867,1.867,0,0,1,.178-2.458,7.7,7.7,0,0,0,1.876-2.335,5.344,5.344,0,0,1,2.5-1.535,29.408,29.408,0,0,1,3.5-.884,9.1,9.1,0,0,0-4.362-3.145,1.028,1.028,0,0,0-.837.351,15.145,15.145,0,0,1-5.047,3.884,5.885,5.885,0,0,0-2.464,1.936c-1.033,1.71-2.284,2.686-4.327,2.457-.042,0-.092.063-.248.177.1.874.209,1.813.344,2.988.475-.609.743-1,1.057-1.347A1.48,1.48,0,0,1,202.407,59a5.634,5.634,0,0,0,3.888,1.871,2.585,2.585,0,0,1,.6.167c1.984.664,2.609,2.335,1.449,4.07a20.312,20.312,0,0,1-1.735,2c.018.018.05.081.094.089a9.209,9.209,0,0,0,7.343-1.645.707.707,0,0,0,.17-.606C213.949,63.791,213.641,62.645,213.39,61.662Zm-3.954-3.622a15.267,15.267,0,0,0,2.26,1.578c.174.082.721-.612,1.09-.956a1.312,1.312,0,0,1,2.244.451,8.564,8.564,0,0,1,.356,1.558c.186.935.361,1.873.561,2.917,2.231-2.274,2.772-7.323,1.095-9.821-1.532.4-3.113.783-4.672,1.244a1.19,1.19,0,0,0-.746.737C211.472,56.9,210.833,57.569,209.436,58.04ZM199.2,55.2c.735.083,1.377.166,1.77-.579a8.3,8.3,0,0,1,4.361-3.757,8.2,8.2,0,0,0,3.362-2.572C204.856,47.628,200.044,51.146,199.2,55.2Zm2.306,5.694c-1.487,1.7-1.488,2.031-.07,3.507a8.722,8.722,0,0,0,.663.609c2.025,1.638,1.694,1.582,3.85-.233a5.14,5.14,0,0,0,.844-1.388,5.105,5.105,0,0,0-1.424-.595A5.34,5.34,0,0,1,201.5,60.892Z" transform="translate(-84.06 0)" fill="#fff"/>
      <path id="Trazado_995891" data-name="Trazado 995891" d="M101.29,225.975c0-.616,0-1.087,0-1.557a2.026,2.026,0,0,1,1.958-2.322c1.8-.236,3.615-.355,5.427-.41a85.639,85.639,0,0,1,16.371.954,14.291,14.291,0,0,0,3.967-.358,86.364,86.364,0,0,1,18.8-.274c1.71.15,2.386.942,2.389,2.685,0,.381,0,.762,0,1.276.958,0,1.839-.009,2.72,0,1.831.022,2.529.727,2.529,2.555q0,12.367,0,24.734c0,1.866-1,2.72-2.842,2.428a80.363,80.363,0,0,0-20.185-1c-1.714.161-3.414.672-5.121.67-2.333,0-4.667-.32-7-.543a68.562,68.562,0,0,0-15.853.147c-1.945.265-3.89.53-5.839.762a2.093,2.093,0,0,1-2.566-2.289q-.008-12.59,0-25.181a2.028,2.028,0,0,1,2.171-2.271C99.2,225.94,100.176,225.975,101.29,225.975Zm2.164-1.865v24.519a84.019,84.019,0,0,1,21.18.529V224.682A82.012,82.012,0,0,0,103.454,224.11Zm44.6,24.513V224.11a81.675,81.675,0,0,0-21.166.575v24.473A85.209,85.209,0,0,1,148.049,248.623Zm-49.92-20.546v25.591c.441-.031.823-.041,1.2-.089,2.389-.3,4.772-.665,7.167-.917a64.609,64.609,0,0,1,16.109.378,21.534,21.534,0,0,0,4.252.291c1.864-.1,3.708-.524,5.571-.7a64.837,64.837,0,0,1,15.756.4c1.7.253,3.407.441,5.173.666V228.1H150.2v1.1q0,9.42,0,18.839c0,1.942-.909,2.742-2.834,2.586a87.1,87.1,0,0,0-17.823.253,20.063,20.063,0,0,1-6.007.268,77.6,77.6,0,0,0-19.493-.511c-1.787.148-2.752-.705-2.752-2.5q0-9.509,0-19.018v-1.03Z" transform="translate(-1.394 -143.741)" fill="#fff"/>
      <path id="Trazado_995892" data-name="Trazado 995892" d="M98.862,91.291c-2.153-3.911-1.778-7.26,1.044-9.582a6.861,6.861,0,0,1,8.651-.007c2.862,2.357,3.226,5.59,1.047,9.589a8.3,8.3,0,0,1,4,4.485,14.457,14.457,0,0,1,.465,6.266c-.089,1.147-1,1.726-2.332,1.731-3.006.011-6.013,0-9.019,0-1.994,0-3.989.011-5.983,0a2.129,2.129,0,0,1-2.385-2.437,27.045,27.045,0,0,1,.259-4.615A7.84,7.84,0,0,1,98.862,91.291Zm2.146,10.386h6.406c0-.891-.009-1.661,0-2.431.014-.894.388-1.37,1.053-1.371s1.043.475,1.053,1.364c.009.792,0,1.584,0,2.363h2.516c0-1.055.026-2.036,0-3.016a5.95,5.95,0,0,0-3.67-5.543,1.418,1.418,0,0,0-1.054.021,7.164,7.164,0,0,1-6.133.016,1.511,1.511,0,0,0-1.129-.009c-3.521,1.708-4.01,4.7-3.463,8.554h2.382c0-.876.006-1.7,0-2.527-.007-.693.262-1.188,1-1.214.76-.026,1.03.486,1.038,1.168C101.016,99.881,101.008,100.71,101.008,101.677ZM99.485,86.937a4.751,4.751,0,1,0,4.8-4.719A4.75,4.75,0,0,0,99.485,86.937Z" transform="translate(0 -27.549)" fill="#fff"/>
      <path id="Trazado_995893" data-name="Trazado 995893" d="M334.7,91.249a8.05,8.05,0,0,1,4.439,6.173,28.34,28.34,0,0,1,.08,4.543,1.954,1.954,0,0,1-1.766,1.743,7.341,7.341,0,0,1-1.068.042q-7.189,0-14.378,0c-1.774,0-2.559-.79-2.557-2.561a27.422,27.422,0,0,1,.068-3.3c.376-3.059,1.469-4.637,4.477-6.67a6.985,6.985,0,0,1-1.247-5.942,6.73,6.73,0,0,1,2.74-3.942,6.84,6.84,0,0,1,9.212,9.912Zm-8.52,10.344h6.408c0-.855,0-1.653,0-2.451,0-.7.19-1.29,1.015-1.281.8.008,1.039.554,1.027,1.276-.013.82,0,1.64,0,2.469h2.521c0-1.136.051-2.231-.011-3.319a5.875,5.875,0,0,0-3.655-5.276,1.425,1.425,0,0,0-1.054.032,6.447,6.447,0,0,1-5.614.161,2.274,2.274,0,0,0-2.592.35,5.01,5.01,0,0,0-2.269,2.992c-.324,1.634-.384,3.321-.564,5.05h2.681c0-.853,0-1.651,0-2.449,0-.709.24-1.27,1.034-1.284s1.065.538,1.075,1.247C326.185,99.913,326.177,100.715,326.177,101.593Zm7.93-14.664a4.752,4.752,0,1,0-4.764,4.753A4.753,4.753,0,0,0,334.107,86.93Z" transform="translate(-184.886 -27.524)" fill="#fff"/>
      <path id="Trazado_995894" data-name="Trazado 995894" d="M165.1,280.667c1.8.108,3.843.221,5.886.359.783.053,1.24.538,1.129,1.18-.127.728-.641.91-1.315.89q-5.248-.159-10.5-.292c-.3-.008-.594.015-.89.006a.943.943,0,0,1-1-.926.909.909,0,0,1,.925-1.075c1.3-.074,2.609-.1,3.914-.138C163.784,280.655,164.319,280.667,165.1,280.667Z" transform="translate(-52.618 -192.234)" fill="#fff"/>
      <path id="Trazado_995895" data-name="Trazado 995895" d="M164.492,251.661q3.343.2,6.686.4c.719.044,1.241.362,1.164,1.153s-.669.936-1.372.916c-3.628-.1-7.257-.18-10.886-.292a1.879,1.879,0,0,1-1.134-.325,1.1,1.1,0,0,1-.213-1.02,1.31,1.31,0,0,1,.933-.647c1.6-.066,3.213-.03,4.82-.03Z" transform="translate(-52.848 -168.412)" fill="#fff"/>
      <path id="Trazado_995896" data-name="Trazado 995896" d="M164.9,309.433q3.03.185,6.06.37c.729.044,1.233.37,1.159,1.154-.07.735-.609.926-1.292.907q-5.576-.151-11.152-.267c-.682-.014-1.21-.218-1.256-.959-.05-.806.5-1.1,1.209-1.1,1.756-.016,3.513-.005,5.269-.005Z" transform="translate(-52.63 -215.867)" fill="#fff"/>
      <path id="Trazado_995897" data-name="Trazado 995897" d="M164.927,338.242c2.019.125,4.038.243,6.057.378.713.047,1.239.365,1.14,1.167-.091.736-.635.9-1.313.883-3.746-.1-7.493-.185-11.239-.275-.645-.016-1.13-.276-1.149-.975-.02-.734.44-1.071,1.141-1.074,1.786-.009,3.572,0,5.358,0Z" transform="translate(-52.633 -239.531)" fill="#fff"/>
      <path id="Trazado_995898" data-name="Trazado 995898" d="M297.719,283q-3.465.206-6.931.411c-.676.04-1.208-.192-1.275-.926a.983.983,0,0,1,1.073-1.139c3.648-.114,7.3-.207,10.946-.3a4.887,4.887,0,0,1,.8.075.922.922,0,0,1,.893,1.025.952.952,0,0,1-1.044.98c-1.485.009-2.97,0-4.454,0Z" transform="translate(-160.306 -192.55)" fill="#fff"/>
      <path id="Trazado_995899" data-name="Trazado 995899" d="M296.924,254.4c-2.014.125-4.028.247-6.042.376-.7.045-1.288-.128-1.359-.924s.452-1.124,1.169-1.142q5.65-.142,11.3-.257a1.062,1.062,0,0,1,1.239.891c.117.667-.4,1.152-1.225,1.156-1.693.007-3.385,0-5.078,0Z" transform="translate(-160.315 -169.061)" fill="#fff"/>
      <path id="Trazado_995900" data-name="Trazado 995900" d="M296.829,309.519c1.692,0,3.384-.006,5.077,0,.72,0,1.357.21,1.324,1.077s-.666.978-1.395.992q-5.472.1-10.944.263c-.709.02-1.291-.126-1.363-.915s.441-1.1,1.165-1.142q3.067-.183,6.132-.371Z" transform="translate(-160.318 -215.861)" fill="#fff"/>
      <path id="Trazado_995901" data-name="Trazado 995901" d="M296.748,338.768q2.635,0,5.27,0c.69,0,1.191.289,1.189,1.029,0,.809-.565,1.01-1.277,1.025-3.6.075-7.2.166-10.8.252-.179,0-.357.02-.535.022a.965.965,0,0,1-1.1-.923.92.92,0,0,1,.922-1.088q2.134-.189,4.274-.306c.683-.038,1.369-.007,2.054-.007Z" transform="translate(-160.294 -239.957)" fill="#fff"/>
    </g>
  </g>
</svg>
