<svg xmlns="http://www.w3.org/2000/svg" width="96" height="96" viewBox="0 0 96 96">
  <g id="Grupo_154427" data-name="Grupo 154427" transform="translate(-794.039 -2920.081)">
    <path id="Elipse_5729" data-name="Elipse 5729" d="M48,0A48,48,0,1,1,0,48,48,48,0,0,1,48,0Z" transform="translate(794.039 2920.081)" fill="#0d47a1"/>
    <g id="Grupo_1178318" data-name="Grupo 1178318" transform="translate(755.717 2866.609)">
      <path id="Trazado_995902" data-name="Trazado 995902" d="M321.294,251.632h-2V250.6c0-5.23.019-10.459-.007-15.689a6.3,6.3,0,0,0-6.244-6.449,1.692,1.692,0,0,0-1.133.539c-1.116,1.3-2.156,2.659-3.236,3.987-.826,1.016-1.514.959-2.2-.173-.763-1.253-1.548-2.493-2.259-3.775a.864.864,0,0,0-1.192-.484c-.741.266-1.473.558-2.3.875l-1.233-1.753,3.74-1.462a3.746,3.746,0,0,1-.493-1.072c-.2-1.41-.325-2.83-.454-4.249-.043-.478.058-.926-.567-1.2-.259-.114-.424-.717-.425-1.1A6.237,6.237,0,0,1,306,212.759a6.3,6.3,0,0,1,7.218,3.173,8.529,8.529,0,0,1,.443,6.337,30.805,30.805,0,0,1-1.622,3.765,25.018,25.018,0,0,1,4.3,1.042,7.632,7.632,0,0,1,4.969,7.011c.164,5.714.057,11.436.06,17.155A2.329,2.329,0,0,1,321.294,251.632ZM303.57,217.837c1.659,0,3.245-.011,4.832,0,.943.009,1.318.4,1.343,1.341.016.58,0,1.16.006,1.741a.978.978,0,0,0,1.055,1.11.96.96,0,0,0,1.009-1.065c0-.885.038-1.775-.037-2.655a4.143,4.143,0,0,0-3.785-3.617A4.067,4.067,0,0,0,303.57,217.837Zm.874,2.154c0,1.227-.065,2.359.016,3.48a3.083,3.083,0,0,0,2.911,2.8,2.843,2.843,0,0,0,3.073-2.059c-2.24-.491-3-2.061-2.9-4.222Zm5.372,8.131-3.486.351,1.4,2.308c.663-.824,1.251-1.549,1.833-2.279C309.67,228.365,309.757,228.21,309.816,228.122Z" transform="translate(-203.225 -118.453)" fill="#fff"/>
      <path id="Trazado_995903" data-name="Trazado 995903" d="M72.617,225.9l3.793,1.48-1.154,1.648c-1.191-.318-2.23-.637-3.291-.846a.991.991,0,0,0-.782.488,4.3,4.3,0,0,1-7.89.023,1.141,1.141,0,0,0-.867-.512c-3.134.067-5.8,2.99-5.818,6.4-.027,5.229-.008,10.459-.008,15.689v1.053H54.518v-1.083c0-4.985.147-9.975-.042-14.953a8.781,8.781,0,0,1,8.543-9.35v-.949c0-2.447-.011-4.893,0-7.34a5.281,5.281,0,0,1,5.365-5.431c1.376-.022,2.753-.017,4.128,0a3.047,3.047,0,0,1,1.633,5.705,1.457,1.457,0,0,0-.5.933,14.355,14.355,0,0,0-.022,1.924C73.65,222.58,73.755,224.4,72.617,225.9Zm-1.157-7.282a11.1,11.1,0,0,1-1.651-.013,4.12,4.12,0,0,0-3.742,1.5,3.335,3.335,0,0,0-.82,3.574,3.164,3.164,0,0,0,6.2-.639C71.506,221.61,71.46,220.178,71.46,218.617Zm-6.314-.568a5.639,5.639,0,0,0,.641-.582,2.655,2.655,0,0,1,2.485-1.042c1.157.08,2.324.039,3.485.006a2.047,2.047,0,0,0,1.123-.277,1.611,1.611,0,0,0,.665-1.048c0-.572-.525-.733-1.075-.727-1.376.014-2.753-.01-4.129.009A3.165,3.165,0,0,0,65.146,218.048Zm3.714,10.278-3.627-.951a1.8,1.8,0,0,0,1.441,1.7A1.913,1.913,0,0,0,68.86,228.326Z" transform="translate(0 -118.151)" fill="#fff"/>
      <path id="Trazado_995904" data-name="Trazado 995904" d="M162.649,145.9v2.619h-2.011a2.988,2.988,0,0,1-.075-.485c-.005-2.906,0-5.812-.009-8.718,0-.81.3-1.3,1.158-1.311,1.681-.011,3.361,0,5.119,0v2.083H162.68c.01,1.381-.341,2.592.893,3.738,2.933,2.725,5.693,5.635,8.56,8.433a2.25,2.25,0,0,0,1.341.553c1.277.074,2.561.026,4.009.026,0-1.225.035-2.4-.013-3.577a2.288,2.288,0,0,1,.764-1.863c2.165-2.115,4.291-4.271,6.448-6.395a4.1,4.1,0,0,1,.871-.512l-.256-.373H181.8v-2.1c1.814,0,3.609-.048,5.4.045a1.322,1.322,0,0,1,.85.965c.061,3.846.039,7.692.039,11.587h-2.013l-.1-1.307c-2.6,1.107-2.141,3.4-2.087,5.543h-2.1c0-1.467-.029-2.922.025-4.375.01-.279.312-.581.539-.813,1.005-1.027,2.014-2.052,3.061-3.036a1.753,1.753,0,0,0,.615-1.526c-.052-.718-.012-1.442-.012-2.362-.354.307-.559.465-.742.647-1.713,1.7-3.438,3.4-5.116,5.133a1.971,1.971,0,0,0-.49,1.181c-.062,1.282-.011,2.568-.027,3.853-.012.981-.357,1.33-1.327,1.336-1.958.012-3.917.042-5.872-.025a2.223,2.223,0,0,1-1.332-.62c-2.583-2.519-5.125-5.08-7.682-7.626C163.228,146.418,163.009,146.23,162.649,145.9Z" transform="translate(-87.991 -56.605)" fill="#fff"/>
      <path id="Trazado_995905" data-name="Trazado 995905" d="M169.665,91.938V90.806q0-8.579,0-17.159c0-1.487-.3-1.794-1.742-1.794q-14.223,0-28.445,0c-1.389,0-1.7.322-1.7,1.739q0,8.579,0,17.159v1.168h-2.019c-.014-.316-.042-.639-.042-.962q0-8.809,0-17.618c0-2.353,1.2-3.578,3.529-3.579q14.5-.009,29,0c2.274,0,3.491,1.24,3.492,3.524q.006,8.855,0,17.71v.944Z" transform="translate(-67.384)" fill="#fff"/>
      <path id="Trazado_995906" data-name="Trazado 995906" d="M96.853,352.1v4.2H94.82v-4.14c-.4-.018-.724-.046-1.049-.046-3.178,0-6.356-.026-9.534.006a5.46,5.46,0,0,1-4.426-2c-1.625-1.9-3.253-3.8-4.942-5.765l1.6-1.356,1.831,2.078,3.588-2.863-1.695-2.1,1.594-1.356c1.466,1.754,2.914,3.438,4.3,5.172a1.769,1.769,0,0,0,1.695.8,11.186,11.186,0,0,1,2.106,0,7.6,7.6,0,0,0,6.043-1.647,2.116,2.116,0,0,1,2.79.052,2.224,2.224,0,0,1,.681,2.636.738.738,0,0,0,.382,1.036,14.127,14.127,0,0,1,1.443.971,2.391,2.391,0,0,1,.824,2.708,2.344,2.344,0,0,1-2.217,1.615C98.9,352.128,97.952,352.1,96.853,352.1ZM79.748,346.64c2.483,3.27,2.6,3.482,5.945,3.4.458-.011.917,0,1.375,0,4.035,0,8.069,0,12.1-.01a3.541,3.541,0,0,0,.834-.209,3.673,3.673,0,0,0-.577-.7c-.612-.455-1.259-.863-1.9-1.283a1.173,1.173,0,0,1-.519-1.57c.182-.464.3-.955.44-1.434a10.43,10.43,0,0,0-2.386,1.34,3.544,3.544,0,0,1-2.3.707c-1.985-.053-3.973-.035-5.96-.007a1.857,1.857,0,0,1-1.654-.766c-.585-.766-1.242-1.478-1.906-2.257Z" transform="translate(-16.922 -223.123)" fill="#fff"/>
      <path id="Trazado_995907" data-name="Trazado 995907" d="M258.242,346.881v3.179h.979c1.987,0,3.975-.03,5.962.01a3.969,3.969,0,0,0,3.358-1.522c1.533-1.855,3.129-3.657,4.748-5.537l1.567,1.321c-.171.237-.311.461-.481.66-1.45,1.7-2.911,3.381-4.356,5.081a5.521,5.521,0,0,1-4.49,2.07c-3.149-.036-6.3-.01-9.447-.009h-1.1v4.2h-2.041v-4.2c-.992,0-1.868.01-2.744,0a2.429,2.429,0,0,1-1.424-4.51c.149-.107.3-.21.458-.3.793-.469,1.535-.845,1.011-2.084a1.872,1.872,0,0,1,.9-2.138,2.205,2.205,0,0,1,2.337-.232,2.3,2.3,0,0,1,.629.372,6.335,6.335,0,0,0,5.157,1.52c1.24-.116,2.657.287,3.7-.19,1.008-.462,1.64-1.749,2.429-2.681.846-1,1.682-2.011,2.59-3.1l1.622,1.345c-1.348,1.619-2.756,3.113-3.927,4.773a4.164,4.164,0,0,1-4.315,2A24.177,24.177,0,0,0,258.242,346.881Zm-2.192,3.178c0-.99.007-1.9-.008-2.8a.518.518,0,0,0-.175-.378c-1.12-.72-2.252-1.421-3.622-2.278.207.7.3,1.168.481,1.6a1.236,1.236,0,0,1-.571,1.706c-.724.451-1.432.93-2.126,1.426-.14.1-.186.332-.275.5.155.074.309.21.465.211C252.134,350.064,254.048,350.059,256.05,350.059Z" transform="translate(-160.173 -223.144)" fill="#fff"/>
      <path id="Trazado_995908" data-name="Trazado 995908" d="M200.834,298.364c-1.59,0-3.181-.022-4.771.009a1.48,1.48,0,0,1-1.6-1.076c-.559-1.485-1.243-2.926-1.742-4.43a2.844,2.844,0,0,1,.08-1.806c.473-1.187,1.134-2.3,1.685-3.456a1.5,1.5,0,0,1,1.513-.947q4.908.029,9.817,0a1.5,1.5,0,0,1,1.522.933c.581,1.211,1.251,2.383,1.781,3.615a2.211,2.211,0,0,1,.062,1.477c-.568,1.611-1.246,3.183-1.878,4.772a1.36,1.36,0,0,1-1.428.915C204.2,298.352,202.516,298.364,200.834,298.364Zm5.8-5.306c-.6,0-1.175.022-1.751-.005a2.51,2.51,0,0,0-2.217.734c-.536.588-3,.557-3.542-.024-1.2-1.287-2.622-.468-4.05-.714.375.958.7,1.714.965,2.49a.889.889,0,0,0,1.018.663c1.86-.032,3.72-.012,5.581-.012,3.08,0,3.08,0,4.022-2.92A.985.985,0,0,0,206.636,293.058Zm-.082-2.21c-.247-.523-.476-.948-.651-1.393a.882.882,0,0,0-.962-.631c-2.689.027-5.378.007-8.067.023-.244,0-.6.075-.708.241a18.689,18.689,0,0,0-.893,1.76Z" transform="translate(-114.584 -179.908)" fill="#fff"/>
      <path id="Trazado_995909" data-name="Trazado 995909" d="M210.372,94.66a6.227,6.227,0,0,1,5.782,8.713,38.818,38.818,0,0,1-4.845,7.633c-.583.743-1.223.809-1.765.129a34.593,34.593,0,0,1-5.129-8.2C202.828,99.12,206.076,94.544,210.372,94.66Zm-.258,14.084h.508c1.21-2.1,2.509-4.164,3.6-6.328a3.834,3.834,0,0,0-1.3-4.807,4.254,4.254,0,0,0-5.112,0,3.833,3.833,0,0,0-1.3,4.807C207.6,104.581,208.9,106.64,210.115,108.744Z" transform="translate(-124.033 -20.653)" fill="#fff"/>
      <path id="Trazado_995910" data-name="Trazado 995910" d="M179.148,258.193v-2h21.2v2Z" transform="translate(-103.414 -154.637)" fill="#fff"/>
      <path id="Trazado_995911" data-name="Trazado 995911" d="M160.813,96.934V95h4.136v1.939Z" transform="translate(-88.206 -20.934)" fill="#fff"/>
      <path id="Trazado_995912" data-name="Trazado 995912" d="M301.763,95.1v1.927h-4.126V95.1Z" transform="translate(-201.693 -21.022)" fill="#fff"/>
      <path id="Trazado_995913" data-name="Trazado 995913" d="M231.005,119.526a2.1,2.1,0,0,1,2.081,2.111,2.126,2.126,0,1,1-4.251-.092A2.093,2.093,0,0,1,231.005,119.526Z" transform="translate(-144.626 -41.281)" fill="#fff"/>
    </g>
  </g>
</svg>
