<svg xmlns="http://www.w3.org/2000/svg" width="144" height="144" viewBox="0 0 144 144">
  <g id="Grupo_1179516" data-name="Grupo 1179516" transform="translate(-312.029 -4786.249)">
    <circle id="Elipse_13613" data-name="Elipse 13613" cx="72" cy="72" r="72" transform="translate(312.029 4786.249)" fill="#0d47a1"/>
    <circle id="Elipse_13614" data-name="Elipse 13614" cx="65" cy="65" r="65" transform="translate(319.029 4793.249)" fill="#fff"/>
    <g id="Fill_out_line" data-name="Fill out line" transform="translate(197.813 4692.536)">
      <rect id="Rectángulo_455259" data-name="Rectángulo 455259" width="70.073" height="46.715" rx="8.4" transform="translate(137.832 147.12)" fill="#fff"/>
      <path id="Trazado_996485" data-name="Trazado 996485" d="M143.7,174.971h43.379v46.715H143.7a3.337,3.337,0,0,1-3.337-3.337V178.308A3.337,3.337,0,0,1,143.7,174.971Z" transform="translate(-2.532 -27.85)" fill="#305729"/>
      <path id="Trazado_996486" data-name="Trazado 996486" d="M187.311,188.318l-3.337-3.337-3.337,3.337-3.337-3.337-3.337,3.337V174.971h13.347Z" transform="translate(-22.785 -27.85)" fill="#69300a"/>
      <path id="Trazado_996487" data-name="Trazado 996487" d="M190.765,237.972h20.021v15.016H190.765Z" transform="translate(-32.912 -65.825)" fill="#f4b400"/>
      <rect id="Rectángulo_455260" data-name="Rectángulo 455260" width="40.042" height="60.063" rx="8.4" transform="translate(194.558 133.773)" fill="#f4b400"/>
      <path id="Trazado_996488" data-name="Trazado 996488" d="M295.767,153.97H325.8v45.047a3.337,3.337,0,0,1-3.337,3.337H295.767V153.97Z" transform="translate(-96.204 -15.192)" fill="#305729"/>
      <path id="Trazado_996489" data-name="Trazado 996489" d="M329.251,142.98v3.337H312.567V142.98a5.005,5.005,0,0,1,5.005-5.005v-1.668a3.337,3.337,0,0,1,6.674,0v1.668A5.006,5.006,0,0,1,329.251,142.98Z" transform="translate(-106.33 -2.534)" fill="#e0e9e9"/>
      <path id="Trazado_996490" data-name="Trazado 996490" d="M270.566,262.309a3.337,3.337,0,0,0,3.337,3.337h33.368a3.337,3.337,0,0,1-3.337-3.337v-3.337H270.566Z" transform="translate(-81.013 -78.484)" fill="#e0a57d"/>
      <path id="Trazado_996491" data-name="Trazado 996491" d="M186.216,174.108h3.337v-3.337H141.169a5.01,5.01,0,0,0-5.005,5.005v40.042a5.011,5.011,0,0,0,5.005,5.005h48.384v-3.337h-3.337Zm-33.368,0h10.011v7.651l-.489-.489a1.669,1.669,0,0,0-2.36,0l-2.157,2.157L155.7,181.27a1.669,1.669,0,0,0-2.36,0l-.489.489ZM139.5,215.818V175.776a1.67,1.67,0,0,1,1.668-1.668h8.342v11.679a1.668,1.668,0,0,0,2.848,1.18l2.157-2.157,2.157,2.157a1.669,1.669,0,0,0,2.36,0l2.157-2.157,2.157,2.157a1.668,1.668,0,0,0,2.848-1.18V174.108h16.684v43.379h-41.71A1.67,1.67,0,0,1,139.5,215.818Z" transform="translate(0 -25.319)"/>
      <path id="Trazado_996492" data-name="Trazado 996492" d="M208.254,233.772H188.233a1.668,1.668,0,0,0-1.668,1.668v15.016a1.668,1.668,0,0,0,1.668,1.668h20.021a1.669,1.669,0,0,0,1.668-1.668V235.44A1.668,1.668,0,0,0,208.254,233.772Zm-1.669,15.016H189.9V237.109h16.684Z" transform="translate(-30.38 -63.294)"/>
      <path id="Trazado_996493" data-name="Trazado 996493" d="M199.165,246.372h6.674v3.337h-6.674Z" transform="translate(-37.975 -70.889)"/>
      <path id="Trazado_996494" data-name="Trazado 996494" d="M224.365,246.372H227.7v3.337h-3.337Z" transform="translate(-53.165 -70.889)"/>
      <path id="Trazado_996495" data-name="Trazado 996495" d="M199.165,258.972H202.5v3.337h-3.337Z" transform="translate(-37.975 -78.484)"/>
      <path id="Trazado_996496" data-name="Trazado 996496" d="M215.965,258.972h6.674v3.337h-6.674Z" transform="translate(-48.101 -78.484)"/>
      <path id="Trazado_996497" data-name="Trazado 996497" d="M309.745,132.1H297.779a5,5,0,0,0-9.436,0H276.376a5.011,5.011,0,0,0-5.005,5.005v41.71h-3.337a1.668,1.668,0,0,0-1.668,1.668v3.337a5.011,5.011,0,0,0,5.005,5.006V190.5a5.011,5.011,0,0,0,5.005,5.005h33.368a5.011,5.011,0,0,0,5.005-5.005V137.11A5.011,5.011,0,0,0,309.745,132.1Zm-18.353,3.337v-1.668a1.668,1.668,0,0,1,3.337,0v1.668a1.668,1.668,0,0,0,1.668,1.668,3.341,3.341,0,0,1,3.337,3.337v1.669H286.387v-1.669a3.341,3.341,0,0,1,3.337-3.337A1.668,1.668,0,0,0,291.392,135.442ZM301.4,145.452a1.669,1.669,0,0,0,1.668-1.668v-3.337h3.337v43.379a1.668,1.668,0,1,1-3.337,0v-1.668a1.668,1.668,0,0,0,1.668-1.668V163.8a1.669,1.669,0,0,0-1.668-1.669H283.05a1.669,1.669,0,0,0-1.668,1.669V178.82h-1.668V140.447h3.337v3.337a1.668,1.668,0,0,0,1.668,1.668Zm0,21.689H284.719v-1.668H301.4Zm-16.684,3.337h3.337v8.342h-3.337Zm6.673,0h3.337v8.342h-3.337Zm6.673,0H301.4v8.342h-3.337ZM274.708,137.11a1.671,1.671,0,0,1,1.668-1.668h8.94a6.717,6.717,0,0,0-1.368,1.668h-5.9a1.669,1.669,0,0,0-1.669,1.668V178.82h-1.668ZM269.7,183.825v-1.668h30.032v1.668a4.985,4.985,0,0,0,.286,1.669H271.371A1.671,1.671,0,0,1,269.7,183.825Zm41.71,6.674a1.67,1.67,0,0,1-1.668,1.668H276.376a1.671,1.671,0,0,1-1.668-1.668v-1.668h30.032a5.011,5.011,0,0,0,5.005-5.006V138.778a1.668,1.668,0,0,0-1.668-1.668h-5.9a6.718,6.718,0,0,0-1.369-1.668h8.94a1.67,1.67,0,0,1,1.668,1.668Z" transform="translate(-78.482)"/>
      <path id="Trazado_996498" data-name="Trazado 996498" d="M304.167,174.971h6.674v3.337h-6.674Z" transform="translate(-101.267 -27.85)"/>
      <path id="Trazado_996499" data-name="Trazado 996499" d="M329.367,174.971H332.7v3.337h-3.337Z" transform="translate(-116.457 -27.85)"/>
      <path id="Trazado_996500" data-name="Trazado 996500" d="M320.967,187.571h6.673v3.337h-6.673Z" transform="translate(-111.393 -35.445)"/>
      <path id="Trazado_996501" data-name="Trazado 996501" d="M346.167,187.571h6.674v3.337h-6.674Z" transform="translate(-126.583 -35.445)"/>
      <path id="Trazado_996502" data-name="Trazado 996502" d="M304.167,200.171h10.01v3.337h-10.01Z" transform="translate(-101.267 -43.04)"/>
      <path id="Trazado_996503" data-name="Trazado 996503" d="M337.767,200.171h10.011v3.337H337.767Z" transform="translate(-121.52 -43.04)"/>
    </g>
  </g>
</svg>
