<svg xmlns="http://www.w3.org/2000/svg" width="144" height="144" viewBox="0 0 144 144">
  <g id="Grupo_1179514" data-name="Grupo 1179514" transform="translate(-1141.029 -4786.249)">
    <circle id="Elipse_13613" data-name="Elipse 13613" cx="72" cy="72" r="72" transform="translate(1141.029 4786.249)" fill="#0d47a1"/>
    <circle id="Elipse_13614" data-name="Elipse 13614" cx="65" cy="65" r="65" transform="translate(1148.029 4793.249)" fill="#fff"/>
    <g id="Grupo_1178905" data-name="Grupo 1178905" transform="translate(1084.301 4744.414)">
      <g id="Grupo_1178904" data-name="Grupo 1178904" transform="translate(91.06 78.851)">
        <g id="Grupo_1178900" data-name="Grupo 1178900" transform="translate(0 0)">
          <path id="Trazado_996537" data-name="Trazado 996537" d="M98.943,82.7h62.065a4.05,4.05,0,0,1,4.038,4.038v62.471a4.05,4.05,0,0,1-4.038,4.038H98.943a4.05,4.05,0,0,1-4.039-4.038V86.735A4.05,4.05,0,0,1,98.943,82.7Z" transform="translate(-94.904 -82.697)" fill="#69300a" fill-rule="evenodd"/>
          <path id="Trazado_996538" data-name="Trazado 996538" d="M94.9,92.959h70.142V86.735a4.05,4.05,0,0,0-4.039-4.038H98.943A4.05,4.05,0,0,0,94.9,86.735Z" transform="translate(-94.904 -82.697)" fill="#fff" fill-rule="evenodd"/>
        </g>
        <g id="Grupo_1178902" data-name="Grupo 1178902" transform="translate(5.681 15.537)">
          <path id="Trazado_996539" data-name="Trazado 996539" d="M119.4,224.844h13.661a1.06,1.06,0,0,1,1.057,1.057v28.285a1.06,1.06,0,0,1-1.057,1.057H119.4a1.06,1.06,0,0,1-1.057-1.057V225.9a1.06,1.06,0,0,1,1.057-1.057Z" transform="translate(-118.341 -205.927)" fill="#e0a57d" fill-rule="evenodd"/>
          <path id="Trazado_996540" data-name="Trazado 996540" d="M210.841,224.844H246.6a.576.576,0,0,1,.574.574v7.424a.576.576,0,0,1-.574.574H210.841a.576.576,0,0,1-.574-.574v-7.424a.576.576,0,0,1,.574-.574Z" transform="translate(-187.986 -205.927)" fill="#e0e9e9" fill-rule="evenodd"/>
          <path id="Trazado_996541" data-name="Trazado 996541" d="M268.2,281.836h7.9a.613.613,0,0,1,.611.611V297.81a.613.613,0,0,1-.611.611h-7.9a.613.613,0,0,1-.611-.611V282.447A.613.613,0,0,1,268.2,281.836Z" transform="translate(-231.415 -249.106)" fill-rule="evenodd"/>
          <path id="Trazado_996542" data-name="Trazado 996542" d="M210.878,281.836h7.9a.613.613,0,0,1,.611.611V297.81a.613.613,0,0,1-.611.611h-7.9a.612.612,0,0,1-.611-.611V282.447A.613.613,0,0,1,210.878,281.836Z" transform="translate(-187.986 -249.106)" fill="#fff" fill-rule="evenodd"/>
          <g id="Grupo_1178901" data-name="Grupo 1178901">
            <path id="Trazado_996543" data-name="Trazado 996543" d="M119.306,146.8h57.256a.968.968,0,0,1,.965.965v11.29a.968.968,0,0,1-.965.965H119.306a.968.968,0,0,1-.965-.965v-11.29A.968.968,0,0,1,119.306,146.8Z" transform="translate(-118.341 -146.799)" fill="#f4b400" fill-rule="evenodd"/>
            <path id="Trazado_996544" data-name="Trazado 996544" d="M119.306,146.8h14V160.02h-14a.968.968,0,0,1-.965-.965v-11.29A.968.968,0,0,1,119.306,146.8Z" transform="translate(-118.341 -146.799)" fill="#fff" fill-rule="evenodd"/>
          </g>
        </g>
        <g id="Grupo_1178903" data-name="Grupo 1178903" transform="translate(46.51 38.388)">
          <path id="Trazado_996545" data-name="Trazado 996545" d="M321.5,249.526v11.286a15.08,15.08,0,0,1-6.456,12.589l-10.9,7.834-10.9-7.834a15.078,15.078,0,0,1-6.455-12.589V249.526a1.245,1.245,0,0,1,.927-1.214A9.029,9.029,0,0,0,294.029,242a1.244,1.244,0,0,1,1.214-.927H313.05a1.244,1.244,0,0,1,1.214.927,9.03,9.03,0,0,0,6.311,6.311,1.245,1.245,0,0,1,.927,1.214Z" transform="translate(-286.791 -241.074)" fill="#f3f9ff" fill-rule="evenodd"/>
          <path id="Trazado_996546" data-name="Trazado 996546" d="M330.085,264.078a13.087,13.087,0,0,1-6.346-6.346H309.8a13.087,13.087,0,0,1-6.346,6.346v9.355a11.045,11.045,0,0,0,4.774,9.311l8.544,6.141,8.543-6.141a11.048,11.048,0,0,0,4.774-9.311Z" transform="translate(-299.412 -253.694)" fill="#e0a57d" fill-rule="evenodd"/>
          <path id="Trazado_996547" data-name="Trazado 996547" d="M325.688,300.453a2.026,2.026,0,0,1,3.013-2.711l2.808,3.127,6.2-7.238a2.024,2.024,0,0,1,3.076,2.632l-7.642,8.915a2.03,2.03,0,0,1-3.11.117Z" transform="translate(-315.866 -280.355)" fill="#f4b400" fill-rule="evenodd"/>
        </g>
      </g>
      <path id="Trazado_996548" data-name="Trazado 996548" d="M126.91,142.473h-6.655V128.349h6.655Zm.62-16.585h-7.9a1.843,1.843,0,0,0-1.84,1.841v15.363a1.844,1.844,0,0,0,1.84,1.843h7.9a1.844,1.844,0,0,0,1.841-1.843V127.729a1.843,1.843,0,0,0-1.841-1.841Zm-16.244,16.584H97.972V114.535h13.314Zm.174-30.4H97.8a2.291,2.291,0,0,0-2.287,2.288v28.284a2.29,2.29,0,0,0,2.287,2.287h13.661a2.289,2.289,0,0,0,2.288-2.287V114.361a2.291,2.291,0,0,0-2.288-2.287ZM127.067,101a1.23,1.23,0,0,1,1.23-1.231H150.5a1.23,1.23,0,0,1,0,2.461H128.3A1.228,1.228,0,0,1,127.067,101ZM115.9,101a1.231,1.231,0,0,1,1.231-1.231H121.3a1.23,1.23,0,1,1,0,2.461h-4.164A1.23,1.23,0,0,1,115.9,101Zm-12.767,1.585a1.612,1.612,0,1,1,1.611-1.613,1.613,1.613,0,0,1-1.611,1.613Zm5.634.22-1.657-.956a4.026,4.026,0,0,0,.1-.876,4.081,4.081,0,1,0-1.327,3.006l1.658.958a1.231,1.231,0,1,0,1.231-2.131Zm-10.8-7.183v10.759h12.507V95.62ZM154.7,106.378V95.62H112.94v10.759Zm-56.991,2.461h57.257a2.2,2.2,0,0,0,2.195-2.195V95.354a2.2,2.2,0,0,0-2.195-2.2H97.706a2.2,2.2,0,0,0-2.195,2.2v11.291A2.2,2.2,0,0,0,97.706,108.839Zm14.058-24.858a1.231,1.231,0,0,1,1.231-1.231h2.2a1.231,1.231,0,0,1,0,2.462h-2.2A1.23,1.23,0,0,1,111.763,83.981Zm-7.412,0a1.232,1.232,0,0,1,1.231-1.231h2.2a1.231,1.231,0,1,1,0,2.462h-2.2A1.23,1.23,0,0,1,104.351,83.981Zm-7.413,0a1.232,1.232,0,0,1,1.231-1.231h2.206a1.231,1.231,0,0,1,0,2.462H98.169A1.23,1.23,0,0,1,96.938,83.981Zm30.551,0a1.232,1.232,0,0,1,1.23-1.231h24.929a1.231,1.231,0,0,1,0,2.462H128.719A1.23,1.23,0,0,1,127.489,83.981Zm34.07,48.363-7.641,8.917c-.013.015-.026.031-.04.047a.8.8,0,0,1-.6.309.782.782,0,0,1-.617-.261l-4.349-4.842a0,0,0,0,1,0,0,.8.8,0,0,1,1.183-1.066l2.807,3.126a1.227,1.227,0,0,0,.915.409h.015a1.23,1.23,0,0,0,.919-.43l6.205-7.238a.8.8,0,0,1,.541-.276.793.793,0,0,1,.665,1.306Zm1.511-2.988a3.257,3.257,0,0,0-4.586.356l-5.292,6.172L151.32,133.8a3.257,3.257,0,1,0-4.842,4.356L150.826,143a3.252,3.252,0,0,0,2.419,1.076h.121a3.255,3.255,0,0,0,2.436-1.234l7.624-8.9A3.258,3.258,0,0,0,163.07,129.356Zm3.939,7.621v-8.593a14.327,14.327,0,0,1-5.872-5.877H148.716a14.336,14.336,0,0,1-5.878,5.877v8.593a9.866,9.866,0,0,0,4.262,8.311l7.826,5.624,7.825-5.623a9.87,9.87,0,0,0,4.258-8.312Zm1.749-10.471a11.875,11.875,0,0,1-5.742-5.749,1.233,1.233,0,0,0-1.117-.712H147.955a1.232,1.232,0,0,0-1.116.712,11.855,11.855,0,0,1-5.748,5.749,1.231,1.231,0,0,0-.714,1.116v9.355a12.246,12.246,0,0,0,5.287,10.31l8.543,6.14a1.23,1.23,0,0,0,1.436,0l8.541-6.14a12.246,12.246,0,0,0,5.293-10.31v-9.355a1.226,1.226,0,0,0-.719-1.116Zm2.29,10.471V125.671a.1.1,0,0,0-.023-.009,10.283,10.283,0,0,1-7.166-7.173.035.035,0,0,1-.008-.018.214.214,0,0,0-.023,0H146.023a.078.078,0,0,0-.019,0,.032.032,0,0,0-.008.018,10.274,10.274,0,0,1-7.173,7.173.042.042,0,0,0-.018.009.048.048,0,0,0,0,.019v11.286a13.764,13.764,0,0,0,5.942,11.59l10.183,7.318,10.179-7.318A13.926,13.926,0,0,0,171.049,136.977Zm-33.823,5.5h-3.078V128.349h2.194v8.628A17.082,17.082,0,0,0,137.226,142.473Zm4.958-21.826H120.254v-6.112H154.7v1.473h-8.674a2.464,2.464,0,0,0-2.4,1.833,7.773,7.773,0,0,1-1.438,2.806ZM92.292,145.361a2.812,2.812,0,0,0,2.808,2.807h45.5a16.112,16.112,0,0,1-2.3-3.234h-4.77a1.846,1.846,0,0,1-1.843-1.843V127.729a1.845,1.845,0,0,1,1.843-1.841h2.812v-.2a2.463,2.463,0,0,1,1.833-2.4c.192-.053.381-.115.566-.181H119.6a1.807,1.807,0,0,1-1.8-1.8v-7.425a1.807,1.807,0,0,1,1.8-1.805h35.755a1.807,1.807,0,0,1,1.8,1.805v2.13h2.815V90.344H92.292ZM95.1,80.081a2.811,2.811,0,0,0-2.808,2.807v5h67.681v-5a2.811,2.811,0,0,0-2.807-2.807H95.1Zm76.576,43.208a7.834,7.834,0,0,1-5.448-5.448,2.455,2.455,0,0,0-2.4-1.833h-1.4V82.888a5.274,5.274,0,0,0-5.268-5.268H95.1a5.275,5.275,0,0,0-5.269,5.268v62.473A5.276,5.276,0,0,0,95.1,150.63h48.3l10.811,7.769a1.232,1.232,0,0,0,1.438,0l10.9-7.833a16.331,16.331,0,0,0,6.965-13.589V125.69a2.462,2.462,0,0,0-1.834-2.4Z" fill-rule="evenodd"/>
    </g>
  </g>
</svg>
