<svg xmlns="http://www.w3.org/2000/svg" width="144" height="144" viewBox="0 0 144 144">
  <g id="Grupo_1179517" data-name="Grupo 1179517" transform="translate(-415.711 -5149.249)">
    <circle id="Elipse_13613" data-name="Elipse 13613" cx="72" cy="72" r="72" transform="translate(415.711 5149.249)" fill="#0d47a1"/>
    <circle id="Elipse_13614" data-name="Elipse 13614" cx="65" cy="65" r="65" transform="translate(422.711 5156.249)" fill="#fff"/>
    <g id="Filled_outline" data-name="Filled outline" transform="translate(323.485 5038.008)">
      <path id="Trazado_996549" data-name="Trazado 996549" d="M251.926,301.862h-22.62l4.242-11.31h14.137Z" transform="translate(-67.908 -94.588)" fill="#454545"/>
      <path id="Trazado_996550" data-name="Trazado 996550" d="M253.823,294.793H236.505l1.59-4.241h14.137Z" transform="translate(-72.456 -94.588)"/>
      <path id="Trazado_996551" data-name="Trazado 996551" d="M217.789,317.425h31.1v2.827h-31.1Z" transform="translate(-60.632 -111.564)" fill="#707070"/>
      <path id="Trazado_996552" data-name="Trazado 996552" d="M175.962,160.023a4.242,4.242,0,0,0-4.242,4.241v35.344h65.033V164.264a4.241,4.241,0,0,0-4.241-4.241Z" transform="translate(-31.529 -12.126)" fill="#e0e9e9"/>
      <path id="Trazado_996553" data-name="Trazado 996553" d="M171.72,267.517v4.241A4.242,4.242,0,0,0,175.962,276h56.55a4.241,4.241,0,0,0,4.241-4.242v-4.241Z" transform="translate(-31.529 -80.035)" fill="#707070"/>
      <path id="Trazado_996554" data-name="Trazado 996554" d="M325.685,267.517v4.241A4.241,4.241,0,0,1,321.444,276H327.1a4.241,4.241,0,0,0,4.241-4.242v-4.241Z" transform="translate(-126.116 -80.035)" fill="#454545"/>
      <path id="Trazado_996555" data-name="Trazado 996555" d="M241.811,148.908v41H190.916v-41a4.242,4.242,0,0,1,4.241-4.241H237.57A4.242,4.242,0,0,1,241.811,148.908Z" transform="translate(-43.656 -2.425)" fill="#fff"/>
      <path id="Trazado_996556" data-name="Trazado 996556" d="M259.41,202.655v21.206h-2.827V202.655a4.29,4.29,0,0,0-4.241-4.241h2.827a4.157,4.157,0,0,1,1.292.223,4.271,4.271,0,0,1,2.013,1.375A4.182,4.182,0,0,1,259.41,202.655Z" transform="translate(-82.46 -36.38)" fill="#f3f9ff"/>
      <path id="Trazado_996557" data-name="Trazado 996557" d="M190.916,259.839h50.895v2.827H190.916Z" transform="translate(-43.656 -75.185)" fill="#69300a"/>
      <g id="Grupo_1178906" data-name="Grupo 1178906" transform="translate(161.398 156.379)">
        <path id="Trazado_996558" data-name="Trazado 996558" d="M244.663,186.9h2.827v22.62h-2.827Z" transform="translate(-239.008 -185.483)" fill="#e0e9e9"/>
        <path id="Trazado_996559" data-name="Trazado 996559" d="M229.306,183.058h2.828v24.034h-2.828Z" transform="translate(-229.306 -183.058)" fill="#e0e9e9"/>
        <path id="Trazado_996560" data-name="Trazado 996560" d="M260.019,190.736h2.827v21.206h-2.827Z" transform="translate(-248.709 -187.909)" fill="#e0e9e9"/>
      </g>
      <rect id="Rectángulo_455261" data-name="Rectángulo 455261" width="50.895" height="62.205" rx="11.517" transform="translate(123.227 162.034)" fill="#f4b400"/>
      <path id="Trazado_996561" data-name="Trazado 996561" d="M263.858,317.425v2.827h2.827v-2.827Z" transform="translate(-89.736 -111.564)" fill="#454545"/>
      <path id="Trazado_996562" data-name="Trazado 996562" d="M263.858,267.517h2.827V276h-2.827Z" transform="translate(-89.736 -80.035)" fill="#454545"/>
      <path id="Trazado_996563" data-name="Trazado 996563" d="M263.858,290.552v9.9h2.827v-9.9Z" transform="translate(-89.736 -94.588)"/>
      <path id="Trazado_996564" data-name="Trazado 996564" d="M141.008,213.77h39.585v50.9H141.008Z" transform="translate(-12.126 -46.081)" fill="#f3f9ff"/>
      <path id="Trazado_996565" data-name="Trazado 996565" d="M170.7,259.01H141.008V213.77h39.585v35.344Z" transform="translate(-12.126 -46.081)" fill="#fff"/>
      <path id="Trazado_996566" data-name="Trazado 996566" d="M221.628,319.643l9.9-9.9h-9.9Z" transform="translate(-63.058 -106.714)" fill="#e0a57d"/>
      <path id="Trazado_996567" data-name="Trazado 996567" d="M174.743,188.713V187.3a4.241,4.241,0,0,0-8.482,0v1.414h-5.655a4.241,4.241,0,0,0-4.241,4.241V197.2h28.275v-4.241a4.241,4.241,0,0,0-4.241-4.241Z" transform="translate(-21.827 -26.679)" fill="#305729"/>
      <path id="Trazado_996568" data-name="Trazado 996568" d="M248.308,357.632H278a2.827,2.827,0,1,0,0-5.655H248.308a9.651,9.651,0,0,0-6.826,2.827A9.655,9.655,0,0,0,248.308,357.632Z" transform="translate(-75.6 -133.392)" fill="#e0e9e9"/>
      <path id="Trazado_996569" data-name="Trazado 996569" d="M310.3,351.977H298.613l-6,5.655H310.3a2.827,2.827,0,1,0,0-5.655Z" transform="translate(-107.902 -133.392)" fill="#183461"/>
      <path id="Trazado_996570" data-name="Trazado 996570" d="M230.086,146.483h-1.414a5.661,5.661,0,0,0-5.655-5.655H180.6a5.661,5.661,0,0,0-5.655,5.655h-1.414a5.661,5.661,0,0,0-5.655,5.655v5.655h2.827v-5.655a2.831,2.831,0,0,1,2.828-2.827h1.414v2.827h2.827v-5.655a2.831,2.831,0,0,1,2.827-2.827h42.413a2.831,2.831,0,0,1,2.827,2.827v36.758h2.827V149.31h1.414a2.831,2.831,0,0,1,2.827,2.827v33.93H207.466V188.9h25.447v2.827a2.83,2.83,0,0,1-2.827,2.827h-22.62v2.828h.434l3.181,8.482h-3.615v2.827h9.9v-2.827H214.1l-3.181-8.482h19.166a5.661,5.661,0,0,0,5.655-5.655V152.138A5.661,5.661,0,0,0,230.086,146.483Z" transform="translate(-29.103 0)"/>
      <path id="Trazado_996571" data-name="Trazado 996571" d="M202.433,156.184h2.827v2.827h-2.827Z" transform="translate(-50.931 -9.701)"/>
      <path id="Trazado_996572" data-name="Trazado 996572" d="M217.789,156.184h2.827v2.827h-2.827Z" transform="translate(-60.632 -9.701)"/>
      <path id="Trazado_996573" data-name="Trazado 996573" d="M233.145,156.184h2.828v2.827h-2.828Z" transform="translate(-70.334 -9.701)"/>
      <path id="Trazado_996574" data-name="Trazado 996574" d="M213.95,179.219h2.827v2.827H213.95Z" transform="translate(-58.207 -24.253)"/>
      <path id="Trazado_996575" data-name="Trazado 996575" d="M229.306,183.058h2.828v2.827h-2.828Z" transform="translate(-67.908 -26.679)"/>
      <path id="Trazado_996576" data-name="Trazado 996576" d="M275.375,187.7v19.793h14.138V179.219h-2.827v25.447h-2.827V184.874H281.03v19.793H278.2V187.7Z" transform="translate(-97.012 -24.253)"/>
      <path id="Trazado_996577" data-name="Trazado 996577" d="M124.64,244.252V190.529a2.831,2.831,0,0,1,2.827-2.827h6.441a5.588,5.588,0,0,0-.787,2.827h-4.241a1.414,1.414,0,0,0-1.414,1.414v50.9a1.414,1.414,0,0,0,1.414,1.414H161.4v-2.827H130.3V238.6H158.57a1.419,1.419,0,0,0,1-.414l7.483-7.483v7.9h2.827V191.943a1.463,1.463,0,0,0-1.47-1.414h-4.184a5.592,5.592,0,0,0-.787-2.827h6.442a2.831,2.831,0,0,1,2.827,2.827V238.6h2.827V190.529a5.661,5.661,0,0,0-5.655-5.655H154.329a5.655,5.655,0,1,0-11.31,0H127.468a5.661,5.661,0,0,0-5.655,5.655v53.723a5.661,5.661,0,0,0,5.655,5.655h35.344v-2.827H127.468A2.831,2.831,0,0,1,124.64,244.252Zm35.344-10.482V228.7h5.07Zm7.069-40.414v32.516H158.57a1.414,1.414,0,0,0-1.414,1.414v8.482H130.3V193.356h2.827v1.414a1.414,1.414,0,0,0,1.414,1.414h28.275a1.414,1.414,0,0,0,1.414-1.414v-1.414Zm-22.62-5.655a1.414,1.414,0,0,0,1.414-1.414v-1.414a2.827,2.827,0,1,1,5.655,0v1.414a1.414,1.414,0,0,0,1.414,1.414h5.655a2.831,2.831,0,0,1,2.827,2.827v2.827H135.95v-2.827a2.831,2.831,0,0,1,2.827-2.827Z" transform="translate(0 -24.253)"/>
      <path id="Trazado_996578" data-name="Trazado 996578" d="M183.238,236.805h19.793v2.827H183.238Z" transform="translate(-38.805 -60.633)"/>
      <path id="Trazado_996579" data-name="Trazado 996579" d="M183.238,252.161h11.31v2.827h-11.31Z" transform="translate(-38.805 -70.334)"/>
      <path id="Trazado_996580" data-name="Trazado 996580" d="M183.238,267.517h19.793v2.827H183.238Z" transform="translate(-38.805 -80.035)"/>
      <path id="Trazado_996581" data-name="Trazado 996581" d="M183.238,282.873h7.069V285.7h-7.069Z" transform="translate(-38.805 -89.736)"/>
      <path id="Trazado_996582" data-name="Trazado 996582" d="M159.594,298.23h-5.655a1.414,1.414,0,0,0-1.414,1.414V305.3a1.414,1.414,0,0,0,1.414,1.414h5.655a1.414,1.414,0,0,0,1.414-1.414v-5.655A1.413,1.413,0,0,0,159.594,298.23Zm-1.414,5.655h-2.827v-2.827h2.827Z" transform="translate(-19.402 -99.438)"/>
      <path id="Trazado_996583" data-name="Trazado 996583" d="M183.238,298.23h9.9v2.827h-9.9Z" transform="translate(-38.805 -99.438)"/>
      <path id="Trazado_996584" data-name="Trazado 996584" d="M183.238,313.586h9.9v2.828h-9.9Z" transform="translate(-38.805 -109.139)"/>
      <path id="Trazado_996585" data-name="Trazado 996585" d="M159.008,232.665h-5.07a1.414,1.414,0,0,0-1.414,1.414v5.655a1.414,1.414,0,0,0,1.414,1.414h5.655a1.414,1.414,0,0,0,1.414-1.414v-5.07l2.414-2.413-2-2Zm-.829,5.655h-2.827v-2.827h.829l-.414.414,2,2,.414-.414Z" transform="translate(-19.402 -56.493)"/>
      <path id="Trazado_996586" data-name="Trazado 996586" d="M161.422,260.964l-2.413,2.413h-5.07a1.414,1.414,0,0,0-1.414,1.414v5.655a1.414,1.414,0,0,0,1.414,1.414h5.655a1.414,1.414,0,0,0,1.414-1.414v-5.069l2.414-2.414Zm-3.242,8.068h-2.827V266.2h.829l-.414.414,2,2,.414-.414Z" transform="translate(-19.402 -75.895)"/>
      <path id="Trazado_996587" data-name="Trazado 996587" d="M274.914,338.436H273.5v-1.414a4.246,4.246,0,0,0-4.241-4.241h-9.9v2.827h9.9a1.415,1.415,0,0,1,1.414,1.414v1.414H245.225a11,11,0,0,0-7.826,3.242,1.414,1.414,0,0,0,0,2,11,11,0,0,0,7.826,3.242h29.689a4.241,4.241,0,1,0,0-8.482Zm-34.308,4.241a8.183,8.183,0,0,1,4.62-1.414h25.447v2.827H245.225A8.183,8.183,0,0,1,240.606,342.677Zm34.308,1.414H273.5v-2.827h1.414a1.414,1.414,0,0,1,0,2.827Z" transform="translate(-72.76 -121.265)"/>
    </g>
  </g>
</svg>
