<svg xmlns="http://www.w3.org/2000/svg" width="96" height="96" viewBox="0 0 96 96">
  <g id="Grupo_154427" data-name="Grupo 154427" transform="translate(-794.039 -2920.081)">
    <path id="Elipse_5729" data-name="Elipse 5729" d="M48,0A48,48,0,1,1,0,48,48,48,0,0,1,48,0Z" transform="translate(794.039 2920.081)" fill="#0d47a1"/>
    <g id="Grupo_1178313" data-name="Grupo 1178313" transform="translate(727.775 2861.679)">
      <path id="Trazado_995867" data-name="Trazado 995867" d="M203.6,251.7c2.046.542,4.025,1,5.953,1.61a6.631,6.631,0,0,1,2.2,1.3,2.233,2.233,0,0,1,.024,3.648,12.183,12.183,0,0,1-3.888,1.939,38.13,38.13,0,0,1-16.341.632,35.938,35.938,0,0,1-5.4-1.555,4.123,4.123,0,0,1-1.414-.96,2.379,2.379,0,0,1,.134-3.822,11.827,11.827,0,0,1,5.457-2.165c.8-.166,1.615-.3,2.551-.466-.738-1.034-1.429-1.981-2.1-2.942-2.728-3.91-4.946-8.037-5.682-12.841a13.353,13.353,0,0,1,25.2-7.968c1.678,3.465,1.529,7.048.46,10.652-1.33,4.484-3.865,8.313-6.549,12.062C204,251.131,203.786,251.435,203.6,251.7Zm-5.369,3.522c.519-.7.972-1.31,1.42-1.921,2.737-3.734,5.617-7.38,7.6-11.6,1.451-3.1,2.507-6.293,1.938-9.8a11.143,11.143,0,0,0-21.207-2.288c-1.378,3.343-.866,6.653.268,9.915C190.321,245.5,194.5,250.138,198.227,255.225Zm12.275,1.6q0-.255-.007-.51a8.431,8.431,0,0,0-1.808-.954c-2-.5-4.028-.928-6.061-1.29a1.53,1.53,0,0,0-1.147.539c-.685.8-1.271,1.678-1.882,2.535-1.039,1.457-1.612,1.473-2.653.066-.646-.872-1.26-1.774-1.972-2.588a1.551,1.551,0,0,0-1.156-.544c-2.032.367-4.056.8-6.057,1.309a7.951,7.951,0,0,0-1.758.96q.01.19.02.379a14.843,14.843,0,0,0,2.172,1.047,36.017,36.017,0,0,0,19.1.322A23.821,23.821,0,0,0,210.5,256.821Z" transform="translate(-83.992 -116.937)" fill="#fff"/>
      <path id="Trazado_995868" data-name="Trazado 995868" d="M96.51,75.909c3.644,0,7.289-.011,10.933,0a5.4,5.4,0,0,1,5.677,5.653q.022,7.577,0,15.153a5.411,5.411,0,0,1-5.66,5.675q-10.933.02-21.866,0a5.409,5.409,0,0,1-5.678-5.657q-.02-7.577,0-15.153a5.4,5.4,0,0,1,5.66-5.67C89.221,75.9,92.866,75.909,96.51,75.909Zm.012,24.326q5.271,0,10.541,0c2.564,0,3.9-1.337,3.9-3.9q.007-7.187,0-14.374c0-2.556-1.348-3.9-3.908-3.9q-10.541,0-21.082,0c-2.556,0-3.9,1.344-3.9,3.905q-.006,7.187,0,14.374c0,2.557,1.339,3.889,3.907,3.893Q91.252,100.241,96.522,100.234Z" transform="translate(0 -0.002)" fill="#fff"/>
      <path id="Trazado_995869" data-name="Trazado 995869" d="M281.548,75.907c3.612,0,7.225-.009,10.837,0a5.408,5.408,0,0,1,5.732,5.695q.019,7.576,0,15.153a5.4,5.4,0,0,1-5.6,5.632q-10.981.024-21.962,0a5.4,5.4,0,0,1-5.635-5.6q-.024-7.624,0-15.249a5.4,5.4,0,0,1,5.6-5.628C274.195,75.893,277.871,75.907,281.548,75.907Zm-.045,2.151c-3.546,0-7.091-.006-10.637,0a3.459,3.459,0,0,0-3.794,3.817q-.01,7.283,0,14.566a3.448,3.448,0,0,0,3.819,3.787q10.637.01,21.273,0a3.447,3.447,0,0,0,3.795-3.812q.011-7.283,0-14.566a3.458,3.458,0,0,0-3.819-3.792Q286.821,78.05,281.5,78.058Z" transform="translate(-149.506)" fill="#fff"/>
      <path id="Trazado_995870" data-name="Trazado 995870" d="M226.317,264.336a7.717,7.717,0,1,1,7.789-7.782A7.706,7.706,0,0,1,226.317,264.336Zm-5.518-7.773a5.56,5.56,0,1,0,5.63-5.508A5.62,5.62,0,0,0,220.8,256.563Z" transform="translate(-112.095 -139.813)" fill="#fff"/>
      <path id="Trazado_995871" data-name="Trazado 995871" d="M100.374,102.291l1.414-1.693c1.383,1.148,2.715,2.239,4.026,3.352a1.043,1.043,0,0,0,1.252.258,2.5,2.5,0,0,1,2.542.359c1.572,1.2,3.159,2.393,4.706,3.629a3.037,3.037,0,0,1,1.124,2.63c-.008.215.081.61.163.62a1.011,1.011,0,0,0,.752-.164c1.085-1.084,2.134-2.2,3.191-3.316.491-.516.263-.942-.218-1.272-1.474-1.009-2.961-2-4.427-2.983-1.908,1.214-3.38,1.173-4.507-.1s-.979-2.743.626-4.67c-.624-.087-1.223-.372-1.563-.185-1.691.93-3.045.415-4.328-.762a11.334,11.334,0,0,0-.917-.679l1.181-1.7c.161.043.278.039.336.095a2.987,2.987,0,0,0,3.929.627c.286-.162.855.049,1.24.214.909.39,1.671,1.193,2.8.255a3.666,3.666,0,0,1,2.047-.343,6.932,6.932,0,0,0,3.943-1.519c.386-.28.811-.507,1.313-.817l1.2,1.779c-2.009,1.448-3.969,2.817-6.566,2.806-1.817-.008-2.563,1.6-3.65,2.653-.112.109.014.7.186.8a1.065,1.065,0,0,0,.935,0,16.013,16.013,0,0,0,1.562-1.264c.391-.324.784-.644,1.237-1.015l1.349,1.585-.549.767,3.332,2.252,4.826-3.581,1.341,1.74c-1.342,1.007-2.606,1.974-3.893,2.912a.838.838,0,0,0-.406,1.095,2.683,2.683,0,0,1-.73,2.815c-1.06,1.063-2.072,2.175-3.1,3.266a2.884,2.884,0,0,1-3.457.754,1.9,1.9,0,0,0-1.226-.012,3.692,3.692,0,0,1-3.717-.461q-1.509-1.1-3.01-2.218a4.043,4.043,0,0,1-1.682-3.933,1.49,1.49,0,0,0-.446-1.095C103.2,104.6,101.807,103.483,100.374,102.291Zm11.768,9.347c.259-.217.8-.463.928-.846a1.439,1.439,0,0,0-.527-1.147c-1.243-1.04-2.541-2.016-3.846-2.979-.27-.2-.786-.431-.96-.312a1.432,1.432,0,0,0-.543,1.022,1.81,1.81,0,0,0,.419,1.291c1.194.993,2.475,1.882,3.737,2.792A2.823,2.823,0,0,0,112.142,111.638Z" transform="translate(-16.541 -14.736)" fill="#fff"/>
      <path id="Trazado_995872" data-name="Trazado 995872" d="M319.359,101.13a5.448,5.448,0,0,1-.853.833c-.986.666-1.021,1.631.025,2.2a1.253,1.253,0,0,1,.672,1.824c-.672,1.291-1.43,2.541-2.223,3.763a1.388,1.388,0,0,1-2.084.4,1.238,1.238,0,0,0-1.945,1.166,1.319,1.319,0,0,1-1.211,1.439,10.308,10.308,0,0,1-4.743-.009,1.281,1.281,0,0,1-1.16-1.379,1.26,1.26,0,0,0-2.006-1.184,1.314,1.314,0,0,1-1.937-.331c-.83-1.272-1.623-2.574-2.328-3.918a1.213,1.213,0,0,1,.657-1.747,1.171,1.171,0,0,0,0-2.222,1.216,1.216,0,0,1-.655-1.749c.708-1.342,1.5-2.644,2.334-3.914a1.313,1.313,0,0,1,1.938-.328,1.253,1.253,0,0,0,2-1.181,1.288,1.288,0,0,1,1.158-1.388,10.909,10.909,0,0,1,4.75-.014,1.31,1.31,0,0,1,1.209,1.443,1.253,1.253,0,0,0,1.963,1.16,1.45,1.45,0,0,1,2.034.324C318.1,97.565,319.357,99.85,319.359,101.13Zm-17.514-.861a3.477,3.477,0,0,1,.878.583,2.534,2.534,0,0,1,.542,1.135,9.17,9.17,0,0,1,0,2.177,2.531,2.531,0,0,1-.547,1.132,3.327,3.327,0,0,1-.84.568c.174.351.331.656.478.964.356.744.739,1.148,1.745.866,1.488-.417,3.453.976,3.916,2.487a1.028,1.028,0,0,0,.684.562,3.974,3.974,0,0,0,1.427,0,.94.94,0,0,0,.632-.51,3.777,3.777,0,0,1,4.354-2.494c.232.055.626.046.731-.094.408-.543.73-1.15,1.1-1.76-.433-.28-.745-.445-1.012-.664-.587-.482-.588-3.806,0-4.29.287-.236.618-.417.976-.655-.19-.375-.341-.686-.5-.992-.357-.675-.686-1.131-1.677-.838-1.486.438-3.525-.96-3.953-2.432a1.012,1.012,0,0,0-.645-.6,4.792,4.792,0,0,0-1.524,0,.845.845,0,0,0-.577.458,3.741,3.741,0,0,1-4.4,2.528.923.923,0,0,0-.779.226A16.1,16.1,0,0,0,301.846,100.269Z" transform="translate(-177.384 -13.925)" fill="#fff"/>
      <path id="Trazado_995873" data-name="Trazado 995873" d="M337.181,126.429a4.455,4.455,0,1,1-4.462-4.421A4.474,4.474,0,0,1,337.181,126.429Zm-2.253-.06a2.2,2.2,0,1,0-4.4.124,2.2,2.2,0,0,0,4.4-.124Z" transform="translate(-200.718 -37.261)" fill="#fff"/>
    </g>
  </g>
</svg>
