<svg xmlns="http://www.w3.org/2000/svg" width="85.096" height="85.096" viewBox="0 0 85.096 85.096">
  <g id="Grupo_1179512" data-name="Grupo 1179512" transform="translate(-721.321 -383.055)">
    <rect id="Rectángulo_455114" data-name="Rectángulo 455114" width="85.096" height="85.096" rx="5" transform="translate(721.321 383.055)" fill="#ffe082"/>
    <g id="Grupo_1178921" data-name="Grupo 1178921" transform="translate(645.027 325.004)">
      <path id="Trazado_996622" data-name="Trazado 996622" d="M117.833,101.643H85.8c-1.8,0-1.965-.109-1.873-1.856.749-14.292,7.632-24.57,20.446-30.823a31.806,31.806,0,0,1,18.7-2.871c13.143,1.87,22.716,8.885,27.9,21.115,7.029,16.6.487,35.019-15.2,43.878a33.372,33.372,0,0,1-16.471,4.362c-1.238.007-1.464-.221-1.464-1.481q0-15.54,0-31.08Zm2-33.788V99.573h31.821C151.533,83.319,137.72,68.225,119.835,67.855Zm.007,65.536c17.178-.053,31.794-15.063,31.788-31.677H119.842Zm-2.058-65.536c-19.275.466-32.108,17.239-31.754,31.739h31.754Z" transform="translate(0)" fill="#8e3b0f"/>
      <path id="Trazado_996623" data-name="Trazado 996623" d="M110.189,265.36c0-2.348.077-4.555-.021-6.755-.105-2.371,1.087-4.117,3.8-3.819a5.175,5.175,0,0,0,.712-.037c0-.449.007-.857,0-1.265-.019-.9.433-1.31,1.314-1.3.52.005,1.04,0,1.559,0,.6,0,1.154.095,1.495-.7.276-.643,1.16-.5,1.608.116.178.242.472.543.729.559.969.06,1.319.552,1.252,1.463-.026.347,0,.7,0,1.173.576,0,1.052-.009,1.528,0a2.842,2.842,0,0,1,2.951,2.943c.027,2.143.008,4.288.008,6.432v1.191c.757,0,1.426-.01,2.1,0a3.126,3.126,0,0,1,3.3,3.3c.02,4.125.011,8.251,0,12.376,0,1.061-.329,1.384-1.417,1.385q-12.425.011-24.85,0c-1.113,0-1.406-.293-1.408-1.373-.007-4.158-.013-8.316,0-12.474a3.061,3.061,0,0,1,3.164-3.216C108.682,265.344,109.359,265.36,110.189,265.36Zm13.2,15.022h1.684c.027-.266.069-.486.069-.7q.005-10.813,0-21.627c0-1.036-.273-1.29-1.363-1.292q-4.968-.011-9.936,0c-1.5,0-1.655.152-1.655,1.688q0,10.424,0,20.847c0,.347.029.693.045,1.072h1.683v-1.312c0-4.091-.006-8.183,0-12.274,0-1.138.27-1.41,1.357-1.415,2.273-.011,4.546.009,6.819-.009.9-.007,1.316.371,1.3,1.284-.025,1.266-.006,2.533-.006,3.8C123.39,273.711,123.389,276.987,123.389,280.382Zm-7.388-13v13.059l1.677-.073v-1.253q0-4.915,0-9.83c0-.685.281-1.188.983-1.188s1.006.5,1,1.182c0,.227,0,.454,0,.681v10.391h1.692V267.384Zm11.17.105v12.869h3.384v-1.125c0-3.016-.029-6.033.008-9.048.036-2.84-.006-3-3.237-2.8C127.3,267.384,127.276,267.417,127.172,267.489Zm-17.04-.156c-.566,0-1.076,0-1.586,0-1.434.009-1.734.3-1.735,1.689q0,5.211,0,10.422v.907h3.323Zm10.508-13.041h-4.016C117.254,255.006,120.239,254.96,120.639,254.292Z" transform="translate(-16.848 -149.191)" fill="#8e3b0f"/>
      <path id="Trazado_996624" data-name="Trazado 996624" d="M293.069,143.641a11.13,11.13,0,1,1,.032-22.259,11.13,11.13,0,0,1-.032,22.259Zm9.17-11.133a9.172,9.172,0,1,0-18.343.052,9.172,9.172,0,0,0,18.343-.052Z" transform="translate(-159.426 -44.788)" fill="#8e3b0f"/>
      <path id="Trazado_996625" data-name="Trazado 996625" d="M293.045,258.907a11.134,11.134,0,1,1-11.113,11.154A11.1,11.1,0,0,1,293.045,258.907Zm0,1.973a9.159,9.159,0,1,0,.027,18.317,9.159,9.159,0,1,0-.027-18.317Z" transform="translate(-159.426 -155.506)" fill="#8e3b0f"/>
      <path id="Trazado_996626" data-name="Trazado 996626" d="M144.523,128.657a7.094,7.094,0,0,1,5.3,5.453c.444,1.893-.164,3.208-1.99,3.879-1.234.453-2.549.686-3.924,1.042.008.17.01.451.038.73a2.741,2.741,0,0,1-1.9,3.314,12.908,12.908,0,0,1-9.776.069c-1.712-.654-2.169-1.572-2.053-3.418.016-.254,0-.511,0-.717-1.27-.32-2.553-.536-3.757-.97-1.935-.7-2.516-1.868-2.1-3.886a6.978,6.978,0,0,1,5.228-5.487,3.961,3.961,0,0,1-2.143-3.508,3.587,3.587,0,0,1,1.178-2.684,3.718,3.718,0,0,1,5.381.341c1.517,1.794,1.06,4.076-1.2,5.808.432.328.706.369,1.073-.141,1.8-2.511,4.622-2.478,6.462.01.165.224.583.261.92.269-2.184-2.141-2.578-4.246-1.055-5.985a3.668,3.668,0,0,1,5.157-.452,3.55,3.55,0,0,1,1.355,3.363A3.944,3.944,0,0,1,144.523,128.657ZM137.1,142.219c1.358-.288,2.689-.537,4-.863a1.115,1.115,0,0,0,.874-1.39,4.941,4.941,0,0,0-9.794-.066,1.16,1.16,0,0,0,.909,1.465C134.4,141.688,135.737,141.934,137.1,142.219Zm1.842-8.319a7.1,7.1,0,0,1,3.689,2.533c.176.2.482.456.685.423,1.329-.215,2.654-.47,3.963-.78.595-.141.727-.638.667-1.23a4.967,4.967,0,0,0-6.65-4.01,1.587,1.587,0,0,0-.608.545C140.1,132.2,139.537,133.038,138.943,133.9Zm-3.74.007c-.579-.888-1.147-1.792-1.754-2.668a1.367,1.367,0,0,0-.614-.422,4.908,4.908,0,0,0-6.583,4.165,1.27,1.27,0,0,0,.592,1.035c1.324.366,2.684.6,4.039.844a.734.734,0,0,0,.551-.3A7.265,7.265,0,0,1,135.2,133.908Zm-4.072-6.991a1.706,1.706,0,0,0,1.763-1.672,1.8,1.8,0,0,0-1.766-1.8,1.766,1.766,0,0,0-1.7,1.756A1.686,1.686,0,0,0,131.131,126.918Zm7.689,3.438a1.709,1.709,0,0,0-1.7-1.736,1.764,1.764,0,0,0-1.792,1.763,1.783,1.783,0,0,0,1.771,1.7A1.714,1.714,0,0,0,138.82,130.355Zm2.491-5.228a1.631,1.631,0,0,0,1.616,1.788,1.763,1.763,0,0,0,1.86-1.693,1.855,1.855,0,0,0-1.715-1.776A1.736,1.736,0,0,0,141.311,125.127Z" transform="translate(-32.471 -44.858)" fill="#8e3b0f"/>
      <path id="Trazado_996627" data-name="Trazado 996627" d="M156.112,300.119c-1.137,0-2.273,0-3.41,0a1.112,1.112,0,0,1-1.275-1.241c0-.422-.019-.845,0-1.266a1.887,1.887,0,0,1,2.065-2.074q2.678-.063,5.358,0a1.872,1.872,0,0,1,2.04,2.086c.074,2.449.031,2.494-2.443,2.494Zm2.792-2.469h-5.577C154.087,298.377,158.583,298.29,158.9,297.65Z" transform="translate(-54.353 -184.971)" fill="#8e3b0f"/>
      <path id="Trazado_996628" data-name="Trazado 996628" d="M328.107,147.532c-.4.465-.581.853-.851.935a1.931,1.931,0,0,1-1.062-.149,9.473,9.473,0,0,0-1.752-.656,1.1,1.1,0,0,0-1.269,1.071c-.058.734.4,1.125,1.095,1.252.415.076.837.114,1.249.2a3.309,3.309,0,0,1,2.6,2.707,3.134,3.134,0,0,1-1.625,3.082c-.444.261-.876.435-.933,1.1-.022.257-.575.624-.909.65a1.05,1.05,0,0,1-.84-.6c-.091-.673-.556-.87-1.019-1.149a4.873,4.873,0,0,1-.842-.653.933.933,0,0,1-.13-1.387c.4-.468.865-.4,1.4-.124a3.513,3.513,0,0,0,1.74.584,1.575,1.575,0,0,0,1.127-1.043c.03-.382-.559-.906-.991-1.2-.314-.214-.816-.144-1.23-.22A3.258,3.258,0,0,1,321.2,149.3a3.043,3.043,0,0,1,1.6-3.176c.487-.276.908-.477.94-1.169.011-.24.587-.636.9-.627s.863.407.884.668c.055.691.5.85.966,1.146A15,15,0,0,1,328.107,147.532Z" transform="translate(-191.005 -63.259)" fill="#8e3b0f"/>
      <path id="Trazado_996629" data-name="Trazado 996629" d="M310.291,280.113a5.918,5.918,0,0,1,4.715-.646c1.239.4,1.465.888.935,2.107a5.41,5.41,0,0,1-5.07,3.456c-.285.013-.571,0-.974,0v2.844c0,1.827-.24,2.431-1.005,2.332-.7-.09-1.06-.111-.962-2.376.019-.449,0-.9,0-1.469-.411,0-.753.007-1.1,0a5.5,5.5,0,0,1-5.112-3.811c-.267-.838-.052-1.5.818-1.637,1.217-.2,2.462-.214,3.5-.293-.334-.662-.849-1.522-1.21-2.442a4.777,4.777,0,0,1,.234-3.6,1.094,1.094,0,0,1,1.561-.686,5.47,5.47,0,0,1,3.7,5.659C310.314,279.71,310.307,279.869,310.291,280.113Zm-3.625-3.895a2.983,2.983,0,0,0,1.59,3.34A2.913,2.913,0,0,0,306.666,276.219Zm-2.624,6.464a3.02,3.02,0,0,0,3.312,1.6A2.952,2.952,0,0,0,304.042,282.683Zm6.344.314a3.053,3.053,0,0,0,3.318-1.648A2.965,2.965,0,0,0,310.385,283Z" transform="translate(-175.274 -167.487)" fill="#8e3b0f"/>
    </g>
  </g>
</svg>
