<svg xmlns="http://www.w3.org/2000/svg" width="84" height="84" viewBox="0 0 84 84">
  <g id="Grupo_1179508" data-name="Grupo 1179508" transform="translate(-725.74 -496.696)">
    <rect id="Rectángulo_454918" data-name="Rectángulo 454918" width="84" height="84" rx="5" transform="translate(725.74 496.696)" fill="#ffe082"/>
    <path id="Trazado_995866" data-name="Trazado 995866" d="M50.733,39.091l-4.008-2.318a.891.891,0,1,1,.888-1.546l3.678,2.126a3.275,3.275,0,0,1,3.265-3.163H55a3.272,3.272,0,0,1,3.261,3.163l3.682-2.126a.891.891,0,1,1,.888,1.546L58.8,39.1a7.928,7.928,0,0,1,3.134,3.936A4.9,4.9,0,0,1,61.69,46.9c-.051,4.154-1.534,6.994-3.5,8.463v1.19a8.589,8.589,0,0,1,1.868.2,8.913,8.913,0,0,1,5.5-2.031l.733-1.212a11.657,11.657,0,0,1-2.181-2.485,3.2,3.2,0,0,1-.584-1.854V46.133a6.536,6.536,0,0,1-.2-3.943A4.637,4.637,0,0,1,65.9,39.647h0c4.512-1.987,9.878.9,10.244,5.742a.905.905,0,0,1-.439.838v2.946a3.169,3.169,0,0,1-.584,1.854,11.488,11.488,0,0,1-2.181,2.481l.733,1.212a8.684,8.684,0,0,1,6.24,2.721c2.078,2.133,1.861,7.157,1.7,10.956-.008.192-.014.384-.026.569a11.572,11.572,0,0,1,.987,2.416c1.657,6-2.213,11.438-8.514,14.985-11.517,6.479-30.08,6.479-41.6,0C26.172,82.831,22.3,77.408,23.93,71.426a11.665,11.665,0,0,1,.961-2.394V63.421a7.719,7.719,0,0,1,7.7-7.7h1.026V54.051a7.941,7.941,0,0,1-.864-.848,3.1,3.1,0,0,1-5.267-2.579,4,4,0,0,1-1.9-6.149,3.709,3.709,0,0,1,2.776-5.946,3.329,3.329,0,0,1,5.281-3.1,4.572,4.572,0,0,1,7.15,0,3.326,3.326,0,0,1,5.278,3.1,3.864,3.864,0,0,1,3.069,1.916A8.5,8.5,0,0,1,50.733,39.091Zm1.858,1.034a.8.8,0,0,1-.109.047,5.51,5.51,0,0,0-.943.53,6.188,6.188,0,0,0-2.007,2.268c-.008.036-.014.073-.022.1a3.861,3.861,0,0,1-.3.823,3.222,3.222,0,0,0-.061,1.008l2.355-2.06a.894.894,0,0,1,1.477.482c.156.765,1.477,1.556,2.847,2.053a8.712,8.712,0,0,0,4.354.544c.827-1.9-.537-3.986-2.1-5.147a5.718,5.718,0,0,0-5.49-.653Zm3.885-2.01c0-.656.077-1.19-.435-1.7a1.744,1.744,0,0,0-1.483-.435,1.479,1.479,0,0,0-1.473,1.473V38.1a7.66,7.66,0,0,1,3.391.012Zm-8.652,8.569a4.8,4.8,0,0,1-.381-1.1l-.41-.443a.9.9,0,0,1,.079-1.44,1.789,1.789,0,0,0,.413-.461,3.9,3.9,0,0,1,.131-.41c.044-.131.095-.257.148-.384a1.839,1.839,0,0,0-.182-1.052,2.25,2.25,0,0,0-2.5-1.052.9.9,0,0,1-1-1.172c.874-2.608-1.879-3.385-2.691-1.813a.9.9,0,0,1-1.639-.116,2.78,2.78,0,0,0-5.176.029.9.9,0,0,1-1.629.087c-.8-1.548-3.563-.831-2.687,1.825a.9.9,0,0,1-1.016,1.161c-1.657-.3-2.971.878-2.626,2.325a1.869,1.869,0,0,0,.7,1.07.9.9,0,0,1,.033,1.4v0a2.214,2.214,0,0,0,1.3,3.911.894.894,0,0,1,.722,1.349,1.3,1.3,0,1,0,2.293,1.245,8.477,8.477,0,0,1-.04-8.209v0a.9.9,0,0,1,1.542.018c.907,1.592,2.355,1.56,3.229.008a.892.892,0,0,1,1.556-.008c.53.929,1.459,1.582,2.43.914.708-.486.7-.987,1.117-1.237a.891.891,0,0,1,1.226.3,8.5,8.5,0,0,1-.033,8.216,1.3,1.3,0,1,0,2.278-1.269.893.893,0,0,1,.733-1.331,2.228,2.228,0,0,0,2.086-2Zm12.04,1.092c-2.489.221-6.418-.9-8.02-2.855l-2.22,1.944a1.155,1.155,0,0,1,0,.116c.109,3.721,1.39,6.08,3.029,7.14a3.8,3.8,0,0,0,2.1.646,3.877,3.877,0,0,0,2.007-.581.754.754,0,0,1,.131-.083c1.534-1,2.754-3.116,2.978-6.327ZM56.4,56.293a5.482,5.482,0,0,1-3.282.008c0,.744-.1,1.412.482,2a1.642,1.642,0,0,0,2.8-1.157Zm-5.074-.918a8.994,8.994,0,0,1-3.156-5.449,3.927,3.927,0,0,1-1.23.692,3.089,3.089,0,0,1-5.263,2.58,7.124,7.124,0,0,1-.866.848v1.673a9.4,9.4,0,0,1,3.454.4A7.6,7.6,0,0,1,47,57.718a8.492,8.492,0,0,1,4.332-1.165V55.375Zm6.646,2.97a3.435,3.435,0,0,1-6.424,0l-.852.026,4.063,7.037,4.067-7.037Zm-11.282,13.6V68.585a.9.9,0,0,1,1.792,0v3.359h2.5l.526-.907L45.8,61.153a6.75,6.75,0,0,0-1.305,3.99v6.8Zm14.347,0V68.585a.9.9,0,0,1,1.792,0v3.359h2.191v-6.8a6.774,6.774,0,0,0-1.3-3.99L57.484,71.945ZM47.089,59.814l5.452,9.439,1.19-2.06-4.85-8.4a6.993,6.993,0,0,0-1.792,1.022Zm8.449,7.814a.1.1,0,0,1-.014.022l-2.478,4.295h2.376l7.005-12.13a6.782,6.782,0,0,0-1.788-1.022Zm6.551-10.149a8.611,8.611,0,0,1,4.723,7.665v4.767h8.275V61.5a.9.9,0,1,1,1.792,0v8.415h2.884c.109-3.565.649-9.4-1.131-11.227a6.841,6.841,0,0,0-4.947-2.169,4.751,4.751,0,0,1-8.129,0,8,8,0,0,0-3.467.964ZM66.812,71.7v1.139a.9.9,0,0,1-.9.9H43.6a.9.9,0,0,1-.9-.9V71.118H30.856a6.161,6.161,0,0,0-.816,3.011c0,3.076,2.513,5.912,6.576,8.01,9.156,4.73,24.126,4.73,33.283,0,4.73-2.442,7.9-6.258,6.05-10.436H66.812ZM42.706,69.33V65.144A8.574,8.574,0,0,1,45.517,58.8a5.753,5.753,0,0,0-.987-.642,7.778,7.778,0,0,1-14.63,0,5.8,5.8,0,0,0-1.085.722,12.585,12.585,0,0,1,1.6,10.444ZM67.823,40.9a4.557,4.557,0,0,1,.609,2.938,7.476,7.476,0,0,0,5.819.969A5.471,5.471,0,0,0,67.823,40.9Zm-1.207,3.023a2.819,2.819,0,0,0-.5-2.355,2.411,2.411,0,0,0-1.1,1.2,3.983,3.983,0,0,0,.047,2.155A3.7,3.7,0,0,0,66.616,43.927ZM73.91,46.7a9.18,9.18,0,0,1-6.283-1.248,6.014,6.014,0,0,1-2.307,1.281v2.442a1.444,1.444,0,0,0,.269.856c.886,1.3,2.355,3.039,4.048,3.025,1.676-.018,3.138-1.748,4-3.025a1.418,1.418,0,0,0,.269-.856V46.7Zm-2.492,7.756a4.441,4.441,0,0,1-3.606,0L67.1,55.626a2.965,2.965,0,0,0,5.024,0ZM80.8,71.688l-2.938.014c1.639,4.872-1.766,9.25-7.142,12.025-9.678,5-25.244,5-34.922,0-5.586-2.884-9.065-7.538-6.925-12.609H25.907c-2,5.42,1.614,10.414,7.426,13.687,10.974,6.175,28.875,6.175,39.849,0C78.8,81.641,82.345,76.89,80.8,71.688ZM37.284,53.615c3.254-.079,5.507-4.633,4.487-8.031a3.2,3.2,0,0,1-4.556-.21,3.2,3.2,0,0,1-4.556.21C31.621,49.052,34,53.695,37.284,53.615Zm1.734,1.465a5.291,5.291,0,0,1-3.606.008v1.524a.9.9,0,0,1-.9.9H32.592a5.755,5.755,0,0,0-1,.087,5.989,5.989,0,0,0,11.238,0,21.538,21.538,0,0,0-2.92-.087.9.9,0,0,1-.9-.9V55.081ZM28.541,69.33a10.755,10.755,0,0,0-.955-9.04,5.877,5.877,0,0,0-.9,3.126v5.912h1.858Z" transform="translate(714.484 476.229)" fill="#305729" stroke="#305729" stroke-width="1"/>
  </g>
</svg>
