<svg xmlns="http://www.w3.org/2000/svg" xmlns:xlink="http://www.w3.org/1999/xlink" width="135.176" height="127.499" viewBox="0 0 135.176 127.499">
  <defs>
    <clipPath id="clip-path">
      <rect id="Rectángulo_400938" data-name="Rectángulo 400938" width="120" height="120" fill="none"/>
    </clipPath>
  </defs>
  <g id="Grupo_1179509" data-name="Grupo 1179509" transform="translate(-492.711 -1457)">
    <g id="Grupo_108927" data-name="Grupo 108927" transform="translate(108.77 -3010)">
      <path id="Rectángulo_36179" data-name="Rectángulo 36179" d="M0,0H129.117V127.5H0Z" transform="translate(390 4467)" fill="#ffc967"/>
    </g>
    <path id="Rectángulo_36181" data-name="Rectángulo 36181" d="M6.106,0H81.412a21.71,21.71,0,0,1,21.71,21.71V95.659a6.106,6.106,0,0,1-6.106,6.106H6.106A6.106,6.106,0,0,1,0,95.659V6.106A6.106,6.106,0,0,1,6.106,0Z" transform="translate(511.601 1470.512)" fill="#fff"/>
    <g id="Grupo_1178916" data-name="Grupo 1178916" transform="translate(439.299 1385.934)">
      <path id="Trazado_996588" data-name="Trazado 996588" d="M296.693,281.934h8.988v8.987h-8.988Z" transform="translate(-155.973 -131.711)" fill="#183461"/>
      <path id="Trazado_996589" data-name="Trazado 996589" d="M263.443,248.684h8.988v8.988h-8.988Z" transform="translate(-131.711 -107.448)" fill="#183461"/>
      <path id="Trazado_996590" data-name="Trazado 996590" d="M329.943,248.684h8.988v8.988h-8.988Z" transform="translate(-180.236 -107.448)" fill="#183461"/>
      <path id="Trazado_996591" data-name="Trazado 996591" d="M296.693,215.434h8.988v8.988h-8.988Z" transform="translate(-155.973 -83.186)" fill="#183461"/>
      <path id="Trazado_996592" data-name="Trazado 996592" d="M338.931,281.934v6.42a2.575,2.575,0,0,1-2.568,2.568h-6.42v-8.987Z" transform="translate(-180.236 -131.711)" fill="#305729"/>
      <path id="Trazado_996593" data-name="Trazado 996593" d="M272.431,281.934v8.987h-6.42a2.575,2.575,0,0,1-2.568-2.568v-6.42Z" transform="translate(-131.711 -131.711)" fill="#305729"/>
      <path id="Trazado_996594" data-name="Trazado 996594" d="M296.693,248.684h8.988v8.988h-8.988Z" transform="translate(-155.973 -107.448)" fill="#305729"/>
      <path id="Trazado_996595" data-name="Trazado 996595" d="M338.931,218v6.42h-8.988v-8.988h6.42A2.575,2.575,0,0,1,338.931,218Z" transform="translate(-180.236 -83.186)" fill="#305729"/>
      <path id="Trazado_996598" data-name="Trazado 996598" d="M272.431,215.434v8.988h-8.988V218a2.575,2.575,0,0,1,2.568-2.568Z" transform="translate(-131.711 -83.186)" fill="#305729"/>
      <path id="Trazado_996599" data-name="Trazado 996599" d="M142.643,204.909a17.659,17.659,0,0,1-.141,2.2l-3.531-1.323a6.55,6.55,0,0,0-4.635,0l-2,.745a4.061,4.061,0,0,0-2.426,5.1l.18.539a3.522,3.522,0,0,1-.514,3.2l-1.066,1.412a3.44,3.44,0,0,0-.668,2.5l.4,3.248v.013a19.237,19.237,0,0,1-3.569.347,16.585,16.585,0,0,1-2.414-.167l.757-4.211a4.927,4.927,0,0,0-2.632-5.264l-1.862-.924a2.085,2.085,0,0,1-1.027-1.143,17.031,17.031,0,0,0-1.81-3.274c-1.284-1.913-5.816-1.785-8.923-1.438-.038-.514-.064-1.027-.064-1.554a17.769,17.769,0,0,1,1.618-7.434c1.528.886,3.351,1.926,4.378,2.439,1.99,1,4.995,1,7.986-2.992,1.939-2.594.95-6.869.013-9.539a17.865,17.865,0,0,1,8.538.141,11.541,11.541,0,0,1-1.566,7.4,19.081,19.081,0,0,0-1.669,3.48,1.908,1.908,0,0,0,2.516,2.388l1.669-.668A1.813,1.813,0,0,1,131.19,200l3.967.655a3.2,3.2,0,0,0,2.645-.732l3.12-2.683a17.836,17.836,0,0,1,1.72,7.665Zm-17.975,3.428v-2.594a1.535,1.535,0,0,0-.693-1.3l-1.233-.822a1.572,1.572,0,0,0-1.977.193l-.128.128a1.565,1.565,0,0,0-.154,2.041l1.964,2.619a1.587,1.587,0,0,0,.552.462l.269.128a.965.965,0,0,0,1.4-.86Z" transform="translate(-17.33 -62.389)" fill="#183461"/>
      <path id="Trazado_996600" data-name="Trazado 996600" d="M195.981,255.52l3.531,1.323a18.013,18.013,0,0,1-14.264,15.433v-.013l-.4-3.248a3.44,3.44,0,0,1,.668-2.5l1.066-1.412a3.522,3.522,0,0,0,.514-3.2l-.18-.539a4.061,4.061,0,0,1,2.426-5.1l2-.745A6.55,6.55,0,0,1,195.981,255.52Z" transform="translate(-74.34 -112.127)" fill="#305729"/>
      <path id="Trazado_996601" data-name="Trazado 996601" d="M192.719,198.838l-3.12,2.683a3.2,3.2,0,0,1-2.645.732l-3.967-.655a1.813,1.813,0,0,0-1.014.116l-1.669.668a1.908,1.908,0,0,1-2.516-2.388,19.08,19.08,0,0,1,1.669-3.48,11.541,11.541,0,0,0,1.566-7.4,17.961,17.961,0,0,1,11.7,9.719Z" transform="translate(-69.126 -63.984)" fill="#305729"/>
      <path id="Trazado_996603" data-name="Trazado 996603" d="M120.553,265.4a4.927,4.927,0,0,1,2.632,5.264l-.757,4.211a17.973,17.973,0,0,1-15.5-16.255c3.107-.347,7.64-.475,8.923,1.438a17.03,17.03,0,0,1,1.81,3.274,2.085,2.085,0,0,0,1.027,1.143Z" transform="translate(-17.503 -114.551)" fill="#305729"/>
      <path id="Trazado_996604" data-name="Trazado 996604" d="M170.516,297.22a3.439,3.439,0,0,0-.668,2.5l.4,3.248v.013a19.237,19.237,0,0,1-3.569.346,16.585,16.585,0,0,1-2.414-.167l.578-3.21h.013c.4-.116.8-.244,1.181-.385a19.049,19.049,0,0,0,4.134-2.119.012.012,0,0,0,.013-.013,3.634,3.634,0,0,0,.359-.257Z" transform="translate(-59.339 -142.837)" fill="#f4b400"/>
      <path id="Trazado_996605" data-name="Trazado 996605" d="M222.571,232.742a17.654,17.654,0,0,1-.141,2.2l-3.531-1.323a6.582,6.582,0,0,0-2.671-.411v-.051a14.883,14.883,0,0,0,.437-2.529,15.446,15.446,0,0,0,.115-2.042v-.257a3.1,3.1,0,0,0,.95-.565l3.12-2.683A17.836,17.836,0,0,1,222.571,232.742Z" transform="translate(-97.258 -90.222)" fill="#f4b400"/>
      <path id="Trazado_996609" data-name="Trazado 996609" d="M125.055,188.6c.937,2.671,1.926,6.946-.013,9.539-2.991,3.993-6,3.993-7.986,2.992-1.027-.514-2.85-1.554-4.378-2.439A17.944,17.944,0,0,1,125.055,188.6Z" transform="translate(-21.698 -63.603)" fill="#305729"/>
      <g id="Grupo_1178915" data-name="Grupo 1178915" transform="translate(82.943 101.434)">
        <circle id="Elipse_13644" data-name="Elipse 13644" cx="1.926" cy="1.926" r="1.926" transform="translate(50.073 23.111)"/>
        <circle id="Elipse_13645" data-name="Elipse 13645" cx="1.926" cy="1.926" r="1.926" transform="translate(55.209 23.111)"/>
        <circle id="Elipse_13646" data-name="Elipse 13646" cx="1.926" cy="1.926" r="1.926" transform="translate(60.345 23.111)"/>
        <circle id="Elipse_13647" data-name="Elipse 13647" cx="1.926" cy="1.926" r="1.926" transform="translate(65.48 23.111)"/>
        <circle id="Elipse_13648" data-name="Elipse 13648" cx="1.926" cy="1.926" r="1.926" transform="translate(70.616 23.111)"/>
        <path id="Trazado_996610" data-name="Trazado 996610" d="M161.263,106.57H150.991v-3.852a1.284,1.284,0,0,0-2.568,0v3.852h-7.7v-3.852a1.284,1.284,0,0,0-2.568,0v3.852H109.906v-3.852a1.284,1.284,0,0,0-2.568,0v3.852h-7.7v-3.852a1.284,1.284,0,0,0-2.568,0v3.852H86.795a3.856,3.856,0,0,0-3.852,3.852v53.925a3.856,3.856,0,0,0,3.852,3.852h74.468a3.856,3.856,0,0,0,3.852-3.852V110.422A3.856,3.856,0,0,0,161.263,106.57Zm1.284,57.777a1.285,1.285,0,0,1-1.284,1.284H86.795a1.285,1.285,0,0,1-1.284-1.284V110.422a1.285,1.285,0,0,1,1.284-1.284H97.066v1.494a4.494,4.494,0,1,0,2.568,0v-1.494h7.7v1.494a4.494,4.494,0,1,0,2.568,0v-1.494h28.246v1.494a4.494,4.494,0,1,0,2.568,0v-1.494h7.7v1.494a4.494,4.494,0,1,0,2.568,0v-1.494h10.271a1.285,1.285,0,0,1,1.284,1.284Zm-64.2-48.789a1.284,1.284,0,0,0,1.284-1.284v-.783a1.926,1.926,0,1,1-2.568,0v.783A1.284,1.284,0,0,0,98.35,115.557Zm10.271,0a1.284,1.284,0,0,0,1.284-1.284v-.783a1.926,1.926,0,1,1-2.568,0v.783A1.284,1.284,0,0,0,108.622,115.557Zm30.814,0a1.284,1.284,0,0,0,1.284-1.284v-.783a1.926,1.926,0,1,1-2.568,0v.783A1.284,1.284,0,0,0,139.436,115.557Zm10.271,0a1.284,1.284,0,0,0,1.284-1.284v-.783a1.926,1.926,0,1,1-2.568,0v.783A1.284,1.284,0,0,0,149.707,115.557Z" transform="translate(-82.943 -101.434)"/>
        <path id="Trazado_996611" data-name="Trazado 996611" d="M121.2,182.184a19.259,19.259,0,1,0,19.259,19.259A19.281,19.281,0,0,0,121.2,182.184Zm14.656,11.28-2.364,2.024a1.921,1.921,0,0,1-1.587.444l-3.971-.66a3.2,3.2,0,0,0-1.71.186l-1.661.667a.625.625,0,0,1-.673-.131.587.587,0,0,1-.16-.637,17.829,17.829,0,0,1,1.567-3.239,12.775,12.775,0,0,0,1.819-6.263A16.775,16.775,0,0,1,135.858,193.464Zm-19.494-7.991c.936,3.193.884,5.787-.184,7.211-2.073,2.764-4.281,3.673-6.392,2.616-.75-.371-1.96-1.055-3.26-1.805A16.768,16.768,0,0,1,116.364,185.473Zm-11.612,18.682c3.99-.283,5.948.326,6.4,1a15.732,15.732,0,0,1,1.667,3A3.345,3.345,0,0,0,114.48,210l1.862.926a3.646,3.646,0,0,1,1.94,3.888l-.533,2.954A16.721,16.721,0,0,1,104.751,204.155ZM120.3,218.088l.508-2.814a6.227,6.227,0,0,0-3.318-6.643l-1.863-.926a.788.788,0,0,1-.4-.444,18.5,18.5,0,0,0-1.941-3.536c-1.19-1.787-4.077-2.479-8.764-2.128,0-.052-.008-.1-.008-.155a16.584,16.584,0,0,1,.98-5.582c1.2.691,2.374,1.352,3.153,1.738a6.521,6.521,0,0,0,2.891.69c1.878,0,4.289-.851,6.7-4.065,1.916-2.556,1.524-6.24.651-9.292a16,16,0,0,1,5.664.158A10.3,10.3,0,0,1,123.1,190.8a20.44,20.44,0,0,0-1.791,3.719,3.2,3.2,0,0,0,3.011,4.227,3.244,3.244,0,0,0,1.2-.231l1.67-.671a.591.591,0,0,1,.328-.034l3.968.658a4.462,4.462,0,0,0,3.687-1.028l1.767-1.513a16.576,16.576,0,0,1,.958,5.52c0,.131-.017.257-.02.387l-1.919-.721a7.868,7.868,0,0,0-5.534,0l-2.011.75a5.336,5.336,0,0,0-3.195,6.693l.182.557a2.21,2.21,0,0,1-.317,2.007l-1.069,1.419a4.734,4.734,0,0,0-.917,3.438l.254,2.006a16.717,16.717,0,0,1-2.145.154c-.3,0-.6-.029-.9-.046Zm5.57-.631-.227-1.8a2.173,2.173,0,0,1,.421-1.577l1.075-1.428a4.783,4.783,0,0,0,.7-4.347l-.181-.554a2.778,2.778,0,0,1,1.656-3.487l2.01-.748a5.281,5.281,0,0,1,3.731,0l2.553.959A16.727,16.727,0,0,1,125.869,217.457Z" transform="translate(-96.807 -160.357)"/>
        <path id="Trazado_996612" data-name="Trazado 996612" d="M157.627,244.259l-1.233-.821a2.852,2.852,0,0,0-3.595.356l-.13.132a2.856,2.856,0,0,0-.265,3.719l1.961,2.616a2.85,2.85,0,0,0,1,.839l.262.13a2.254,2.254,0,0,0,3.264-2.015v-2.587a2.839,2.839,0,0,0-1.268-2.369Zm-1.3,4.337-1.869-2.491a.281.281,0,0,1,.029-.366l.131-.132a.281.281,0,0,1,.351-.034l1.235.823a.278.278,0,0,1,.124.232V248.6Z" transform="translate(-133.216 -204.705)"/>
        <path id="Trazado_996613" data-name="Trazado 996613" d="M284.372,210.684H262.545a3.856,3.856,0,0,0-3.852,3.852v21.827a3.856,3.856,0,0,0,3.852,3.852h21.827a3.856,3.856,0,0,0,3.852-3.852V214.536A3.856,3.856,0,0,0,284.372,210.684Zm1.284,3.852v5.136h-6.42v-6.42h5.136A1.285,1.285,0,0,1,285.656,214.536Zm-15.407,14.123v-6.42h6.42v6.42Zm6.42,2.568v6.42h-6.42v-6.42Zm-8.988-2.568h-6.42v-6.42h6.42Zm2.568-8.988v-6.42h6.42v6.42Zm8.988,2.568h6.42v6.42h-6.42Zm-16.691-8.988h5.136v6.42h-6.42v-5.136A1.285,1.285,0,0,1,262.545,213.252Zm-1.284,23.111v-5.136h6.42v6.42h-5.136A1.285,1.285,0,0,1,261.261,236.363Zm23.111,1.284h-5.136v-6.42h6.42v5.136A1.285,1.285,0,0,1,284.372,237.647Z" transform="translate(-211.188 -181.154)"/>
      </g>
    </g>
  </g>
</svg>
