<svg id="Grupo_1179473" data-name="Grupo 1179473" xmlns="http://www.w3.org/2000/svg" xmlns:xlink="http://www.w3.org/1999/xlink" width="395.158" height="396.891" viewBox="0 0 395.158 396.891">
  <defs>
    <clipPath id="clip-path">
      <path id="Trazado_996826" data-name="Trazado 996826" d="M265.321,4.2h-155.4A70.352,70.352,0,0,0,39.991,82.228L63.837,299.523A70.348,70.348,0,0,0,133.771,362.2H242.137a70.347,70.347,0,0,0,69.953-62.9L335.274,82.008A70.366,70.366,0,0,0,265.321,4.179Z" transform="translate(-39.563 -4.179)" fill="none"/>
    </clipPath>
    <clipPath id="clip-path-2">
      <rect id="Rectángulo_455288" data-name="Rectángulo 455288" width="395.158" height="396.891" fill="none"/>
    </clipPath>
  </defs>
  <g id="Grupo_1179470" data-name="Grupo 1179470" transform="translate(42.599 4.5)">
    <g id="Grupo_1179469" data-name="Grupo 1179469" clip-path="url(#clip-path)">
      <path id="Trazado_996759" data-name="Trazado 996759" d="M24.87.973,11.524,176.449,77.249,351.3h146.78c65.206,0,98.989-50.236,107.886-102.476S351.472,149.918,358,114.27c6.512-35.648,1.182-103.8-101.954-110.331C152.913-2.573,24.89.953,24.89.953Z" transform="translate(-41.715 -4.5)" fill="#1565c0"/>
      <path id="Trazado_996760" data-name="Trazado 996760" d="M173.287,198.359l64.945-56.067a12.081,12.081,0,0,1,14.487-.982L340.807,198.8l-167.54-.44Z" transform="translate(-29.306 6.192)" fill="#d5ac3b"/>
      <path id="Trazado_996761" data-name="Trazado 996761" d="M173.286,197.072l100.933.261-53.542-41.2Z" transform="translate(-29.304 7.479)" fill="#cf9800"/>
      <line id="Línea_3520" data-name="Línea 3520" y2="11.903" transform="translate(216.6 159.284)" fill="none" stroke="#c1723e" stroke-linecap="round" stroke-linejoin="round" stroke-width="1.247"/>
      <line id="Línea_3521" data-name="Línea 3521" x2="6.072" y2="12.844" transform="translate(222.492 160.607)" fill="none" stroke="#c1723e" stroke-linecap="round" stroke-linejoin="round" stroke-width="1.247"/>
      <line id="Línea_3522" data-name="Línea 3522" x2="19.637" y2="17.614" transform="translate(229.285 159.284)" fill="none" stroke="#c1723e" stroke-linecap="round" stroke-linejoin="round" stroke-width="1.247"/>
      <line id="Línea_3523" data-name="Línea 3523" x1="6.072" y2="12.844" transform="translate(204.457 160.607)" fill="none" stroke="#c1723e" stroke-linecap="round" stroke-linejoin="round" stroke-width="1.247"/>
      <line id="Línea_3524" data-name="Línea 3524" x1="19.637" y2="17.614" transform="translate(184.099 159.284)" fill="none" stroke="#c1723e" stroke-linecap="round" stroke-linejoin="round" stroke-width="1.247"/>
      <path id="Trazado_996762" data-name="Trazado 996762" d="M.469,164.761l109.93-61.6a22.712,22.712,0,0,1,25.729.822L269.2,201.852H21.67l-21.2-37.07Z" transform="translate(-42.563 3.139)" fill="#d5ac3b"/>
      <line id="Línea_3525" data-name="Línea 3525" y2="14.808" transform="translate(81.542 120.691)" fill="none" stroke="#c1723e" stroke-linecap="round" stroke-linejoin="round" stroke-width="1.247"/>
      <line id="Línea_3526" data-name="Línea 3526" x2="7.554" y2="16.011" transform="translate(88.876 122.314)" fill="none" stroke="#c1723e" stroke-linecap="round" stroke-linejoin="round" stroke-width="1.247"/>
      <line id="Línea_3527" data-name="Línea 3527" x2="24.447" y2="21.902" transform="translate(97.333 120.691)" fill="none" stroke="#c1723e" stroke-linecap="round" stroke-linejoin="round" stroke-width="1.247"/>
      <line id="Línea_3528" data-name="Línea 3528" x1="7.554" y2="16.011" transform="translate(66.434 122.314)" fill="none" stroke="#c1723e" stroke-linecap="round" stroke-linejoin="round" stroke-width="1.247"/>
      <line id="Línea_3529" data-name="Línea 3529" x1="24.447" y2="21.902" transform="translate(41.085 120.691)" fill="none" stroke="#c1723e" stroke-linecap="round" stroke-linejoin="round" stroke-width="1.247"/>
      <path id="Trazado_996763" data-name="Trazado 996763" d="M238.967,55.553l62.779-38.974L281.569,1.75S247.1-1.3,215.883,22.269,172.3,96.912,172.3,96.912l39.856-24.747L209.37,56.835,217.246,69l15.229-9.458-.621-14.088,7.093,10.06Z" transform="translate(-29.38 -4.375)" fill="#105814"/>
      <line id="Línea_3530" data-name="Línea 3530" x2="10.119" y2="18.636" transform="translate(203.535 30.018)" fill="none" stroke="#040d1a" stroke-miterlimit="10" stroke-width="0.782"/>
      <line id="Línea_3531" data-name="Línea 3531" x2="13.386" y2="10.78" transform="translate(240.225 13.085)" fill="none" stroke="#040d1a" stroke-miterlimit="10" stroke-width="0.782"/>
      <line id="Línea_3532" data-name="Línea 3532" x1="2.404" y2="25.93" transform="translate(167.267 51.539)" fill="none" stroke="#040d1a" stroke-miterlimit="10" stroke-width="0.782"/>
      <line id="Línea_3533" data-name="Línea 3533" x1="1.262" y2="13.526" transform="translate(161.576 67.469)" fill="none" stroke="#040d1a" stroke-miterlimit="10" stroke-width="0.782"/>
      <line id="Línea_3534" data-name="Línea 3534" x2="5.55" y2="12.123" transform="translate(213.034 33.464)" fill="none" stroke="#040d1a" stroke-miterlimit="10" stroke-width="0.782"/>
      <path id="Trazado_996764" data-name="Trazado 996764" d="M20.159,194.564h327.5L299.973,359.5H79.653Z" transform="translate(-41.052 10.427)" fill="#749ac1"/>
      <line id="Línea_3535" data-name="Línea 3535" x1="18.676" y2="53.943" transform="translate(145.665 262.441)" fill="none" stroke="#040d1a" stroke-miterlimit="10" stroke-width="0.8"/>
      <path id="Trazado_996765" data-name="Trazado 996765" d="M176.018,269.349c1.783,4.047,4.128,7.174,6.132,8.557.321-2.405-.44-6.253-2.225-10.3s-4.128-7.174-6.132-8.557c-.321,2.4.441,6.253,2.225,10.3" transform="translate(-29.271 15.375)" fill="#83afda"/>
      <path id="Trazado_996766" data-name="Trazado 996766" d="M183.065,255.583c1.3,2.946,3.006,5.25,4.468,6.251a18.974,18.974,0,0,0-6.092-13.766,15.574,15.574,0,0,0,1.624,7.514" transform="translate(-28.683 14.532)" fill="#83afda"/>
      <path id="Trazado_996767" data-name="Trazado 996767" d="M194.067,270.456c3.687-2.024,6.472-4.489,7.635-6.512-2.305-.1-5.892.922-9.578,2.945s-6.472,4.489-7.635,6.513c2.3.1,5.892-.922,9.578-2.946" transform="translate(-28.445 15.75)" fill="#83afda"/>
      <path id="Trazado_996768" data-name="Trazado 996768" d="M196.011,253.615a12.379,12.379,0,0,0,4.589-3.907,14.975,14.975,0,0,0-10.36,5.69,12.375,12.375,0,0,0,5.771-1.783" transform="translate(-28.004 14.658)" fill="#83afda"/>
      <path id="Trazado_996769" data-name="Trazado 996769" d="M195.221,246.67a2.3,2.3,0,1,1-2.3-2.3,2.3,2.3,0,0,1,2.3,2.3" transform="translate(-27.975 14.248)" fill="#5bb25e"/>
      <path id="Trazado_996770" data-name="Trazado 996770" d="M193.1,263.159a2.3,2.3,0,1,1-2.3-2.3,2.3,2.3,0,0,1,2.3,2.3" transform="translate(-28.138 15.513)" fill="#5bb25e"/>
      <path id="Trazado_996771" data-name="Trazado 996771" d="M184.194,266.439a1.583,1.583,0,1,1-1.583-1.583,1.586,1.586,0,0,1,1.583,1.583" transform="translate(-28.71 15.82)" fill="#5bb25e"/>
      <path id="Trazado_996772" data-name="Trazado 996772" d="M185.413,274.254a1.463,1.463,0,1,1-1.463,1.463,1.462,1.462,0,0,1,1.463-1.463" transform="translate(-28.486 16.541)" fill="#5bb25e"/>
      <line id="Línea_3536" data-name="Línea 3536" x1="8.136" y2="56.507" transform="translate(203.475 250.178)" fill="none" stroke="#040d1a" stroke-miterlimit="10" stroke-width="0.8"/>
      <path id="Trazado_996773" data-name="Trazado 996773" d="M224.275,260.633c2.525,3.626,5.411,6.272,7.635,7.254-.14-2.425-1.6-6.051-4.128-9.679s-5.411-6.272-7.635-7.254c.14,2.425,1.6,6.052,4.128,9.679" transform="translate(-25.709 14.754)" fill="#83afda"/>
      <path id="Trazado_996774" data-name="Trazado 996774" d="M228.589,245.8c1.843,2.646,3.947,4.589,5.571,5.29a15.614,15.614,0,0,0-3.026-7.073c-1.844-2.646-3.948-4.589-5.571-5.29a15.623,15.623,0,0,0,3.026,7.073" transform="translate(-25.294 13.815)" fill="#83afda"/>
      <path id="Trazado_996775" data-name="Trazado 996775" d="M242.069,258.547c3.245-2.685,5.51-5.651,6.25-7.835-2.284.341-5.61,2.024-8.856,4.71s-5.511,5.651-6.251,7.834c2.284-.34,5.611-2.023,8.857-4.708" transform="translate(-24.707 14.735)" fill="#83afda"/>
      <path id="Trazado_996776" data-name="Trazado 996776" d="M240.85,241.537a12.425,12.425,0,0,0,3.767-4.708,12.466,12.466,0,0,0-5.331,2.825,12.085,12.085,0,0,0-3.766,4.708,12.464,12.464,0,0,0,5.33-2.825" transform="translate(-24.53 13.67)" fill="#83afda"/>
      <path id="Trazado_996777" data-name="Trazado 996777" d="M238.8,234.765a2.295,2.295,0,1,1-2.686-1.824,2.3,2.3,0,0,1,2.686,1.824" transform="translate(-24.627 13.368)" fill="#5bb25e"/>
      <path id="Trazado_996778" data-name="Trazado 996778" d="M239.826,251.366a2.295,2.295,0,1,1-2.685-1.824,2.3,2.3,0,0,1,2.685,1.824" transform="translate(-24.548 14.642)" fill="#5bb25e"/>
      <path id="Trazado_996779" data-name="Trazado 996779" d="M231.724,256.275a1.591,1.591,0,1,1-1.864-1.262,1.594,1.594,0,0,1,1.864,1.262" transform="translate(-25.063 15.063)" fill="#5bb25e"/>
      <path id="Trazado_996780" data-name="Trazado 996780" d="M236.116,264.885a1.458,1.458,0,1,1-1.7-1.162,1.453,1.453,0,0,1,1.7,1.162" transform="translate(-24.706 15.731)" fill="#5bb25e"/>
      <line id="Línea_3537" data-name="Línea 3537" x1="38.573" y2="43.623" transform="translate(71.423 257.612)" fill="none" stroke="#040d1a" stroke-miterlimit="10" stroke-width="0.8"/>
      <path id="Trazado_996781" data-name="Trazado 996781" d="M134.423,258.352a16.82,16.82,0,0,0-8.036,2.825,19.059,19.059,0,0,0,16.512-1.864,16.838,16.838,0,0,0-8.476-.961" transform="translate(-32.902 15.31)" fill="#83afda"/>
      <path id="Trazado_996782" data-name="Trazado 996782" d="M135.766,247.578a16.686,16.686,0,0,0,.321-8.516,18.995,18.995,0,0,0-4.328,16.03,16.689,16.689,0,0,0,4.008-7.514" transform="translate(-32.522 13.841)" fill="#83afda"/>
      <path id="Trazado_996783" data-name="Trazado 996783" d="M142.85,240.532a2.5,2.5,0,1,1-2.5,2.5,2.5,2.5,0,0,1,2.5-2.5" transform="translate(-31.831 13.954)" fill="#5bb25e"/>
      <path id="Trazado_996784" data-name="Trazado 996784" d="M136.952,253.671a1.222,1.222,0,1,1-1.222,1.222,1.222,1.222,0,0,1,1.222-1.222" transform="translate(-32.186 14.962)" fill="#5bb25e"/>
      <path id="Trazado_996785" data-name="Trazado 996785" d="M127.41,264.949a1.022,1.022,0,1,1-1.022,1.022,1.022,1.022,0,0,1,1.022-1.022" transform="translate(-32.902 15.827)" fill="#5bb25e"/>
      <path id="Trazado_996786" data-name="Trazado 996786" d="M128.091,252.015a1.7,1.7,0,1,1-1.7,1.7,1.7,1.7,0,0,1,1.7-1.7" transform="translate(-32.902 14.835)" fill="#5bb25e"/>
      <path id="Trazado_996787" data-name="Trazado 996787" d="M56.264,310.91s66.688-21.341,89.351-7.334c0,0,17.773-22,48.894-9.559,0,0,14.667-18.676,19.116-18.676s-4.008,17.775-4.008,17.775,17.773-21.341,45.346-17.775c0,0,31.561-45.786,40.9-44.224s-2.223,30.659-2.223,30.659,33.343-25.548,44-23.765l-40.457,102.7H64.019l-7.774-29.777Z" transform="translate(-38.284 13.229)" fill="#83afda"/>
      <line id="Línea_3538" data-name="Línea 3538" x1="4.008" y2="4.128" transform="translate(256.256 280.977)" fill="none" stroke="#7eacda" stroke-miterlimit="10" stroke-width="0.614"/>
      <line id="Línea_3539" data-name="Línea 3539" x2="5.992" y2="4.028" transform="translate(241.588 295.083)" fill="none" stroke="#7eacda" stroke-miterlimit="10" stroke-width="0.614"/>
      <line id="Línea_3540" data-name="Línea 3540" x1="2.665" y2="9.558" transform="translate(224.476 313.018)" fill="none" stroke="#7eacda" stroke-miterlimit="10" stroke-width="0.614"/>
      <line id="Línea_3541" data-name="Línea 3541" x1="7.654" y2="2.965" transform="translate(222.812 294.122)" fill="none" stroke="#7eacda" stroke-miterlimit="10" stroke-width="0.614"/>
      <line id="Línea_3542" data-name="Línea 3542" y2="5.411" transform="translate(239.584 274.785)" fill="none" stroke="#7eacda" stroke-miterlimit="10" stroke-width="0.614"/>
      <line id="Línea_3543" data-name="Línea 3543" x1="2.886" y2="4.629" transform="translate(246.036 259.496)" fill="none" stroke="#7eacda" stroke-miterlimit="10" stroke-width="0.614"/>
      <line id="Línea_3544" data-name="Línea 3544" x2="1.101" y2="6.432" transform="translate(267.598 278.672)" fill="none" stroke="#7eacda" stroke-miterlimit="10" stroke-width="0.614"/>
      <line id="Línea_3545" data-name="Línea 3545" x1="5.891" transform="translate(241.588 310.573)" fill="none" stroke="#7eacda" stroke-miterlimit="10" stroke-width="0.614"/>
      <line id="Línea_3546" data-name="Línea 3546" x1="5.69" y2="3.106" transform="translate(209.988 332.795)" fill="none" stroke="#7eacda" stroke-miterlimit="10" stroke-width="0.614"/>
      <line id="Línea_3547" data-name="Línea 3547" x1="2.846" y2="3.567" transform="translate(209.987 309.451)" fill="none" stroke="#7eacda" stroke-miterlimit="10" stroke-width="0.614"/>
      <line id="Línea_3548" data-name="Línea 3548" x1="7.154" transform="translate(198.546 301.235)" fill="none" stroke="#7eacda" stroke-miterlimit="10" stroke-width="0.614"/>
      <line id="Línea_3549" data-name="Línea 3549" x2="8.215" y2="1.783" transform="translate(189.348 311.234)" fill="none" stroke="#7eacda" stroke-miterlimit="10" stroke-width="0.614"/>
      <line id="Línea_3550" data-name="Línea 3550" x1="5.33" y2="5.992" transform="translate(192.234 320.352)" fill="none" stroke="#7eacda" stroke-miterlimit="10" stroke-width="0.614"/>
      <line id="Línea_3551" data-name="Línea 3551" x2="7.114" y2="4.889" transform="translate(182.235 334.358)" fill="none" stroke="#7eacda" stroke-miterlimit="10" stroke-width="0.614"/>
      <line id="Línea_3552" data-name="Línea 3552" x1="5.33" y2="5.571" transform="translate(173.118 317.787)" fill="none" stroke="#7eacda" stroke-miterlimit="10" stroke-width="0.614"/>
      <line id="Línea_3553" data-name="Línea 3553" x2="5.511" y2="3.326" transform="translate(163.158 334.358)" fill="none" stroke="#7eacda" stroke-miterlimit="10" stroke-width="0.614"/>
      <line id="Línea_3554" data-name="Línea 3554" x1="4.85" y2="6.993" transform="translate(150.634 323.357)" fill="none" stroke="#7eacda" stroke-miterlimit="10" stroke-width="0.614"/>
      <line id="Línea_3555" data-name="Línea 3555" x2="6.552" y2="1.783" transform="translate(139.113 335.901)" fill="none" stroke="#7eacda" stroke-miterlimit="10" stroke-width="0.614"/>
      <line id="Línea_3556" data-name="Línea 3556" x1="10.46" y2="4.228" transform="translate(130.436 307.908)" fill="none" stroke="#7eacda" stroke-miterlimit="10" stroke-width="0.614"/>
      <line id="Línea_3557" data-name="Línea 3557" x2="5.33" y2="2.225" transform="translate(121.118 320.352)" fill="none" stroke="#7eacda" stroke-miterlimit="10" stroke-width="0.614"/>
      <line id="Línea_3558" data-name="Línea 3558" x2="4.708" transform="translate(109.997 326.343)" fill="none" stroke="#7eacda" stroke-miterlimit="10" stroke-width="0.614"/>
      <line id="Línea_3559" data-name="Línea 3559" x1="7.334" y2="5.951" transform="translate(133.562 326.844)" fill="none" stroke="#7eacda" stroke-miterlimit="10" stroke-width="0.614"/>
      <line id="Línea_3560" data-name="Línea 3560" x2="8.015" y2="3.767" transform="translate(108.654 336.803)" fill="none" stroke="#7eacda" stroke-miterlimit="10" stroke-width="0.614"/>
      <line id="Línea_3561" data-name="Línea 3561" y2="7.334" transform="translate(167.747 303.239)" fill="none" stroke="#7eacda" stroke-miterlimit="10" stroke-width="0.614"/>
      <line id="Línea_3562" data-name="Línea 3562" x2="3.567" y2="3.326" transform="translate(87.313 325.021)" fill="none" stroke="#7eacda" stroke-miterlimit="10" stroke-width="0.614"/>
      <line id="Línea_3563" data-name="Línea 3563" x1="4.669" y2="1.002" transform="translate(89.097 337.685)" fill="none" stroke="#7eacda" stroke-miterlimit="10" stroke-width="0.614"/>
      <line id="Línea_3564" data-name="Línea 3564" x2="3.547" y2="6.212" transform="translate(76.433 334.358)" fill="none" stroke="#7eacda" stroke-miterlimit="10" stroke-width="0.614"/>
      <path id="Trazado_996788" data-name="Trazado 996788" d="M106.445,280.633c-22.222,9.037-40.2,21.421-50,33.284,15.289,1.664,36.81-2,59.032-11.041s40.2-21.421,50-33.284c-15.288-1.664-36.81,2-59.032,11.041" transform="translate(-38.268 16.154)" fill="#f4b400"/>
      <line id="Línea_3565" data-name="Línea 3565" x1="109.008" y2="44.324" transform="translate(18.201 285.746)" fill="none" stroke="#fff" stroke-miterlimit="10" stroke-width="0.614"/>
      <path id="Trazado_996789" data-name="Trazado 996789" d="M85.4,215.073S75.625,257.9,73.181,282.121" transform="translate(-36.984 12.001)" fill="none" stroke="#040d1a" stroke-miterlimit="10" stroke-width="0.8"/>
      <path id="Trazado_996790" data-name="Trazado 996790" d="M86.044,227.753a16.749,16.749,0,0,0-5.01,6.893,16.769,16.769,0,0,0,7.514-4.008,16.621,16.621,0,0,0,5.01-6.893,16.812,16.812,0,0,0-7.514,4.008" transform="translate(-36.382 12.666)" fill="#83afda"/>
      <path id="Trazado_996791" data-name="Trazado 996791" d="M82.21,247.462a16.749,16.749,0,0,0-5.01,6.893,16.79,16.79,0,0,0,7.514-4.008,16.749,16.749,0,0,0,5.01-6.893,16.791,16.791,0,0,0-7.514,4.008" transform="translate(-36.676 14.178)" fill="#83afda"/>
      <path id="Trazado_996792" data-name="Trazado 996792" d="M75.387,233.78a13.6,13.6,0,0,0,3.987,5.69,15.506,15.506,0,0,0-5.09-12.544,13.667,13.667,0,0,0,1.1,6.853" transform="translate(-36.907 12.91)" fill="#83afda"/>
      <path id="Trazado_996793" data-name="Trazado 996793" d="M70.265,252.165a18.732,18.732,0,0,0,5.471,7.815,18.5,18.5,0,0,0-1.524-9.418,18.741,18.741,0,0,0-5.47-7.815,18.484,18.484,0,0,0,1.522,9.418" transform="translate(-37.335 14.124)" fill="#83afda"/>
      <path id="Trazado_996794" data-name="Trazado 996794" d="M87.538,215.347a2.545,2.545,0,1,1-2.545-2.545,2.549,2.549,0,0,1,2.545,2.545" transform="translate(-36.273 11.827)" fill="#5bb25e"/>
      <path id="Trazado_996795" data-name="Trazado 996795" d="M84.108,241.716a1.2,1.2,0,1,1-1.2-1.2,1.207,1.207,0,0,1,1.2,1.2" transform="translate(-36.33 13.953)" fill="#5bb25e"/>
      <path id="Trazado_996796" data-name="Trazado 996796" d="M75.6,242.747a1.864,1.864,0,1,1-1.864,1.864,1.865,1.865,0,0,1,1.864-1.864" transform="translate(-36.942 14.124)" fill="#5bb25e"/>
      <path id="Trazado_996797" data-name="Trazado 996797" d="M73.144,260.771a1.185,1.185,0,0,1-1.182,1.182,1.182,1.182,0,1,1,1.182-1.182" transform="translate(-37.169 15.416)" fill="#5bb25e"/>
      <path id="Trazado_996798" data-name="Trazado 996798" d="M78.943,226.053a1.2,1.2,0,1,1-1.2,1.2,1.2,1.2,0,0,1,1.2-1.2" transform="translate(-36.635 12.843)" fill="#5bb25e"/>
      <path id="Trazado_996799" data-name="Trazado 996799" d="M85.8,223.224a.541.541,0,1,1-.542.541.541.541,0,0,1,.542-.541" transform="translate(-36.058 12.626)" fill="#5bb25e"/>
      <path id="Trazado_996800" data-name="Trazado 996800" d="M106.217,219.918a16.749,16.749,0,0,0-5.01,6.893,18.993,18.993,0,0,0,12.524-10.9,16.79,16.79,0,0,0-7.514,4.008" transform="translate(-34.834 12.065)" fill="#83afda"/>
      <path id="Trazado_996801" data-name="Trazado 996801" d="M113.345,203.337a16.75,16.75,0,0,0-5.01,6.893,18.993,18.993,0,0,0,12.524-10.9,16.79,16.79,0,0,0-7.514,4.008" transform="translate(-34.287 10.793)" fill="#83afda"/>
      <path id="Trazado_996802" data-name="Trazado 996802" d="M99.213,209.852c.581,5.169,2.244,9.578,4.328,12.264,1.422-3.086,2.044-7.756,1.462-12.925s-2.244-9.578-4.327-12.264c-1.423,3.086-2.045,7.755-1.463,12.925" transform="translate(-35.004 10.609)" fill="#83afda"/>
      <path id="Trazado_996803" data-name="Trazado 996803" d="M109.443,194.832a14,14,0,0,0,2.385,6.773,16.108,16.108,0,0,0-1.584-13.926,13.972,13.972,0,0,0-.8,7.154" transform="translate(-34.212 9.899)" fill="#83afda"/>
      <path id="Trazado_996804" data-name="Trazado 996804" d="M118.349,191.531S103.241,222.229,93,251.405" transform="translate(-35.464 10.195)" fill="none" stroke="#040d1a" stroke-miterlimit="10" stroke-width="0.8"/>
      <path id="Trazado_996805" data-name="Trazado 996805" d="M119.344,191.47a2.284,2.284,0,1,1-2.285-2.285,2.284,2.284,0,0,1,2.285,2.285" transform="translate(-33.793 10.015)" fill="#5bb25e"/>
      <path id="Trazado_996806" data-name="Trazado 996806" d="M116.418,198.847a.561.561,0,1,1-.561-.561.573.573,0,0,1,.561.561" transform="translate(-33.753 10.713)" fill="#5bb25e"/>
      <path id="Trazado_996807" data-name="Trazado 996807" d="M107.185,202.373a1.2,1.2,0,1,1-1.2-1.2,1.207,1.207,0,0,1,1.2,1.2" transform="translate(-34.56 10.934)" fill="#5bb25e"/>
      <path id="Trazado_996808" data-name="Trazado 996808" d="M111.085,212.735a1.142,1.142,0,0,1-1.142,1.142,1.142,1.142,0,1,1,1.142-1.142" transform="translate(-34.252 11.734)" fill="#5bb25e"/>
      <path id="Trazado_996809" data-name="Trazado 996809" d="M98.583,220.321a1.563,1.563,0,1,1-1.563,1.563,1.563,1.563,0,0,1,1.563-1.563" transform="translate(-35.155 12.403)" fill="#5bb25e"/>
      <line id="Línea_3566" data-name="Línea 3566" x2="34.887" transform="translate(224.475 212.325)" fill="none" stroke="#fff" stroke-linecap="round" stroke-linejoin="round" stroke-width="1.247"/>
      <line id="Línea_3567" data-name="Línea 3567" x2="35.888" transform="translate(204.878 215.371)" fill="none" stroke="#fff" stroke-linecap="round" stroke-linejoin="round" stroke-width="1.247"/>
      <line id="Línea_3568" data-name="Línea 3568" x2="14.608" transform="translate(234.314 218.778)" fill="none" stroke="#fff" stroke-linecap="round" stroke-linejoin="round" stroke-width="1.247"/>
      <line id="Línea_3569" data-name="Línea 3569" x2="44.464" transform="translate(148.07 222.024)" fill="none" stroke="#fff" stroke-linecap="round" stroke-linejoin="round" stroke-width="1.247"/>
      <line id="Línea_3570" data-name="Línea 3570" x2="21.641" transform="translate(139.333 224.849)" fill="none" stroke="#fff" stroke-linecap="round" stroke-linejoin="round" stroke-width="1.247"/>
      <line id="Línea_3571" data-name="Línea 3571" x2="14.408" transform="translate(155.003 227.515)" fill="none" stroke="#fff" stroke-linecap="round" stroke-linejoin="round" stroke-width="1.247"/>
      <line id="Línea_3572" data-name="Línea 3572" x2="10.22" transform="translate(131.638 233.145)" fill="none" stroke="#fff" stroke-linecap="round" stroke-linejoin="round" stroke-width="1.247"/>
      <line id="Línea_3573" data-name="Línea 3573" x2="20.319" transform="translate(127.21 214.329)" fill="none" stroke="#fff" stroke-linecap="round" stroke-linejoin="round" stroke-width="1.247"/>
      <line id="Línea_3574" data-name="Línea 3574" x2="48.532" transform="translate(224.475 235.85)" fill="none" stroke="#fff" stroke-linecap="round" stroke-linejoin="round" stroke-width="1.247"/>
      <line id="Línea_3575" data-name="Línea 3575" x2="23.405" transform="translate(260.264 231.662)" fill="none" stroke="#fff" stroke-linecap="round" stroke-linejoin="round" stroke-width="1.247"/>
      <path id="Trazado_996810" data-name="Trazado 996810" d="M301.294,40.818l14.368-15.269L306.2,12.163S293.559,11.2,260.9,38.414c-32.682,27.212-44.825,92.958-44.825,92.958L233.084,113.3,231.9,98.107l3.968,12.243,23.2-24.647L251.6,70.9l12.2,9.779,20.88-22.183L272.84,46.79l16.672,6.572,9.2-9.758-8.276-6.993,10.881,4.228Z" transform="translate(-26.022 -3.567)" fill="#105814"/>
      <line id="Línea_3576" data-name="Línea 3576" x2="14.648" y2="10.48" transform="translate(264.612 22.543)" fill="none" stroke="#040d1a" stroke-miterlimit="10" stroke-width="0.782"/>
      <line id="Línea_3577" data-name="Línea 3577" x2="15.469" y2="15.369" transform="translate(232.972 50.397)" fill="none" stroke="#040d1a" stroke-miterlimit="10" stroke-width="0.782"/>
      <line id="Línea_3578" data-name="Línea 3578" x2="4.408" y2="17.673" transform="translate(214.657 79.292)" fill="none" stroke="#040d1a" stroke-miterlimit="10" stroke-width="0.782"/>
      <line id="Línea_3579" data-name="Línea 3579" x2="3.065" y2="7.174" transform="translate(220.147 85.383)" fill="none" stroke="#040d1a" stroke-miterlimit="10" stroke-width="0.782"/>
      <line id="Línea_3580" data-name="Línea 3580" x2="11.261" y2="11.562" transform="translate(241.488 49.635)" fill="none" stroke="#040d1a" stroke-miterlimit="10" stroke-width="0.782"/>
      <path id="Trazado_996811" data-name="Trazado 996811" d="M310.285,21.468s-32.362,33.363-19.116,81.115L316.918,26.3l-6.653-4.829Z" transform="translate(-20.505 -2.853)" fill="#105814"/>
      <line id="Línea_3581" data-name="Línea 3581" x2="5.651" y2="3.367" transform="translate(286.253 33.464)" fill="none" stroke="#040d1a" stroke-miterlimit="10" stroke-width="0.912"/>
      <line id="Línea_3582" data-name="Línea 3582" x2="4.108" y2="13.546" transform="translate(271.926 70.295)" fill="none" stroke="#040d1a" stroke-miterlimit="10" stroke-width="0.912"/>
      <line id="Línea_3583" data-name="Línea 3583" x2="6.032" y2="2.565" transform="translate(279.26 53.843)" fill="none" stroke="#040d1a" stroke-miterlimit="10" stroke-width="0.912"/>
      <path id="Trazado_996812" data-name="Trazado 996812" d="M156.313,67.66c-10.661-5.129-13.566.782-13.566.782,6.452-.642,13.566,5.269,13.566,5.269s7.113-5.911,13.566-5.269c0,0-2.885-5.911-13.566-.782" transform="translate(-31.647 0.531)" fill="#f4b400"/>
      <path id="Trazado_996813" data-name="Trazado 996813" d="M146.566,39.522c-8.055-3.868-10.24.581-10.24.581,4.87-.481,10.24,3.968,10.24,3.968s5.371-4.469,10.24-3.968c0,0-2.185-4.468-10.24-.581" transform="translate(-32.14 -1.589)" fill="#f4b400"/>
      <path id="Trazado_996814" data-name="Trazado 996814" d="M340.336,180.342s-10.721,5.05-15.811,6.853-11.983-1.743-18.856-1.524-5.771,2.966-13.786,2.045c-8-.922-17.854-3.588-25.048-2.485-4.749-6.893-13.847-3.547-13.847-3.547s-11.021-5.771-17.072.221c-6.493-2-14.128,1.483-16.092,5.29-2.625-1.964-6.633-3.527-10.179-5.29s-4.949-10.661-9.377-10.661-3.367,6.452-6.893,8.336-11.743,1.662-15.189,5.45c0,0-13.445-2.445-15.669,2.886,0,0-29.877-1.343-31.16,8.436H339.133l1.223-16.011Z" transform="translate(-32.521 8.638)" fill="#5bb25e"/>
      <path id="Trazado_996815" data-name="Trazado 996815" d="M293.119,140.892l19.7,90.693,6.672-30.679Z" transform="translate(-20.111 6.31)" fill="#040d1a"/>
      <path id="Trazado_996816" data-name="Trazado 996816" d="M293.479,136.555a3.226,3.226,0,1,1-3.226,3.226,3.225,3.225,0,0,1,3.226-3.226" transform="translate(-20.331 5.977)" fill="#f4b400"/>
      <path id="Trazado_996817" data-name="Trazado 996817" d="M300.573,143.651a2.164,2.164,0,1,1-2.164-2.164,2.155,2.155,0,0,1,2.164,2.164" transform="translate(-19.871 6.355)" fill="#f4b400"/>
      <path id="Trazado_996818" data-name="Trazado 996818" d="M293.8,143.586l-29.456,24.186s.44-13.786,9.558-21.121,19.9-3.086,19.9-3.086Z" transform="translate(-22.318 6.421)" fill="#f4b400"/>
      <path id="Trazado_996819" data-name="Trazado 996819" d="M293.21,147.387l-7.334,27.793a21.723,21.723,0,0,1,7.334-27.773Z" transform="translate(-20.843 6.808)" fill="#f4b400"/>
      <path id="Trazado_996820" data-name="Trazado 996820" d="M298.255,140.34l26.951,2.465a19.277,19.277,0,0,0-11.342-6.251C306.31,135.21,298.255,140.34,298.255,140.34Z" transform="translate(-19.717 5.96)" fill="#f4b400"/>
      <path id="Trazado_996821" data-name="Trazado 996821" d="M297.62,139.6l20.7-22.663s-8.2-2.886-16.171,5.109A17.492,17.492,0,0,0,297.62,139.6" transform="translate(-19.822 4.433)" fill="#f4b400"/>
      <path id="Trazado_996822" data-name="Trazado 996822" d="M290.251,141.137l-23.224-8.115s11-3.106,16.772-.661,6.452,8.776,6.452,8.776" transform="translate(-22.113 5.583)" fill="#f4b400"/>
      <path id="Trazado_996823" data-name="Trazado 996823" d="M292.98,136.486l-3.547-28.013s-3.787,8.9-2.665,16.791S293,136.486,293,136.486Z" transform="translate(-20.614 3.822)" fill="#f4b400"/>
      <path id="Trazado_996824" data-name="Trazado 996824" d="M90.109,253.854c-19.677,24.647-32.322,50.4-35.948,70.294,18.6-7.934,40.919-25.969,60.6-50.617s32.322-50.4,35.948-70.294C132.109,211.172,109.786,229.206,90.109,253.854Z" transform="translate(-38.444 11.093)" fill="#f4b400"/>
      <line id="Línea_3584" data-name="Línea 3584" x1="96.544" y2="120.91" transform="translate(15.717 214.329)" fill="none" stroke="#fff" stroke-miterlimit="10" stroke-width="0.614"/>
      <path id="Trazado_996825" data-name="Trazado 996825" d="M56.756,220.479c-5.31,17.654-6.572,34.366-4.208,45.927,8.355-8.336,16.531-22.984,21.841-40.617,5.31-17.654,6.573-34.366,4.208-45.927C70.242,188.2,62.067,202.846,56.756,220.479Z" transform="translate(-38.655 9.299)" fill="#f4b400"/>
      <line id="Línea_3585" data-name="Línea 3585" x1="26.05" y2="86.546" transform="translate(13.913 189.161)" fill="none" stroke="#fff" stroke-miterlimit="10" stroke-width="0.614"/>
    </g>
  </g>
  <g id="Grupo_1179472" data-name="Grupo 1179472">
    <g id="Grupo_1179471" data-name="Grupo 1179471" clip-path="url(#clip-path-2)">
      <path id="Trazado_996827" data-name="Trazado 996827" d="M271.39,287.1c-2.062-10.745-4.93-28.155,2.514-36.032,0,0,11.976-4.194,16.14-3.115,0,0-11.184,6.791-9.712,23.293s11.055,5.765,10.065-4.365,9.422-18.262,9.422-18.262l.058,0a22,22,0,0,1,3.709,1.054c1.122.411,2.245.764,3.37,1.164a48.9,48.9,0,0,1,6.712,3.182,9.979,9.979,0,0,0,4.924,1.545,7.394,7.394,0,0,0,2-.3c.136-.037.693-.153,1.1-.281l.451-.232c-.008.036-.009.082-.018.122a6.349,6.349,0,0,0,.454,2.975c1.036,2.944,3.286,5.262,5.032,7.8a40.277,40.277,0,0,1,4.467,8.263c.062.178.56,1.106.465,1.287,0,0-6.089,11.647-16.342,12.626s-19.082,12.348-2.405,10.6,21.281-13.885,21.281-13.885c1.867,3.825,0,16.246,0,16.246-6.4,8.72-24.255,9.291-35.319,9.349s-7.288,2.507-4.986,5.193,9.472.631,21.137-2.075a68.127,68.127,0,0,0,20.585-8.782c-1.006,9.408-4.74,21.613-8.151,23.566s-3.378.354-15.6,1.784-20.33-4.222-26.626-3.371,7.6,5.833,15.1,6.9,10.454,3.122,16.472,1.9a102.419,102.419,0,0,1,11.255-1.617C323.3,342.088,315.993,349.77,312,351.5s-7.665-3.166-14.443-4.994-7.967-4.286-13.8-5.638,3.758,8.391,12.367,12.039c8.412,3.562,12.783,1.72,12.976,1.636-7.464,8.158-12.174,10.119-30.168,8.054-18.009-2.064-21.82-17.345-19.789-25.864,1.157-4.876,1.1-6.4.84-6.81-.185-.28-.454-.045-.505-.007.089-.156.463-.98-2.236-.129a44.4,44.4,0,0,0-4.483,1.78c-8.071,3.6-23.995,2.846-29.5-14.212s-4.459-21.983,2.213-30.778c-.045.2-1.033,4.79,4.122,12.253,5.28,7.645,16.8,15.074,14.34,9.68s-5.131-6.081-8.253-12.3-8.7-8.84-7.741-13.039,7.185-12.76,14.5-19.855A97.221,97.221,0,0,1,243,274.538c-.064,6.067,2.534,8.533,5.048,15.592,2.5,7.074,10.12,19.6,9.765,13.323-.374-6.272-7.532-13.043-8.464-25.163s-2.516-11.776-1.226-15.457,12.695-9.642,21.849-12.424a66.187,66.187,0,0,0-4.775,21.638c-.454,11.83-1.119,19.153,2,20.881s6.269,4.9,4.211-5.826Z" transform="translate(16.856 19.009)" fill="#2871c5"/>
      <path id="Trazado_996828" data-name="Trazado 996828" d="M254.563,328.74c7.794-13.955,54.255-64.112,57.26-67.35-13.615,15.678-54.523,67.484-54.523,67.484-.185-.28-.453-.045-.505-.006.09-.156.463-.981-2.236-.129Z" transform="translate(19.53 20.054)" fill="#1c6ac2"/>
      <path id="Trazado_996829" data-name="Trazado 996829" d="M323.538,212.29l.562-.491,13.4,15.084-.562.492Z" transform="translate(24.822 16.249)" fill="#e7b899"/>
      <path id="Trazado_996830" data-name="Trazado 996830" d="M343.881,223.18a7.938,7.938,0,1,1-10.971,2.741,8,8,0,0,1,10.971-2.741" transform="translate(25.457 17.035)" fill="#307e34"/>
      <path id="Trazado_996831" data-name="Trazado 996831" d="M312.536,214.216l26.657-21.282.474.581L313.01,214.8Z" transform="translate(23.978 14.802)" fill="#e7b899"/>
      <path id="Trazado_996832" data-name="Trazado 996832" d="M332.142,199.068a7.909,7.909,0,0,1,.648-11.241,8.082,8.082,0,0,1,11.332.794,7.907,7.907,0,0,1-.648,11.24,8.081,8.081,0,0,1-11.332-.792" transform="translate(25.326 14.26)" fill="#e7b899"/>
      <path id="Trazado_996833" data-name="Trazado 996833" d="M251.2,228.9l-.319-.678C296.3,207.762,367.186,211.4,367.895,211.446l-.034.745c-.711-.039-71.412-3.669-116.667,16.717Z" transform="translate(19.247 16.201)" fill="#e7b899"/>
      <path id="Trazado_996834" data-name="Trazado 996834" d="M354.127,217.56a7.909,7.909,0,0,1,.648-11.241,8.082,8.082,0,0,1,11.332.794,7.907,7.907,0,0,1-.648,11.24A8.081,8.081,0,0,1,354.127,217.56Z" transform="translate(27.012 15.679)" fill="#e7b899"/>
      <path id="Trazado_996835" data-name="Trazado 996835" d="M313.561,163.538l.716-.212,3.759,12.039-.715.212Z" transform="translate(24.056 12.53)" fill="#e7b899"/>
      <path id="Trazado_996836" data-name="Trazado 996836" d="M307.763,162.223a5.883,5.883,0,0,0,7.258,3.878,5.671,5.671,0,0,0,3.811-7.153,5.884,5.884,0,0,0-7.258-3.878,5.672,5.672,0,0,0-3.811,7.153" transform="translate(23.591 11.879)" fill="#e7b899"/>
      <path id="Trazado_996837" data-name="Trazado 996837" d="M312.434,181.258l23.94-6.746.213.717-23.94,6.745Z" transform="translate(23.97 13.389)" fill="#e7b899"/>
      <path id="Trazado_996838" data-name="Trazado 996838" d="M329.672,177a5.883,5.883,0,0,0,7.258,3.878,5.672,5.672,0,0,0,3.811-7.153,5.884,5.884,0,0,0-7.258-3.878,5.671,5.671,0,0,0-3.81,7.153" transform="translate(25.272 13.012)" fill="#307e34"/>
      <path id="Trazado_996839" data-name="Trazado 996839" d="M286.768,221.706l-.6-.451c22.412-29.865,48.363-66.458,48.622-66.823l.617.435c-.259.366-26.22,36.967-48.637,66.84" transform="translate(21.955 11.848)" fill="#e7b899"/>
      <path id="Trazado_996840" data-name="Trazado 996840" d="M326.487,156.684a5.884,5.884,0,0,0,7.258,3.878,5.671,5.671,0,0,0,3.81-7.153,5.884,5.884,0,0,0-7.258-3.878,5.671,5.671,0,0,0-3.811,7.153" transform="translate(25.028 11.454)" fill="#e7b899"/>
      <path id="Trazado_996841" data-name="Trazado 996841" d="M25.444,233.573l11.3-12.545.466.413-11.3,12.545Z" transform="translate(1.952 16.957)" fill="#e7b899"/>
      <path id="Trazado_996842" data-name="Trazado 996842" d="M28.56,240.658a6.623,6.623,0,0,0-.478-9.413,6.764,6.764,0,0,0-9.488.6,6.624,6.624,0,0,0,.478,9.413,6.763,6.763,0,0,0,9.488-.6" transform="translate(1.293 17.613)" fill="#307e34"/>
      <path id="Trazado_996843" data-name="Trazado 996843" d="M24.618,205.821l.4-.487L47.206,223.3l-.4.486Z" transform="translate(1.889 15.753)" fill="#e7b899"/>
      <path id="Trazado_996844" data-name="Trazado 996844" d="M30.209,210.391a6.623,6.623,0,0,0-.478-9.413,6.766,6.766,0,0,0-9.489.6,6.623,6.623,0,0,0,.479,9.413,6.763,6.763,0,0,0,9.488-.6" transform="translate(1.42 15.291)" fill="#e7b899"/>
      <path id="Trazado_996845" data-name="Trazado 996845" d="M103.8,235.872l.27-.57c-37.9-17.389-97.241-14.754-97.837-14.721l.02.623C6.846,221.177,66.037,218.545,103.8,235.872Z" transform="translate(0.478 16.911)" fill="#e7b899"/>
      <path id="Trazado_996846" data-name="Trazado 996846" d="M11.7,225.743a6.623,6.623,0,0,0-.478-9.413,6.764,6.764,0,0,0-9.488.6,6.624,6.624,0,0,0,.478,9.413,6.763,6.763,0,0,0,9.488-.6" transform="translate(0 16.469)" fill="#e7b899"/>
      <path id="Trazado_996847" data-name="Trazado 996847" d="M41.415,190.542l3.216-10.053.6.182-3.216,10.053Z" transform="translate(3.177 13.847)" fill="#e7b899"/>
      <path id="Trazado_996848" data-name="Trazado 996848" d="M50.555,179.7a4.922,4.922,0,0,1-6.094,3.2,4.75,4.75,0,0,1-3.149-6.008,4.923,4.923,0,0,1,6.1-3.2A4.752,4.752,0,0,1,50.555,179.7Z" transform="translate(3.152 13.309)" fill="#e7b899"/>
      <path id="Trazado_996849" data-name="Trazado 996849" d="M27.159,190.533l.183-.6,20,5.784-.183.6Z" transform="translate(2.084 14.572)" fill="#e7b899"/>
      <path id="Trazado_996850" data-name="Trazado 996850" d="M32.136,191.938a4.922,4.922,0,0,1-6.094,3.2,4.75,4.75,0,0,1-3.149-6.008,4.923,4.923,0,0,1,6.1-3.2A4.752,4.752,0,0,1,32.136,191.938Z" transform="translate(1.739 14.248)" fill="#307e34"/>
      <path id="Trazado_996851" data-name="Trazado 996851" d="M70.029,229.621l.508-.376c-18.583-25.124-40.092-55.9-40.307-56.2l-.519.357c.216.306,21.729,31.088,40.316,56.22Z" transform="translate(2.279 13.276)" fill="#e7b899"/>
      <path id="Trazado_996852" data-name="Trazado 996852" d="M34.922,174.952a4.922,4.922,0,0,1-6.094,3.2,4.75,4.75,0,0,1-3.149-6.008,4.923,4.923,0,0,1,6.1-3.2,4.752,4.752,0,0,1,3.148,6.009" transform="translate(1.952 12.945)" fill="#e7b899"/>
      <path id="Trazado_996853" data-name="Trazado 996853" d="M68.659,302.9c-13.26-1.037-34.6-3.266-41.541-14.284,0,0-1.213-15.037,1.347-19.463,0,0,4.514,14.951,24.345,18.492s10.2-10.834-2.011-12.9-18.53-16.565-18.53-16.565a.537.537,0,0,1,.025-.066,25.807,25.807,0,0,1,2.386-3.914c.836-1.155,1.592-2.327,2.411-3.491a57.251,57.251,0,0,1,5.82-6.675,11.69,11.69,0,0,0,3.341-5.147,8.5,8.5,0,0,0,.263-2.385c0-.168.037-.844.012-1.348l-.132-.59c.041.02.095.038.137.058a7.921,7.921,0,0,0,3.637.422c3.778-.254,7.2-2.1,10.728-3.29a49.766,49.766,0,0,1,11.085-2.5c.229-.016,1.472-.291,1.655-.123.009,0,11.792,10.654,9.768,22.7s8.591,25.749,11.705,6.109-9.714-28.757-9.714-28.757c5.067-.926,19.083,5.139,19.083,5.139,8.264,10.079,3.4,30.706.038,43.392s.686,9.138,4.556,7.351,3.678-10.641,4.111-24.855a79.742,79.742,0,0,0-3.932-26.343c10.736,4.126,23.913,12.268,25.151,16.791s-.631,3.979-2.739,18.414-11.256,21.938-12.212,29.412c-.955,7.491,9.207-6.854,12.79-15.1s6.913-10.981,7.332-18.258a117.592,117.592,0,0,1,1.587-13.4c8.181,9.146,14.939,19.943,15.737,25.065s-6.093,7.773-10.345,14.951-7.5,7.765-10.9,14.014,11.019-1.643,17.974-10.346c6.788-8.5,5.981-14.087,5.943-14.333,7.27,11.125,8.11,17.136.109,37.082s-27.134,19.489-36.512,14.469c-5.366-2.868-7.17-3.286-7.739-3.118-.387.123-.2.5-.163.574-.158-.152-1.01-.841-.844,2.52a51.627,51.627,0,0,0,.7,5.7c1.734,10.378-4.095,28.366-25.837,29.276-21.727.9-27.2-1.852-35.465-12.271.225.118,5.3,2.7,15.671-.84C80.1,350.844,92.4,340.007,85.3,341.112s-8.733,3.951-17,5.557-13.077,7.158-17.715,4.732-12.757-12.264-18.825-22.885A121.266,121.266,0,0,1,45.1,331.431c7.107,2,10.807-.2,19.876-.844,9.083-.627,26.149-5.385,18.676-6.958C76.175,322.072,66,328.12,51.48,325.354s-14.611-.848-18.535-3.486-7.391-17.587-7.822-28.945a82.252,82.252,0,0,0,23.933,12.313c13.754,4.262,22.15,7.343,25.144,4.327s7.7-5.626-5.541-6.663Z" transform="translate(1.927 17.574)" fill="#2871c5"/>
      <path id="Trazado_996854" data-name="Trazado 996854" d="M112.424,331.419c-13.974-13.342-58.483-82.4-61.36-86.867,14.2,20.548,62.366,83.773,62.366,83.773-.387.123-.195.5-.162.574C113.11,328.747,112.258,328.058,112.424,331.419Z" transform="translate(3.918 18.762)" fill="#1c6ac2"/>
      <path id="Trazado_996855" data-name="Trazado 996855" d="M269.735,356.665C250.985,383.543,155,378.348,138.983,364.7s-19.676-186.951,0-212.751,110.718-33.092,131.388,0c31.929,51.121,18.114,177.833-.636,204.711" transform="translate(9.633 9.957)" fill="#f05a2b"/>
      <path id="Trazado_996856" data-name="Trazado 996856" d="M269.735,355.807c-18.75,26.878-114.734,21.683-130.751,8.04s-19.676-186.951,0-212.751c22.4-12.891,103.317-16.988,113.58,9.065,21.183,53.772,20.527,182.413,17.172,195.646" transform="translate(9.633 10.815)" fill="#792d17"/>
      <path id="Trazado_996857" data-name="Trazado 996857" d="M243.46,180.824h0c-7.717-4.749-22.65-9.067-35.526-14.111l11.842-10.461s-28.026-23.713-75.987.4c-3.749,1.974,5.262,8.884,5.262,8.884-67.02,23.551-48.8,203.288-48.8,203.288,3.649,23.046,104.741,19.737,138.117,6.513,0,0,1.8-46.23,3.294-94.165l16.895,16.895s46.579-18.849,54.769-41.447c-26.643-32.94-69.865-75.787-69.868-75.79" transform="translate(7.518 11.188)" fill="#27a8e0"/>
      <path id="Trazado_996858" data-name="Trazado 996858" d="M142.634,373.988c-22.938-1.711-40.885-6.731-42.383-16.2a588.909,588.909,0,0,1-2.093-66.171l2.3-2.044a180.941,180.941,0,0,1,13.53,18.611l-11.234,12.556,2.7,1.357,11.064-9.862c2.7,4.427,5.357,9.1,7.9,13.946l-10.991,12.288,2.7,1.353,10.49-9.347a206.646,206.646,0,0,1,12.855,31.482,117.512,117.512,0,0,1,3.161,12.03" transform="translate(7.518 22.216)" fill="#7ecbeb"/>
      <path id="Trazado_996859" data-name="Trazado 996859" d="M223.75,305l-12.9,1.76L212,309.47l11.5-.261c-.285,3.975-.726,8.145-1.313,12.45l-16.23,2.216,1.147,2.7,14.405-.324c-.789,4.981-1.769,10.108-2.943,15.3l-15.882,2.165,1.147,2.7,13.657-.307v.005a211.821,211.821,0,0,1-7.938,25.546,301.6,301.6,0,0,1-36.206,3.954,149.724,149.724,0,0,1,1.244-15.281l8.5,4.7,2.27-1.864-10.147-7.215c.939-6.093,2.227-12.561,3.882-19.288,1.371-5.566,2.913-10.992,4.583-16.189l9.136,5.053,2.271-1.864-10.089-7.173q1.454-4.254,3-8.246l10.277,5.684,2.271-1.866-10.959-7.791a148.523,148.523,0,0,1,7.124-15l8.575,4.743,2.27-1.866-8.865-6.3c6-9.914,12.024-15.538,16.805-14.361,5.192,1.277,7.957,10.344,8.362,23.6l-13.378,1.825,1.146,2.7,12.28-.277c-.012,1.822-.061,3.707-.153,5.645" transform="translate(13.299 20.818)" fill="#52bae6"/>
      <path id="Trazado_996860" data-name="Trazado 996860" d="M191.91,322.1l-17,5.576,1.8,2.738,14.934-3.087v.005a224.353,224.353,0,0,1-5.018,36.557l-15.2,4.986,1.8,2.739,12.1-2.5c-.761,2.837-1.575,5.512-2.431,8-10.607.784-21.551,1.085-31.939.826a144.455,144.455,0,0,1-3.552-26.358l10.279,3.448,2.118-2.5-12.6-5.881c-.2-6.879-.085-14.239.38-21.961.382-6.387.983-12.656,1.769-18.7l11.049,3.707,2.118-2.506L150,301.347c.493-3.306,1.038-6.53,1.633-9.654l12.432,4.17,2.118-2.506-13.6-6.349a166.416,166.416,0,0,1,4.8-17.9l10.372,3.481,2.118-2.5-11.005-5.138c4.6-12.1,10.075-19.483,15.56-19.154,5.961.356,10.822,9.754,13.935,24.234l-14.32,4.7,1.8,2.741,13.428-2.777q.533,3,.97,6.229l-13.811,4.53,1.8,2.741,12.581-2.6c.485,4.421.844,9.086,1.063,13.934l-17.373,5.7,1.8,2.738L192.06,304.7c.136,5.626.092,11.456-.15,17.4" transform="translate(11.287 18.857)" fill="#7ecbeb"/>
      <path id="Trazado_996861" data-name="Trazado 996861" d="M163.771,377.041a249.342,249.342,0,0,1-29.857-1.387,145.6,145.6,0,0,1-7.585-17.351l9.9.235,1.171-2.754-12.573-1.73c-2.03-5.948-3.918-12.4-5.6-19.256-1.39-5.675-2.558-11.308-3.5-16.786l10.637.252,1.174-2.759-12.5-1.718c-.462-3.016-.858-5.978-1.179-8.862l11.967.282,1.17-2.755-13.577-1.868a152.087,152.087,0,0,1-.642-16.909l9.983.238,1.171-2.757-10.984-1.508c.742-11.792,3.527-19.716,8.4-20.909,5.294-1.3,12.071,5.59,18.694,17.378l-11.224,7.96,2.312,1.9,10.964-6.047q1.274,2.476,2.527,5.173l-10.822,7.68,2.312,1.9,10.269-5.665c1.617,3.724,3.189,7.7,4.69,11.87l-13.616,9.659,2.312,1.9,12.86-7.093c1.639,4.873,3.173,9.969,4.563,15.214l-13.323,9.451,2.315,1.9,12.191-6.725,0,.005a204.739,204.739,0,0,1,5.49,33.241L151.947,366.9l2.312,1.9,9.876-5.449a96.306,96.306,0,0,1-.363,13.683" transform="translate(8.649 19.838)" fill="#aadcf2"/>
      <path id="Trazado_996862" data-name="Trazado 996862" d="M144.073,375.7a.693.693,0,0,1-.691-.665c-.01-.267-1-27.08,1.2-63.225,2.036-33.37,7.295-81.752,20.776-122.743a.692.692,0,0,1,1.315.434C153.242,230.351,148,278.608,145.968,311.9c-2.2,36.078-1.213,62.821-1.2,63.087a.693.693,0,0,1-.665.719h-.027" transform="translate(10.982 14.469)"/>
      <path id="Trazado_996863" data-name="Trazado 996863" d="M182.542,134.464l6.048,31.954s-9.418,8.665-22.131,21.889c-7.021-17.418-6.484-17.977-6.484-17.977l-3.52-31.623Z" transform="translate(12.003 10.316)" fill="#f7b8b4"/>
      <path id="Trazado_996864" data-name="Trazado 996864" d="M158.845,160.185l-2.39-21.477,26.087-4.242L185,147.446c-3.6,12.757-18.337,14.237-26.154,12.739" transform="translate(12.003 10.316)" fill="#ed7287"/>
      <path id="Trazado_996865" data-name="Trazado 996865" d="M185.736,136.221l5.153-19.446a21.333,21.333,0,0,0-41.243-10.93l-5.153,19.446c-1.51,5.695-4.52,26.721,13.708,31.552,20.812,5.515,26.025-14.928,27.535-20.622" transform="translate(10.996 6.903)" fill="#f7b8b4"/>
      <path id="Trazado_996866" data-name="Trazado 996866" d="M147.89,116.168c-.357,1.391.128,2.718,1.084,2.963s2.022-.682,2.38-2.073-.128-2.718-1.084-2.963-2.022.682-2.38,2.073" transform="translate(11.337 8.75)"/>
      <path id="Trazado_996867" data-name="Trazado 996867" d="M162.52,119.93c-.357,1.391.129,2.718,1.085,2.963s2.021-.682,2.378-2.073-.127-2.718-1.083-2.963-2.023.682-2.381,2.073" transform="translate(12.46 9.039)"/>
      <path id="Trazado_996868" data-name="Trazado 996868" d="M171.2,113.757a.366.366,0,0,0,.121-.657,6.106,6.106,0,0,0-4.683-.86,6.538,6.538,0,0,0-3.716,2.944.367.367,0,0,0,.644.352,5.9,5.9,0,0,1,3.261-2.588,5.362,5.362,0,0,1,4.075.756.364.364,0,0,0,.3.054" transform="translate(12.496 8.598)"/>
      <path id="Trazado_996869" data-name="Trazado 996869" d="M156.3,114.232a.367.367,0,0,0,.622-.245,6.057,6.057,0,0,0-1.741-4.431,6.545,6.545,0,0,0-4.462-1.6.367.367,0,0,0,.04.732,5.9,5.9,0,0,1,3.92,1.405,5.5,5.5,0,0,1,1.51,3.859.366.366,0,0,0,.111.281" transform="translate(11.536 8.282)"/>
      <path id="Trazado_996870" data-name="Trazado 996870" d="M153.393,135.181a1.384,1.384,0,0,0,1.022-2.535,2.448,2.448,0,0,1-.941-2.125,6.629,6.629,0,0,1,3.194-5.406c3.421-2.11,3.5-11.048,3.478-12.818a1.384,1.384,0,0,0-2.768.03c.045,4.347-.769,9.572-2.163,10.431a9.5,9.5,0,0,0-4.508,7.775,5.067,5.067,0,0,0,2.276,4.482,1.416,1.416,0,0,0,.411.166" transform="translate(11.562 8.51)" fill="#ed7287"/>
      <path id="Trazado_996871" data-name="Trazado 996871" d="M191.877,129.448c16.4-24.154,3.577-33.351-2.961-34.068-9.48-26.634-52.374-12.293-40.006,9.893,1.669,2.992,27.052-8.6,31.182-.626-2.306,9.285,1.533,20.059,5.2,22.733.7,1.2,4.389,5.953,6.58,2.068" transform="translate(11.254 6.21)" fill="#f79420"/>
      <path id="Trazado_996872" data-name="Trazado 996872" d="M179.307,124.034c-1.051,4.078-.011,7.275,3.8,9.066,4.023,1.89,8.976,1.119,10.964-5.26a7.5,7.5,0,0,0-5.479-9.286,7.624,7.624,0,0,0-9.286,5.479" transform="translate(13.727 9.077)" fill="#f7b8b4"/>
      <path id="Trazado_996873" data-name="Trazado 996873" d="M184.562,124.436a4.974,4.974,0,0,0,.728,5.059c.494.267-.019-2.1,1.059-4.093s3.34-2.858,2.846-3.125a4.97,4.97,0,0,0-4.633,2.158" transform="translate(14.128 9.376)"/>
      <path id="Trazado_996874" data-name="Trazado 996874" d="M160.9,141l.07-.026a11.057,11.057,0,0,0,5.56-4.814.507.507,0,0,0-.9-.467,10.21,10.21,0,0,1-5.015,4.332,9.407,9.407,0,0,1-6.6-.21.507.507,0,0,0-.426.92A10.344,10.344,0,0,0,160.9,141" transform="translate(11.761 10.389)"/>
      <path id="Trazado_996875" data-name="Trazado 996875" d="M155.65,121.787a9.112,9.112,0,1,1-7.618-10.395,9.113,9.113,0,0,1,7.618,10.395" transform="translate(10.551 8.538)" fill="#f05a2b"/>
      <path id="Trazado_996876" data-name="Trazado 996876" d="M176.57,126.7a9.112,9.112,0,1,1-7.618-10.395A9.112,9.112,0,0,1,176.57,126.7" transform="translate(12.156 8.915)" fill="#f05a2b"/>
      <path id="Trazado_996877" data-name="Trazado 996877" d="M146.7,130.252a9.994,9.994,0,0,1-1.5-.114,9.807,9.807,0,1,1,1.5.114m-.011-18.226a8.431,8.431,0,1,0,1.288.1,8.306,8.306,0,0,0-1.288-.1" transform="translate(10.502 8.488)"/>
      <path id="Trazado_996878" data-name="Trazado 996878" d="M167.619,135.167a9.856,9.856,0,0,1-1.5-.115,9.8,9.8,0,1,1,1.5.115m-.011-18.226a8.424,8.424,0,1,0,1.288.1,8.432,8.432,0,0,0-1.288-.1" transform="translate(12.107 8.866)"/>
      <path id="Trazado_996879" data-name="Trazado 996879" d="M159.22,123.048a.693.693,0,0,1-.629-.4,2.375,2.375,0,0,0-1.436-1.422,3.379,3.379,0,0,0-2.364.489.692.692,0,1,1-.764-1.154,4.737,4.737,0,0,1,3.5-.666,3.689,3.689,0,0,1,2.317,2.171.693.693,0,0,1-.337.92.683.683,0,0,1-.291.065" transform="translate(11.793 9.189)"/>
      <path id="Trazado_996880" data-name="Trazado 996880" d="M164.44,191.75a.692.692,0,0,1-.257-1.335l32.677-13.037-6.333-3.065a.693.693,0,0,1-.09-1.193l10.875-7.5a.692.692,0,0,1,.786,1.14l-9.9,6.824,6.677,3.232a.693.693,0,0,1-.045,1.266L164.7,191.7a.694.694,0,0,1-.256.05" transform="translate(12.563 12.697)"/>
      <path id="Trazado_996881" data-name="Trazado 996881" d="M243.386,295.939c-30.863-32.882-9.462-121.876-9.462-121.876s-5.341-10.46-21.328-7.895c-5.839.938-37.1,102.632,20.481,139.562,7.7,4.936,10.309-9.792,10.309-9.792" transform="translate(15.259 12.717)" fill="#f05a2b"/>
      <path id="Trazado_996882" data-name="Trazado 996882" d="M162.791,187.873a.677.677,0,0,1-.241-.044l-21.091-7.86a.692.692,0,0,1-.178-1.2l10.78-8.208-5.394-4.77a.693.693,0,0,1,.917-1.038l6.025,5.33a.692.692,0,0,1-.039,1.069l-10.453,7.958,19.915,7.422a.692.692,0,0,1-.242,1.341" transform="translate(10.818 12.627)"/>
      <path id="Trazado_996883" data-name="Trazado 996883" d="M149.408,164.126s-35.181,34.087-49.734,113.131c-18.717-11.429,5.757-109.679,49.734-113.131" transform="translate(7.16 12.592)" fill="#f05a2b"/>
      <path id="Trazado_996884" data-name="Trazado 996884" d="M75.478,234.2c.777-26.682,33.688-32.87,35.162-27.144.3,1.149-.264,2.289-1.37,3.383,1.9.107,3.246.7,3.59,2.032.586,2.274-2.18,4.513-5.9,6.43,4.5-.064,8.228.634,8.4,3.082.2,2.731-4.08,4.6-9.008,5.836,5.2,1.147,9.675,2.936,9.12,5.673-.563,2.767-5.461,3.369-10.728,3.186-3.46,15.619-25.741,14.032-29.273-2.478" transform="translate(5.791 15.735)" fill="#f7b8b4"/>
      <path id="Trazado_996885" data-name="Trazado 996885" d="M113.9,232.365a.389.389,0,0,0,.283-.3,2.6,2.6,0,0,0-.409-2.046c-1.39-2.039-6.162-3.646-15.958-5.372a.388.388,0,0,0-.135.764c9.442,1.664,14.207,3.219,15.45,5.044a1.821,1.821,0,0,1,.291,1.454.388.388,0,0,0,.3.458.381.381,0,0,0,.174,0" transform="translate(7.469 17.235)"/>
      <path id="Trazado_996886" data-name="Trazado 996886" d="M113.781,221.418a.39.39,0,0,0,.29-.4,2.666,2.666,0,0,0-.987-1.877c-1.988-1.7-6.991-2.2-15.294-1.522a.388.388,0,1,0,.062.774c7.974-.652,12.929-.2,14.726,1.337a1.9,1.9,0,0,1,.717,1.344.389.389,0,0,0,.416.36.5.5,0,0,0,.07-.012" transform="translate(7.475 16.673)"/>
      <path id="Trazado_996887" data-name="Trazado 996887" d="M111.41,212.5a.389.389,0,0,0,.279-.473c-.469-1.821-2.608-3.911-15.716-1.063a.388.388,0,0,0,.165.759c9.219-2,14.2-1.836,14.8.5a.388.388,0,0,0,.473.279h0" transform="translate(7.34 16.078)"/>
      <path id="Trazado_996888" data-name="Trazado 996888" d="M75.6,234.6a.39.39,0,0,0,.291-.365c.543-18.639,17.248-27.432,27.649-28.6,3.693-.413,6.405.2,6.749,1.538a.387.387,0,0,0,.473.279h0a.388.388,0,0,0,.278-.473c-.458-1.778-3.365-2.588-7.587-2.116a35.308,35.308,0,0,0-17.794,7.777,28.427,28.427,0,0,0-10.546,21.568.388.388,0,0,0,.378.4.4.4,0,0,0,.109-.012" transform="translate(5.763 15.707)"/>
      <path id="Trazado_996889" data-name="Trazado 996889" d="M196.074,250.788c-.459,1.785-30.438,8.437-31.846,7.224s-11.12-44.574-10.6-46.706,29.8-8.187,31.847-7.224S196.531,249,196.074,250.788" transform="translate(11.785 15.649)" fill="#804046"/>
      <path id="Trazado_996890" data-name="Trazado 996890" d="M172.594,219.633a9.5,9.5,0,1,0,11.37,7.166,9.514,9.514,0,0,0-11.37-7.166m10.267,5.307a6.424,6.424,0,0,0-2.531-1.377,10.692,10.692,0,0,0-2.016-.4,10.747,10.747,0,0,0-1.233-1.645,6.422,6.422,0,0,0-2.334-1.688,9.1,9.1,0,0,1,8.114,5.113m-3.685,1.047c-.908.085-1.89.222-2.9.4-.272-.984-.573-1.93-.888-2.785a13.966,13.966,0,0,1,2.666-.036,13.878,13.878,0,0,1,1.119,2.42m-.592-2.363c2.238.3,3.987,1.2,4.695,2.55a9.563,9.563,0,0,0-3.661-.224,14.49,14.49,0,0,0-1.034-2.326m1.107,4.144c.106.466.188.929.251,1.385-.813.307-1.753.615-2.809.909-.1-.543-.216-1.091-.339-1.636s-.258-1.089-.4-1.623c1.081-.191,2.062-.318,2.927-.392q.212.657.371,1.357m-4.614,2.811q-.859.194-1.654.342-.208-.78-.4-1.64t-.342-1.654q.78-.208,1.64-.4t1.654-.342q.208.78.4,1.64t.343,1.654q-.782.208-1.64.4m1.716.019c.191,1.08.319,2.061.393,2.925-.438.141-.892.266-1.358.371s-.928.188-1.385.251c-.306-.812-.614-1.752-.908-2.809.543-.1,1.091-.215,1.636-.339s1.087-.257,1.622-.4m-7.091-.564q-.158-.7-.251-1.385c.812-.306,1.752-.615,2.809-.909.1.543.215,1.091.339,1.636s.257,1.089.4,1.623c-1.081.191-2.061.318-2.927.392-.14-.437-.265-.89-.37-1.357m2.9-2.831c-.191-1.08-.318-2.061-.393-2.925.438-.141.892-.266,1.358-.371s.928-.188,1.385-.251c.306.813.614,1.752.909,2.809-.544.1-1.092.215-1.637.339s-1.087.257-1.622.4m2.637-4.016a9.589,9.589,0,0,0-1.781-3.205c1.522.055,3.092,1.243,4.325,3.134a14.494,14.494,0,0,0-2.544.071m-.447.057q-.657.094-1.32.243t-1.3.35c-.157-2.31.088-3.688.517-3.786s1.245,1.041,2.1,3.192m-3.044.734a14.505,14.505,0,0,0-2.322,1.033,10.019,10.019,0,0,1,.347-1.617,4.948,4.948,0,0,1,2.2-3.075,9.585,9.585,0,0,0-.223,3.66m.038.443c.084.908.222,1.89.4,2.9-.985.273-1.929.573-2.785.888a13.775,13.775,0,0,1-.033-2.667,13.893,13.893,0,0,1,2.418-1.117m-2.8,3.941a9.551,9.551,0,0,0-3.205,1.781c.055-1.522,1.243-3.092,3.134-4.325a14.4,14.4,0,0,0,.071,2.544m.057.447c.062.437.143.879.243,1.32s.217.874.35,1.3c-2.31.157-3.689-.088-3.786-.517s1.04-1.246,3.192-2.1m.734,3.044a14.49,14.49,0,0,0,1.034,2.326c-2.239-.3-3.987-1.2-4.693-2.55a9.555,9.555,0,0,0,3.66.224m.441-.038c.909-.085,1.891-.222,2.9-.4.272.984.573,1.929.888,2.785a13.875,13.875,0,0,1-2.666.036,13.919,13.919,0,0,1-1.119-2.42m3.941,2.8a9.589,9.589,0,0,0,1.781,3.205c-1.521-.055-3.092-1.243-4.324-3.134a14.489,14.489,0,0,0,2.543-.071m.447-.057q.657-.094,1.321-.243c.441-.1.874-.218,1.3-.35.158,2.31-.088,3.688-.517,3.786s-1.245-1.041-2.1-3.192m3.045-.734a14.438,14.438,0,0,0,2.325-1.035c-.3,2.238-1.2,3.988-2.549,4.695a9.557,9.557,0,0,0,.224-3.66m-.038-.441c-.085-.909-.222-1.891-.4-2.9.984-.273,1.929-.573,2.785-.888a13.961,13.961,0,0,1,.036,2.666,13.956,13.956,0,0,1-2.42,1.119m2.8-3.942a9.551,9.551,0,0,0,3.205-1.781c-.056,1.522-1.243,3.093-3.135,4.325a14.5,14.5,0,0,0-.07-2.544m-.057-.446c-.062-.438-.143-.88-.243-1.321s-.217-.874-.351-1.3c2.31-.157,3.689.089,3.786.517s-1.04,1.246-3.191,2.1m-9.618-8.257a6.446,6.446,0,0,0-1.377,2.53,10.789,10.789,0,0,0-.4,2.017,10.643,10.643,0,0,0-1.645,1.233,6.428,6.428,0,0,0-1.688,2.333,9.1,9.1,0,0,1,5.112-8.113m-4.2,12.125a6.419,6.419,0,0,0,2.53,1.377,10.691,10.691,0,0,0,2.016.4,10.817,10.817,0,0,0,1.233,1.645,6.431,6.431,0,0,0,2.334,1.688,9.1,9.1,0,0,1-8.113-5.113m12.125,4.2a6.446,6.446,0,0,0,1.377-2.53,10.686,10.686,0,0,0,.4-2.017,10.684,10.684,0,0,0,1.644-1.233,6.445,6.445,0,0,0,1.689-2.333,9.105,9.105,0,0,1-5.113,8.113" transform="translate(12.674 16.832)" fill="#fff"/>
      <path id="Trazado_996891" data-name="Trazado 996891" d="M160.886,216.038a5.177,5.177,0,0,1,.823-.255,1.42,1.42,0,0,1,1.01.067.948.948,0,0,1,.457.64,1.023,1.023,0,0,1-.1.781,1.442,1.442,0,0,1-.949.6,1.463,1.463,0,0,1-.357.05l.307,1.353-.436.1Zm.805,1.53a1.542,1.542,0,0,0,.369-.046c.525-.12.787-.453.684-.909s-.472-.594-.948-.487a1.9,1.9,0,0,0-.4.129Z" transform="translate(12.343 16.55)" fill="#c1986c"/>
      <path id="Trazado_996892" data-name="Trazado 996892" d="M164,217.72l-.11,1.141-.451.1.387-3.638.521-.118,1.919,3.116-.466.106-.6-.98Zm1.035-.593-.557-.9c-.125-.2-.221-.393-.314-.577l-.011,0c-.005.208-.008.43-.031.65l-.109,1.052Z" transform="translate(12.539 16.511)" fill="#c1986c"/>
      <path id="Trazado_996893" data-name="Trazado 996893" d="M166.4,217.742a1.512,1.512,0,0,0,.827.044c.446-.1.652-.4.576-.736-.071-.31-.293-.455-.788-.522-.6-.075-1-.289-1.11-.759a1,1,0,0,1,.884-1.165,1.556,1.556,0,0,1,.78,0l-.04.383a1.29,1.29,0,0,0-.673-.016c-.461.1-.574.42-.521.65.072.315.312.424.819.5.621.09.969.3,1.082.8.118.521-.159,1.063-.956,1.244a1.78,1.78,0,0,1-.912-.025Z" transform="translate(12.726 16.46)" fill="#c1986c"/>
      <path id="Trazado_996894" data-name="Trazado 996894" d="M168.69,217.222a1.512,1.512,0,0,0,.827.044c.446-.1.652-.4.576-.736-.071-.31-.294-.455-.788-.522-.6-.075-1-.289-1.11-.759a1,1,0,0,1,.884-1.165,1.557,1.557,0,0,1,.78,0l-.04.383a1.29,1.29,0,0,0-.673-.016c-.461.1-.574.42-.521.65.072.315.312.424.819.5.621.09.969.3,1.082.8.118.521-.159,1.063-.956,1.244a1.78,1.78,0,0,1-.912-.025Z" transform="translate(12.902 16.421)" fill="#c1986c"/>
      <path id="Trazado_996895" data-name="Trazado 996895" d="M170.407,213.878a5.082,5.082,0,0,1,.823-.254,1.415,1.415,0,0,1,1.01.066.948.948,0,0,1,.457.64,1.023,1.023,0,0,1-.1.781,1.442,1.442,0,0,1-.949.6,1.463,1.463,0,0,1-.357.05l.307,1.353-.436.1Zm.805,1.53a1.527,1.527,0,0,0,.368-.046c.527-.12.788-.453.685-.909s-.472-.594-.948-.486a1.854,1.854,0,0,0-.4.128Z" transform="translate(13.074 16.385)" fill="#c1986c"/>
      <path id="Trazado_996896" data-name="Trazado 996896" d="M176.127,214.286a1.625,1.625,0,0,1-1.165,2.135,1.589,1.589,0,0,1-1.908-1.375,1.641,1.641,0,0,1,1.161-2.128,1.579,1.579,0,0,1,1.912,1.367m-2.614.646c.165.727.7,1.285,1.394,1.127s.938-.882.763-1.648c-.153-.676-.663-1.3-1.39-1.134s-.935.918-.768,1.655" transform="translate(13.272 16.332)" fill="#c1986c"/>
      <path id="Trazado_996897" data-name="Trazado 996897" d="M176.091,212.6a5.141,5.141,0,0,1,.82-.26,1.429,1.429,0,0,1,1.04.054.885.885,0,0,1,.412.586.91.91,0,0,1-.437,1l0,.015a.87.87,0,0,1,.646.57,5.546,5.546,0,0,0,.471.869l-.451.1a4.373,4.373,0,0,1-.4-.757c-.207-.444-.432-.577-.831-.5l-.41.093.332,1.463-.436.1Zm.785,1.44.446-.1c.466-.106.7-.429.616-.814-.1-.436-.458-.555-.918-.45a1.994,1.994,0,0,0-.423.132Z" transform="translate(13.51 16.285)" fill="#c1986c"/>
      <path id="Trazado_996898" data-name="Trazado 996898" d="M179.38,212.212l-1.027.233-.084-.37,2.5-.567.084.371-1.031.234.682,3.006-.441.1Z" transform="translate(13.677 16.227)" fill="#c1986c"/>
      <rect id="Rectángulo_455286" data-name="Rectángulo 455286" width="0.259" height="0.639" transform="translate(166.753 226.906) rotate(-12.761)" fill="#fff"/>
      <path id="Trazado_996899" data-name="Trazado 996899" d="M165.162,254.939l-.252.057-.276-1.216.252-.057Zm-.551-2.431-.252.057-.276-1.216.252-.057Zm-.551-2.431-.252.057-.276-1.216.252-.057Zm-.551-2.431-.253.057-.276-1.216.253-.057Zm-.552-2.431-.252.057-.276-1.216.252-.057Zm-.551-2.431-.252.057-.276-1.216.252-.057Zm-.551-2.431-.252.057-.276-1.216.252-.057Zm-.551-2.431-.252.057-.276-1.216.252-.057Zm-.551-2.431-.252.057-.277-1.216.253-.057Zm-.551-2.431-.253.057-.276-1.215.252-.058Zm-.552-2.431-.252.058-.276-1.216.252-.058Zm-.551-2.43-.252.057-.276-1.216.252-.057Zm-.551-2.431-.252.057-.276-1.216.252-.057Zm-.551-2.431-.252.057-.277-1.216.253-.057Zm-.551-2.431-.253.057-.276-1.216.252-.057Zm-.552-2.431-.252.057-.276-1.216.252-.057Zm-.551-2.431-.252.057-.276-1.216.252-.057Zm-.551-2.431-.252.057-.276-1.216.252-.057Z" transform="translate(11.911 16.295)" fill="#fff"/>
      <rect id="Rectángulo_455287" data-name="Rectángulo 455287" width="0.259" height="0.639" transform="matrix(0.975, -0.221, 0.221, 0.975, 177.097, 272.507)" fill="#fff"/>
      <path id="Trazado_996900" data-name="Trazado 996900" d="M274.7,278.415c-16.376.92-38.508-2.447-56.1-14.09-10.8-31.72-52.572-26.969-52.222-19.554.07,1.487,1.163,2.648,2.894,3.551-2.237.83-3.636,2.037-3.554,3.766.139,2.944,4.284,4.606,9.454,5.532-5.428,1.589-9.638,3.8-8.943,6.8.775,3.349,6.6,4.005,12.966,3.669-5.808,3.3-10.521,7.1-8.841,10.178,1.7,3.113,7.8,2.022,14.047-.146,9.928,17.457,62.81,42.679,85.438,36.446,30.971-8.531,4.86-36.156,4.86-36.156" transform="translate(12.714 18.36)" fill="#f7b8b4"/>
      <path id="Trazado_996901" data-name="Trazado 996901" d="M170.107,277.036a.488.488,0,0,1-.45-.254,3.254,3.254,0,0,1-.266-2.6c.912-2.961,6.043-6.653,17.155-12.347a.488.488,0,1,1,.445.868c-10.711,5.488-15.851,9.117-16.668,11.765a2.285,2.285,0,0,0,.189,1.852.488.488,0,0,1-.406.72" transform="translate(12.984 20.083)"/>
      <path id="Trazado_996902" data-name="Trazado 996902" d="M166.257,263.835a.487.487,0,0,1-.5-.377,3.353,3.353,0,0,1,.489-2.617c1.755-2.78,7.573-5.228,17.785-7.483a.487.487,0,0,1,.21.952c-9.808,2.166-15.584,4.539-17.17,7.051a2.38,2.38,0,0,0-.364,1.877.488.488,0,0,1-.365.586.5.5,0,0,1-.088.012" transform="translate(12.71 19.437)"/>
      <path id="Trazado_996903" data-name="Trazado 996903" d="M165.777,252.168a.489.489,0,0,1-.509-.464c-.111-2.357,1.682-5.656,18.46-7.089a.488.488,0,0,1,.083.972c-11.8,1.008-17.712,3.05-17.569,6.071a.488.488,0,0,1-.464.51Z" transform="translate(12.679 18.767)"/>
      <path id="Trazado_996904" data-name="Trazado 996904" d="M218.612,264.848a.487.487,0,0,1-.483-.331c-7.547-22.159-30.839-26.527-43.747-24.075-4.584.871-7.608,2.615-7.526,4.341a.488.488,0,0,1-.464.51h0a.488.488,0,0,1-.509-.464c-.109-2.3,3.079-4.35,8.319-5.346a44.334,44.334,0,0,1,24.223,2.748,35.684,35.684,0,0,1,20.63,21.973.487.487,0,0,1-.3.618.5.5,0,0,1-.136.026" transform="translate(12.726 18.324)"/>
    </g>
  </g>
</svg>
