<svg xmlns="http://www.w3.org/2000/svg" xmlns:xlink="http://www.w3.org/1999/xlink" width="396" height="373.848" viewBox="0 0 396 373.848">
  <defs>
    <clipPath id="clip-path">
      <rect id="Rectángulo_454797" data-name="Rectángulo 454797" width="396" height="373.847" fill="none"/>
    </clipPath>
    <clipPath id="clip-path-2">
      <path id="Trazado_993839" data-name="Trazado 993839" d="M278.382,4.2H123.226A70.244,70.244,0,0,0,53.4,82.108L77.209,299.066a70.239,70.239,0,0,0,69.825,62.583h108.2a70.238,70.238,0,0,0,69.845-62.8L348.227,81.888A70.257,70.257,0,0,0,278.382,4.179Z" transform="translate(-52.974 -4.179)" fill="none"/>
    </clipPath>
    <clipPath id="clip-path-4">
      <rect id="Rectángulo_454794" data-name="Rectángulo 454794" width="46.102" height="90.028" fill="none"/>
    </clipPath>
    <clipPath id="clip-path-5">
      <rect id="Rectángulo_454795" data-name="Rectángulo 454795" width="107.503" height="106.028" fill="none"/>
    </clipPath>
  </defs>
  <g id="Grupo_1177463" data-name="Grupo 1177463" transform="translate(0 50.352)">
    <g id="Grupo_1177315" data-name="Grupo 1177315" transform="translate(0 -50.352)" clip-path="url(#clip-path)">
      <g id="Grupo_1177306" data-name="Grupo 1177306" transform="translate(56.949 4.493)">
        <g id="Grupo_1177305" data-name="Grupo 1177305" clip-path="url(#clip-path-2)">
          <path id="Trazado_993772" data-name="Trazado 993772" d="M38.259.972l-13.325,175.2L90.559,350.76H237.111c65.1,0,98.836-50.159,107.72-102.317s19.527-98.757,26.05-134.349c6.5-35.593,1.18-103.639-101.8-110.161C166.106-2.569,38.28.951,38.28.951Z" transform="translate(-55.078 -4.493)" fill="#183461"/>
          <path id="Trazado_993773" data-name="Trazado 993773" d="M186.7,198.268l64.844-55.98a12.062,12.062,0,0,1,14.465-.98l87.951,57.4-167.281-.44Z" transform="translate(-42.938 5.967)" fill="#d5ac3b"/>
          <path id="Trazado_993774" data-name="Trazado 993774" d="M186.7,197.009l100.777.26-53.459-41.135Z" transform="translate(-42.937 7.226)" fill="#cf9800"/>
          <line id="Línea_3371" data-name="Línea 3371" y2="11.885" transform="translate(216.266 159.038)" fill="none" stroke="#c1723e" stroke-linecap="round" stroke-linejoin="round" stroke-width="1.247"/>
          <line id="Línea_3372" data-name="Línea 3372" x2="6.062" y2="12.824" transform="translate(222.148 160.359)" fill="none" stroke="#c1723e" stroke-linecap="round" stroke-linejoin="round" stroke-width="1.247"/>
          <line id="Línea_3373" data-name="Línea 3373" x2="19.607" y2="17.587" transform="translate(228.93 159.038)" fill="none" stroke="#c1723e" stroke-linecap="round" stroke-linejoin="round" stroke-width="1.247"/>
          <line id="Línea_3374" data-name="Línea 3374" x1="6.062" y2="12.824" transform="translate(204.141 160.359)" fill="none" stroke="#c1723e" stroke-linecap="round" stroke-linejoin="round" stroke-width="1.247"/>
          <line id="Línea_3375" data-name="Línea 3375" x1="19.607" y2="17.587" transform="translate(183.814 159.038)" fill="none" stroke="#c1723e" stroke-linecap="round" stroke-linejoin="round" stroke-width="1.247"/>
          <path id="Trazado_993775" data-name="Trazado 993775" d="M13.88,164.661l109.76-61.5a22.675,22.675,0,0,1,25.688.82L282.2,201.694H35.047L13.88,164.681Z" transform="translate(-55.908 2.98)" fill="#d5ac3b"/>
          <line id="Línea_3376" data-name="Línea 3376" y2="14.785" transform="translate(81.417 120.504)" fill="none" stroke="#c1723e" stroke-linecap="round" stroke-linejoin="round" stroke-width="1.247"/>
          <line id="Línea_3377" data-name="Línea 3377" x2="7.543" y2="15.986" transform="translate(88.739 122.125)" fill="none" stroke="#c1723e" stroke-linecap="round" stroke-linejoin="round" stroke-width="1.247"/>
          <line id="Línea_3378" data-name="Línea 3378" x2="24.409" y2="21.868" transform="translate(97.182 120.504)" fill="none" stroke="#c1723e" stroke-linecap="round" stroke-linejoin="round" stroke-width="1.247"/>
          <line id="Línea_3379" data-name="Línea 3379" x1="7.543" y2="15.986" transform="translate(66.331 122.125)" fill="none" stroke="#c1723e" stroke-linecap="round" stroke-linejoin="round" stroke-width="1.247"/>
          <line id="Línea_3380" data-name="Línea 3380" x1="24.409" y2="21.868" transform="translate(41.022 120.504)" fill="none" stroke="#c1723e" stroke-linecap="round" stroke-linejoin="round" stroke-width="1.247"/>
          <path id="Trazado_993776" data-name="Trazado 993776" d="M252.274,55.47l62.682-38.914L294.81,1.751S260.4-1.29,229.226,22.238,185.71,96.764,185.71,96.764L225.5,72.056l-2.781-15.306L230.586,68.9l15.206-9.443-.62-14.066,7.082,10.044Z" transform="translate(-43.011 -4.371)" fill="#105814"/>
          <line id="Línea_3381" data-name="Línea 3381" x2="10.103" y2="18.607" transform="translate(203.221 29.971)" fill="none" stroke="#040d1a" stroke-miterlimit="10" stroke-width="0.782"/>
          <line id="Línea_3382" data-name="Línea 3382" x2="13.365" y2="10.763" transform="translate(239.854 13.065)" fill="none" stroke="#040d1a" stroke-miterlimit="10" stroke-width="0.782"/>
          <line id="Línea_3383" data-name="Línea 3383" x1="2.401" y2="25.889" transform="translate(167.008 51.459)" fill="none" stroke="#040d1a" stroke-miterlimit="10" stroke-width="0.782"/>
          <line id="Línea_3384" data-name="Línea 3384" x1="1.26" y2="13.505" transform="translate(161.326 67.365)" fill="none" stroke="#040d1a" stroke-miterlimit="10" stroke-width="0.782"/>
          <line id="Línea_3385" data-name="Línea 3385" x2="5.542" y2="12.104" transform="translate(212.705 33.413)" fill="none" stroke="#040d1a" stroke-miterlimit="10" stroke-width="0.782"/>
          <path id="Trazado_993777" data-name="Trazado 993777" d="M33.569,194.564h327l-47.617,164.68H92.972Z" transform="translate(-54.43 10.111)" fill="#749ac1"/>
          <line id="Línea_3386" data-name="Línea 3386" x1="18.647" y2="53.859" transform="translate(145.44 262.036)" fill="none" stroke="#040d1a" stroke-miterlimit="10" stroke-width="0.8"/>
          <path id="Trazado_993778" data-name="Trazado 993778" d="M189.424,269.333c1.78,4.041,4.122,7.163,6.122,8.543.32-2.4-.44-6.243-2.221-10.284s-4.122-7.163-6.122-8.543c-.32,2.4.441,6.243,2.221,10.284" transform="translate(-42.904 14.95)" fill="#83afda"/>
          <path id="Trazado_993779" data-name="Trazado 993779" d="M196.472,255.572a15.508,15.508,0,0,0,4.461,6.242,18.945,18.945,0,0,0-6.083-13.745,15.55,15.55,0,0,0,1.621,7.5" transform="translate(-42.329 14.126)" fill="#83afda"/>
          <path id="Trazado_993780" data-name="Trazado 993780" d="M207.464,270.447c3.68-2.021,6.462-4.482,7.623-6.5-2.3-.1-5.883.92-9.564,2.94s-6.462,4.482-7.623,6.5c2.3.1,5.883-.92,9.564-2.941" transform="translate(-42.096 15.317)" fill="#83afda"/>
          <path id="Trazado_993781" data-name="Trazado 993781" d="M209.412,253.609a12.36,12.36,0,0,0,4.582-3.9,14.952,14.952,0,0,0-10.344,5.682,12.356,12.356,0,0,0,5.762-1.78" transform="translate(-41.664 14.249)" fill="#83afda"/>
          <path id="Trazado_993782" data-name="Trazado 993782" d="M208.624,246.667a2.3,2.3,0,1,1-2.3-2.3,2.3,2.3,0,0,1,2.3,2.3" transform="translate(-41.636 13.848)" fill="#5bb25e"/>
          <path id="Trazado_993783" data-name="Trazado 993783" d="M206.5,263.156a2.3,2.3,0,1,1-2.3-2.3,2.3,2.3,0,0,1,2.3,2.3" transform="translate(-41.796 15.086)" fill="#5bb25e"/>
          <path id="Trazado_993784" data-name="Trazado 993784" d="M197.6,266.436a1.58,1.58,0,1,1-1.58-1.58,1.584,1.584,0,0,1,1.58,1.58" transform="translate(-42.356 15.386)" fill="#5bb25e"/>
          <path id="Trazado_993785" data-name="Trazado 993785" d="M198.821,274.254a1.46,1.46,0,1,1-1.461,1.461,1.461,1.461,0,0,1,1.461-1.461" transform="translate(-42.136 16.092)" fill="#5bb25e"/>
          <line id="Línea_3387" data-name="Línea 3387" x1="8.123" y2="56.42" transform="translate(203.161 249.791)" fill="none" stroke="#040d1a" stroke-miterlimit="10" stroke-width="0.8"/>
          <path id="Trazado_993786" data-name="Trazado 993786" d="M237.679,260.618c2.521,3.621,5.4,6.262,7.623,7.243-.14-2.421-1.6-6.042-4.122-9.664s-5.4-6.262-7.623-7.243c.14,2.421,1.6,6.043,4.122,9.664" transform="translate(-39.42 14.343)" fill="#83afda"/>
          <path id="Trazado_993787" data-name="Trazado 993787" d="M241.994,245.79c1.84,2.641,3.941,4.582,5.562,5.282a15.59,15.59,0,0,0-3.021-7.062c-1.842-2.641-3.942-4.582-5.562-5.282a15.6,15.6,0,0,0,3.021,7.062" transform="translate(-39.013 13.425)" fill="#83afda"/>
          <path id="Trazado_993788" data-name="Trazado 993788" d="M255.465,258.535c3.241-2.681,5.5-5.642,6.242-7.823-2.28.341-5.6,2.021-8.842,4.7s-5.5,5.642-6.243,7.822c2.281-.34,5.6-2.02,8.843-4.7" transform="translate(-38.439 14.325)" fill="#83afda"/>
          <path id="Trazado_993789" data-name="Trazado 993789" d="M254.252,241.53a12.406,12.406,0,0,0,3.762-4.7,12.447,12.447,0,0,0-5.323,2.821,12.067,12.067,0,0,0-3.761,4.7,12.444,12.444,0,0,0,5.322-2.821" transform="translate(-38.266 13.283)" fill="#83afda"/>
          <path id="Trazado_993790" data-name="Trazado 993790" d="M252.206,234.763a2.291,2.291,0,1,1-2.681-1.821,2.3,2.3,0,0,1,2.681,1.821" transform="translate(-38.361 12.988)" fill="#5bb25e"/>
          <path id="Trazado_993791" data-name="Trazado 993791" d="M253.229,251.363a2.291,2.291,0,1,1-2.681-1.821,2.3,2.3,0,0,1,2.681,1.821" transform="translate(-38.284 14.234)" fill="#5bb25e"/>
          <path id="Trazado_993792" data-name="Trazado 993792" d="M245.13,256.274a1.589,1.589,0,1,1-1.861-1.26,1.593,1.593,0,0,1,1.861,1.26" transform="translate(-38.787 14.646)" fill="#5bb25e"/>
          <path id="Trazado_993793" data-name="Trazado 993793" d="M249.522,264.883a1.456,1.456,0,1,1-1.7-1.16,1.451,1.451,0,0,1,1.7,1.16" transform="translate(-38.438 15.299)" fill="#5bb25e"/>
          <line id="Línea_3388" data-name="Línea 3388" x1="38.514" y2="43.556" transform="translate(71.313 257.214)" fill="none" stroke="#040d1a" stroke-miterlimit="10" stroke-width="0.8"/>
          <path id="Trazado_993794" data-name="Trazado 993794" d="M147.821,258.352a16.794,16.794,0,0,0-8.023,2.821,19.029,19.029,0,0,0,16.486-1.861,16.812,16.812,0,0,0-8.463-.96" transform="translate(-46.457 14.888)" fill="#83afda"/>
          <path id="Trazado_993795" data-name="Trazado 993795" d="M149.169,247.565a16.661,16.661,0,0,0,.32-8.5,18.965,18.965,0,0,0-4.322,16.005,16.663,16.663,0,0,0,4-7.5" transform="translate(-46.085 13.45)" fill="#83afda"/>
          <path id="Trazado_993796" data-name="Trazado 993796" d="M156.257,240.532a2.5,2.5,0,1,1-2.5,2.5,2.5,2.5,0,0,1,2.5-2.5" transform="translate(-45.409 13.561)" fill="#5bb25e"/>
          <path id="Trazado_993797" data-name="Trazado 993797" d="M150.361,253.671a1.22,1.22,0,1,1-1.22,1.22,1.22,1.22,0,0,1,1.22-1.22" transform="translate(-45.756 14.547)" fill="#5bb25e"/>
          <path id="Trazado_993798" data-name="Trazado 993798" d="M140.818,264.949a1.02,1.02,0,1,1-1.02,1.02,1.02,1.02,0,0,1,1.02-1.02" transform="translate(-46.457 15.393)" fill="#5bb25e"/>
          <path id="Trazado_993799" data-name="Trazado 993799" d="M141.5,252.015a1.7,1.7,0,1,1-1.7,1.7,1.7,1.7,0,0,1,1.7-1.7" transform="translate(-46.457 14.423)" fill="#5bb25e"/>
          <path id="Trazado_993800" data-name="Trazado 993800" d="M69.675,310.787s66.585-21.308,89.212-7.322c0,0,17.746-21.969,48.817-9.544,0,0,14.645-18.647,19.088-18.647s-4,17.747-4,17.747,17.746-21.308,45.276-17.747c0,0,31.512-45.716,40.835-44.156s-2.22,30.611-2.22,30.611S339.973,236.22,350.618,238L310.223,340.538H77.418l-7.762-29.731Z" transform="translate(-51.721 12.851)" fill="#83afda"/>
          <line id="Línea_3389" data-name="Línea 3389" x1="4.001" y2="4.122" transform="translate(255.86 280.542)" fill="none" stroke="#7eacda" stroke-miterlimit="10" stroke-width="0.614"/>
          <line id="Línea_3390" data-name="Línea 3390" x2="5.983" y2="4.022" transform="translate(241.215 294.628)" fill="none" stroke="#7eacda" stroke-miterlimit="10" stroke-width="0.614"/>
          <line id="Línea_3391" data-name="Línea 3391" x1="2.661" y2="9.543" transform="translate(224.129 312.534)" fill="none" stroke="#7eacda" stroke-miterlimit="10" stroke-width="0.614"/>
          <line id="Línea_3392" data-name="Línea 3392" x1="7.643" y2="2.961" transform="translate(222.468 293.667)" fill="none" stroke="#7eacda" stroke-miterlimit="10" stroke-width="0.614"/>
          <line id="Línea_3393" data-name="Línea 3393" y2="5.402" transform="translate(239.214 274.36)" fill="none" stroke="#7eacda" stroke-miterlimit="10" stroke-width="0.614"/>
          <line id="Línea_3394" data-name="Línea 3394" x1="2.881" y2="4.622" transform="translate(245.656 259.095)" fill="none" stroke="#7eacda" stroke-miterlimit="10" stroke-width="0.614"/>
          <line id="Línea_3395" data-name="Línea 3395" x2="1.1" y2="6.422" transform="translate(267.184 278.242)" fill="none" stroke="#7eacda" stroke-miterlimit="10" stroke-width="0.614"/>
          <line id="Línea_3396" data-name="Línea 3396" x1="5.882" transform="translate(241.215 310.093)" fill="none" stroke="#7eacda" stroke-miterlimit="10" stroke-width="0.614"/>
          <line id="Línea_3397" data-name="Línea 3397" x1="5.682" y2="3.102" transform="translate(209.664 332.281)" fill="none" stroke="#7eacda" stroke-miterlimit="10" stroke-width="0.614"/>
          <line id="Línea_3398" data-name="Línea 3398" x1="2.841" y2="3.562" transform="translate(209.663 308.973)" fill="none" stroke="#7eacda" stroke-miterlimit="10" stroke-width="0.614"/>
          <line id="Línea_3399" data-name="Línea 3399" x1="7.143" transform="translate(198.239 300.77)" fill="none" stroke="#7eacda" stroke-miterlimit="10" stroke-width="0.614"/>
          <line id="Línea_3400" data-name="Línea 3400" x2="8.203" y2="1.78" transform="translate(189.056 310.753)" fill="none" stroke="#7eacda" stroke-miterlimit="10" stroke-width="0.614"/>
          <line id="Línea_3401" data-name="Línea 3401" x1="5.322" y2="5.983" transform="translate(191.937 319.857)" fill="none" stroke="#7eacda" stroke-miterlimit="10" stroke-width="0.614"/>
          <line id="Línea_3402" data-name="Línea 3402" x2="7.103" y2="4.882" transform="translate(181.953 333.842)" fill="none" stroke="#7eacda" stroke-miterlimit="10" stroke-width="0.614"/>
          <line id="Línea_3403" data-name="Línea 3403" x1="5.322" y2="5.562" transform="translate(172.85 317.296)" fill="none" stroke="#7eacda" stroke-miterlimit="10" stroke-width="0.614"/>
          <line id="Línea_3404" data-name="Línea 3404" x2="5.502" y2="3.321" transform="translate(162.906 333.842)" fill="none" stroke="#7eacda" stroke-miterlimit="10" stroke-width="0.614"/>
          <line id="Línea_3405" data-name="Línea 3405" x1="4.842" y2="6.982" transform="translate(150.401 322.858)" fill="none" stroke="#7eacda" stroke-miterlimit="10" stroke-width="0.614"/>
          <line id="Línea_3406" data-name="Línea 3406" x2="6.542" y2="1.78" transform="translate(138.898 335.382)" fill="none" stroke="#7eacda" stroke-miterlimit="10" stroke-width="0.614"/>
          <line id="Línea_3407" data-name="Línea 3407" x1="10.444" y2="4.222" transform="translate(130.234 307.432)" fill="none" stroke="#7eacda" stroke-miterlimit="10" stroke-width="0.614"/>
          <line id="Línea_3408" data-name="Línea 3408" x2="5.322" y2="2.221" transform="translate(120.931 319.857)" fill="none" stroke="#7eacda" stroke-miterlimit="10" stroke-width="0.614"/>
          <line id="Línea_3409" data-name="Línea 3409" x2="4.701" transform="translate(109.827 325.839)" fill="none" stroke="#7eacda" stroke-miterlimit="10" stroke-width="0.614"/>
          <line id="Línea_3410" data-name="Línea 3410" x1="7.322" y2="5.942" transform="translate(133.356 326.339)" fill="none" stroke="#7eacda" stroke-miterlimit="10" stroke-width="0.614"/>
          <line id="Línea_3411" data-name="Línea 3411" x2="8.003" y2="3.762" transform="translate(108.486 336.283)" fill="none" stroke="#7eacda" stroke-miterlimit="10" stroke-width="0.614"/>
          <line id="Línea_3412" data-name="Línea 3412" y2="7.322" transform="translate(167.488 302.771)" fill="none" stroke="#7eacda" stroke-miterlimit="10" stroke-width="0.614"/>
          <line id="Línea_3413" data-name="Línea 3413" x2="3.562" y2="3.321" transform="translate(87.179 324.518)" fill="none" stroke="#7eacda" stroke-miterlimit="10" stroke-width="0.614"/>
          <line id="Línea_3414" data-name="Línea 3414" x1="4.661" y2="1.001" transform="translate(88.96 337.163)" fill="none" stroke="#7eacda" stroke-miterlimit="10" stroke-width="0.614"/>
          <line id="Línea_3415" data-name="Línea 3415" x2="3.541" y2="6.202" transform="translate(76.315 333.842)" fill="none" stroke="#7eacda" stroke-miterlimit="10" stroke-width="0.614"/>
          <path id="Trazado_993801" data-name="Trazado 993801" d="M119.778,280.616C97.59,289.639,79.643,302,69.86,313.848c15.266,1.661,36.753-2,58.941-11.024s40.135-21.388,49.918-33.232c-15.265-1.661-36.753,2-58.941,11.024" transform="translate(-51.706 15.713)" fill="#f4b400"/>
          <line id="Línea_3416" data-name="Línea 3416" x1="108.84" y2="44.256" transform="translate(18.174 285.304)" fill="none" stroke="#fff" stroke-miterlimit="10" stroke-width="0.614"/>
          <path id="Trazado_993802" data-name="Trazado 993802" d="M98.8,215.073s-9.764,42.756-12.2,66.945" transform="translate(-50.45 11.65)" fill="none" stroke="#040d1a" stroke-miterlimit="10" stroke-width="0.8"/>
          <path id="Trazado_993803" data-name="Trazado 993803" d="M99.446,227.747a16.724,16.724,0,0,0-5,6.883,18.964,18.964,0,0,0,12.505-10.884,16.764,16.764,0,0,0-7.5,4" transform="translate(-49.861 12.301)" fill="#83afda"/>
          <path id="Trazado_993804" data-name="Trazado 993804" d="M95.612,247.455a16.724,16.724,0,0,0-5,6.883,18.964,18.964,0,0,0,12.505-10.884,16.764,16.764,0,0,0-7.5,4" transform="translate(-50.149 13.78)" fill="#83afda"/>
          <path id="Trazado_993805" data-name="Trazado 993805" d="M88.8,233.771a13.576,13.576,0,0,0,3.981,5.682,15.479,15.479,0,0,0-5.082-12.524,13.647,13.647,0,0,0,1.1,6.843" transform="translate(-50.375 12.54)" fill="#83afda"/>
          <path id="Trazado_993806" data-name="Trazado 993806" d="M83.673,252.15a18.7,18.7,0,0,0,5.462,7.8,18.471,18.471,0,0,0-1.521-9.4,18.712,18.712,0,0,0-5.461-7.8,18.456,18.456,0,0,0,1.52,9.4" transform="translate(-50.794 13.727)" fill="#83afda"/>
          <path id="Trazado_993807" data-name="Trazado 993807" d="M100.941,215.343A2.541,2.541,0,1,1,98.4,212.8a2.545,2.545,0,0,1,2.541,2.541" transform="translate(-49.755 11.479)" fill="#5bb25e"/>
          <path id="Trazado_993808" data-name="Trazado 993808" d="M97.515,241.714a1.2,1.2,0,1,1-1.2-1.2,1.2,1.2,0,0,1,1.2,1.2" transform="translate(-49.811 13.559)" fill="#5bb25e"/>
          <path id="Trazado_993809" data-name="Trazado 993809" d="M89.01,242.747a1.861,1.861,0,1,1-1.861,1.861,1.861,1.861,0,0,1,1.861-1.861" transform="translate(-50.408 13.727)" fill="#5bb25e"/>
          <path id="Trazado_993810" data-name="Trazado 993810" d="M86.551,260.769a1.183,1.183,0,0,1-1.18,1.18,1.18,1.18,0,1,1,1.18-1.18" transform="translate(-50.631 14.991)" fill="#5bb25e"/>
          <path id="Trazado_993811" data-name="Trazado 993811" d="M92.351,226.053a1.2,1.2,0,1,1-1.2,1.2,1.2,1.2,0,0,1,1.2-1.2" transform="translate(-50.108 12.474)" fill="#5bb25e"/>
          <path id="Trazado_993812" data-name="Trazado 993812" d="M99.209,223.225a.54.54,0,1,1-.541.54.54.54,0,0,1,.541-.54" transform="translate(-49.544 12.262)" fill="#5bb25e"/>
          <path id="Trazado_993813" data-name="Trazado 993813" d="M119.62,219.912a16.724,16.724,0,0,0-5,6.883,18.965,18.965,0,0,0,12.5-10.884,16.756,16.756,0,0,0-7.5,4" transform="translate(-48.347 11.713)" fill="#83afda"/>
          <path id="Trazado_993814" data-name="Trazado 993814" d="M126.747,203.33a16.724,16.724,0,0,0-5,6.883,18.964,18.964,0,0,0,12.505-10.884,16.764,16.764,0,0,0-7.5,4" transform="translate(-47.812 10.468)" fill="#83afda"/>
          <path id="Trazado_993815" data-name="Trazado 993815" d="M112.623,209.833c.581,5.161,2.24,9.564,4.322,12.245,1.42-3.081,2.04-7.744,1.46-12.9s-2.24-9.564-4.321-12.245c-1.421,3.081-2.042,7.743-1.461,12.9" transform="translate(-48.513 10.288)" fill="#83afda"/>
          <path id="Trazado_993816" data-name="Trazado 993816" d="M122.853,194.821a13.979,13.979,0,0,0,2.381,6.762,16.083,16.083,0,0,0-1.581-13.9,13.951,13.951,0,0,0-.8,7.143" transform="translate(-47.738 9.594)" fill="#83afda"/>
          <path id="Trazado_993817" data-name="Trazado 993817" d="M131.72,191.531s-15.085,30.651-25.309,59.782" transform="translate(-48.963 9.883)" fill="none" stroke="#040d1a" stroke-miterlimit="10" stroke-width="0.8"/>
          <path id="Trazado_993818" data-name="Trazado 993818" d="M132.746,191.467a2.281,2.281,0,1,1-2.281-2.281,2.28,2.28,0,0,1,2.281,2.281" transform="translate(-47.328 9.707)" fill="#5bb25e"/>
          <path id="Trazado_993819" data-name="Trazado 993819" d="M129.826,198.847a.56.56,0,1,1-.56-.56.573.573,0,0,1,.56.56" transform="translate(-47.289 10.39)" fill="#5bb25e"/>
          <path id="Trazado_993820" data-name="Trazado 993820" d="M120.592,202.372a1.2,1.2,0,1,1-1.2-1.2,1.2,1.2,0,0,1,1.2,1.2" transform="translate(-48.079 10.606)" fill="#5bb25e"/>
          <path id="Trazado_993821" data-name="Trazado 993821" d="M124.491,212.734a1.14,1.14,0,0,1-1.141,1.141,1.141,1.141,0,1,1,1.141-1.141" transform="translate(-47.777 11.389)" fill="#5bb25e"/>
          <path id="Trazado_993822" data-name="Trazado 993822" d="M111.991,220.321a1.56,1.56,0,1,1-1.561,1.561,1.561,1.561,0,0,1,1.561-1.561" transform="translate(-48.661 12.044)" fill="#5bb25e"/>
          <line id="Línea_3417" data-name="Línea 3417" x2="34.833" transform="translate(224.129 211.998)" fill="none" stroke="#fff" stroke-linecap="round" stroke-linejoin="round" stroke-width="1.247"/>
          <line id="Línea_3418" data-name="Línea 3418" x2="35.833" transform="translate(204.561 215.039)" fill="none" stroke="#fff" stroke-linecap="round" stroke-linejoin="round" stroke-width="1.247"/>
          <line id="Línea_3419" data-name="Línea 3419" x2="14.585" transform="translate(233.952 218.44)" fill="none" stroke="#fff" stroke-linecap="round" stroke-linejoin="round" stroke-width="1.247"/>
          <line id="Línea_3420" data-name="Línea 3420" x2="44.396" transform="translate(147.841 221.681)" fill="none" stroke="#fff" stroke-linecap="round" stroke-linejoin="round" stroke-width="1.247"/>
          <line id="Línea_3421" data-name="Línea 3421" x2="21.608" transform="translate(139.118 224.502)" fill="none" stroke="#fff" stroke-linecap="round" stroke-linejoin="round" stroke-width="1.247"/>
          <line id="Línea_3422" data-name="Línea 3422" x2="14.385" transform="translate(154.763 227.163)" fill="none" stroke="#fff" stroke-linecap="round" stroke-linejoin="round" stroke-width="1.247"/>
          <line id="Línea_3423" data-name="Línea 3423" x2="10.204" transform="translate(131.435 232.785)" fill="none" stroke="#fff" stroke-linecap="round" stroke-linejoin="round" stroke-width="1.247"/>
          <line id="Línea_3424" data-name="Línea 3424" x2="20.287" transform="translate(127.013 213.998)" fill="none" stroke="#fff" stroke-linecap="round" stroke-linejoin="round" stroke-width="1.247"/>
          <line id="Línea_3425" data-name="Línea 3425" x2="48.457" transform="translate(224.129 235.486)" fill="none" stroke="#fff" stroke-linecap="round" stroke-linejoin="round" stroke-width="1.247"/>
          <line id="Línea_3426" data-name="Línea 3426" x2="23.368" transform="translate(259.862 231.305)" fill="none" stroke="#fff" stroke-linecap="round" stroke-linejoin="round" stroke-width="1.247"/>
          <path id="Trazado_993823" data-name="Trazado 993823" d="M314.573,40.774l14.346-15.245-9.443-13.365s-12.625-.96-45.236,26.21c-32.632,27.17-44.757,92.814-44.757,92.814l16.986-18.047-1.18-15.166,3.962,12.224L272.418,85.59,264.955,70.8l12.185,9.764L297.987,58.42,286.162,46.736,302.808,53.3l9.183-9.743-8.263-6.982,10.865,4.222Z" transform="translate(-39.726 -3.58)" fill="#105814"/>
          <line id="Línea_3427" data-name="Línea 3427" x2="14.625" y2="10.464" transform="translate(264.203 22.509)" fill="none" stroke="#040d1a" stroke-miterlimit="10" stroke-width="0.782"/>
          <line id="Línea_3428" data-name="Línea 3428" x2="15.445" y2="15.345" transform="translate(232.612 50.319)" fill="none" stroke="#040d1a" stroke-miterlimit="10" stroke-width="0.782"/>
          <line id="Línea_3429" data-name="Línea 3429" x2="4.401" y2="17.646" transform="translate(214.325 79.169)" fill="none" stroke="#040d1a" stroke-miterlimit="10" stroke-width="0.782"/>
          <line id="Línea_3430" data-name="Línea 3430" x2="3.061" y2="7.163" transform="translate(219.807 85.251)" fill="none" stroke="#040d1a" stroke-miterlimit="10" stroke-width="0.782"/>
          <line id="Línea_3431" data-name="Línea 3431" x2="11.244" y2="11.544" transform="translate(241.115 49.558)" fill="none" stroke="#040d1a" stroke-miterlimit="10" stroke-width="0.782"/>
          <path id="Trazado_993824" data-name="Trazado 993824" d="M323.66,21.469s-32.312,33.311-19.087,80.988L330.283,26.29l-6.643-4.821Z" transform="translate(-34.328 -2.881)" fill="#105814"/>
          <line id="Línea_3432" data-name="Línea 3432" x2="5.642" y2="3.362" transform="translate(285.811 33.413)" fill="none" stroke="#040d1a" stroke-miterlimit="10" stroke-width="0.912"/>
          <line id="Línea_3433" data-name="Línea 3433" x2="4.101" y2="13.525" transform="translate(271.506 70.186)" fill="none" stroke="#040d1a" stroke-miterlimit="10" stroke-width="0.912"/>
          <line id="Línea_3434" data-name="Línea 3434" x2="6.022" y2="2.561" transform="translate(278.828 53.76)" fill="none" stroke="#040d1a" stroke-miterlimit="10" stroke-width="0.912"/>
          <path id="Trazado_993825" data-name="Trazado 993825" d="M169.7,67.657c-10.644-5.122-13.545.78-13.545.78C162.6,67.8,169.7,73.7,169.7,73.7s7.1-5.9,13.545-5.261c0,0-2.88-5.9-13.545-.78" transform="translate(-45.229 0.429)" fill="#f4b400"/>
          <path id="Trazado_993826" data-name="Trazado 993826" d="M159.96,39.52c-8.042-3.862-10.224.581-10.224.581,4.862-.481,10.224,3.962,10.224,3.962s5.362-4.463,10.224-3.962c0,0-2.181-4.461-10.224-.581" transform="translate(-45.711 -1.646)" fill="#f4b400"/>
          <path id="Trazado_993827" data-name="Trazado 993827" d="M353.423,180.329s-10.7,5.042-15.786,6.843-11.964-1.741-18.826-1.521-5.762,2.962-13.765,2.042c-7.983-.92-17.827-3.582-25.009-2.481-4.742-6.882-13.825-3.541-13.825-3.541s-11-5.762-17.046.22c-6.483-2-14.106,1.48-16.067,5.282-2.621-1.961-6.622-3.522-10.164-5.282s-4.941-10.644-9.363-10.644-3.362,6.442-6.883,8.323-11.725,1.66-15.166,5.442c0,0-13.424-2.441-15.645,2.881,0,0-29.831-1.341-31.112,8.423H352.222l1.221-15.986Z" transform="translate(-46.084 8.36)" fill="#5bb25e"/>
          <path id="Trazado_993828" data-name="Trazado 993828" d="M306.529,140.892,326.2,231.445l6.662-30.632Z" transform="translate(-33.943 6.082)" fill="#040d1a"/>
          <path id="Trazado_993829" data-name="Trazado 993829" d="M306.884,136.556a3.221,3.221,0,1,1-3.221,3.221,3.22,3.22,0,0,1,3.221-3.221" transform="translate(-34.158 5.757)" fill="#f4b400"/>
          <path id="Trazado_993830" data-name="Trazado 993830" d="M313.977,143.648a2.161,2.161,0,1,1-2.161-2.161,2.151,2.151,0,0,1,2.161,2.161" transform="translate(-33.708 6.127)" fill="#f4b400"/>
          <path id="Trazado_993831" data-name="Trazado 993831" d="M307.168,143.584l-29.41,24.149s.44-13.765,9.542-21.088,19.868-3.081,19.868-3.081Z" transform="translate(-36.102 6.191)" fill="#f4b400"/>
          <path id="Trazado_993832" data-name="Trazado 993832" d="M306.6,147.387l-7.322,27.75a21.69,21.69,0,0,1,7.322-27.73Z" transform="translate(-34.659 6.57)" fill="#f4b400"/>
          <path id="Trazado_993833" data-name="Trazado 993833" d="M311.665,140.334l26.91,2.461a19.247,19.247,0,0,0-11.325-6.242C319.707,135.212,311.665,140.334,311.665,140.334Z" transform="translate(-33.557 5.74)" fill="#f4b400"/>
          <path id="Trazado_993834" data-name="Trazado 993834" d="M311.029,139.566,331.7,116.938s-8.183-2.881-16.146,5.1a17.465,17.465,0,0,0-4.522,17.527" transform="translate(-33.66 4.246)" fill="#f4b400"/>
          <path id="Trazado_993835" data-name="Trazado 993835" d="M303.626,141.122l-23.188-8.1s10.984-3.1,16.745-.66,6.443,8.763,6.443,8.763" transform="translate(-35.901 5.371)" fill="#f4b400"/>
          <path id="Trazado_993836" data-name="Trazado 993836" d="M306.38,136.443l-3.541-27.97s-3.781,8.883-2.661,16.766,6.222,11.2,6.222,11.2Z" transform="translate(-34.435 3.649)" fill="#f4b400"/>
          <path id="Trazado_993837" data-name="Trazado 993837" d="M103.464,253.775c-19.647,24.609-32.272,50.318-35.893,70.185,18.566-7.922,40.855-25.929,60.5-50.538s32.272-50.318,35.893-70.185C145.4,211.16,123.111,229.166,103.464,253.775Z" transform="translate(-51.878 10.761)" fill="#f4b400"/>
          <line id="Línea_3435" data-name="Línea 3435" x1="96.395" y2="120.723" transform="translate(15.693 213.998)" fill="none" stroke="#fff" stroke-miterlimit="10" stroke-width="0.614"/>
          <path id="Trazado_993838" data-name="Trazado 993838" d="M70.158,220.417c-5.3,17.627-6.562,34.313-4.2,45.856,8.342-8.323,16.505-22.948,21.808-40.554,5.3-17.627,6.563-34.313,4.2-45.857C83.623,188.186,75.46,202.811,70.158,220.417Z" transform="translate(-52.085 9.007)" fill="#f4b400"/>
          <line id="Línea_3436" data-name="Línea 3436" x1="26.01" y2="86.412" transform="translate(13.892 188.869)" fill="none" stroke="#fff" stroke-miterlimit="10" stroke-width="0.614"/>
        </g>
      </g>
      <g id="Grupo_1177314" data-name="Grupo 1177314">
        <g id="Grupo_1177313" data-name="Grupo 1177313" clip-path="url(#clip-path)">
          <path id="Trazado_993840" data-name="Trazado 993840" d="M309.644,190.96c-4.263-10.031-10.715-26.388-5.232-35.671,0,0,10.62-6.667,14.851-6.513,0,0-9.308,9.029-4.391,24.8s11.848,3.24,8.748-6.422,5.179-19.836,5.179-19.836l.058-.006a21.282,21.282,0,0,1,3.789.229c1.165.159,2.319.261,3.485.409a47.419,47.419,0,0,1,7.127,1.658,9.715,9.715,0,0,0,5.061.445,7.225,7.225,0,0,0,1.857-.723c.124-.066.634-.3,1-.512l.385-.323c0,.037.008.082.008.121a6.374,6.374,0,0,0,1.069,2.8c1.62,2.647,4.274,4.422,6.492,6.526a40.053,40.053,0,0,1,6.047,7.094c.1.16.773.958.719,1.154,0,0-3.379,12.666-13.026,15.829s-15.717,16.147-.061,10.854,17.506-18.12,17.506-18.12c2.607,3.326,3.453,15.837,3.453,15.837-4.3,9.881-21.339,14.283-31.96,16.721s-6.472,4.013-3.69,6.136,9.238-1.423,19.875-6.574a67.123,67.123,0,0,0,17.919-12.994c1.031,9.39.033,22.092-2.831,24.732s-3.17,1.072-14.61,5.1-20.435.262-26.306,2.447,8.542,4.051,15.975,3.478,10.711.793,16.234-1.7a99.94,99.94,0,0,1,10.473-4c-3.637,9.463-9.029,18.524-12.5,21.073s-8.039-1.436-14.941-1.759-8.567-2.463-14.462-2.524,5.391,7.372,14.441,9.073c8.841,1.661,12.65-1.076,12.818-1.2-5.442,9.562-9.553,12.487-27.284,14.348-17.748,1.866-24.653-12.212-24.51-20.955.077-5-.3-6.472-.639-6.82-.238-.232-.446.054-.487.1.054-.172.238-1.056-2.176.356a43.408,43.408,0,0,0-3.931,2.7c-6.992,5.254-22.457,7.941-31.371-7.5s-8.952-20.472-4.407-30.483c0,.209.025,4.893,6.562,11.058,6.7,6.317,19.348,11.08,15.837,6.349s-6.222-4.823-10.542-10.211-10.237-6.747-10.208-11.046,4.2-13.988,9.725-22.482a98.064,98.064,0,0,1,2.917,10.817c1.228,5.928,4.246,7.774,8.162,14.114,3.907,6.358,13.885,16.926,12.212,10.887-1.689-6.034-10.007-11.1-13.476-22.712s-4.917-10.939-4.459-14.8,10.154-12.134,18.361-16.819a67.058,67.058,0,0,0,0,22.126c2.075,11.631,2.991,18.913,6.349,19.928s7.065,3.427,2.811-6.587Z" transform="translate(19.696 11.055)" fill="#2871c5"/>
          <path id="Trazado_993841" data-name="Trazado 993841" d="M302.123,234.9c4.529-15.284,38.534-74.19,40.736-77.994-9.757,18.218-38.076,77.536-38.076,77.536-.238-.233-.446.053-.487.1.053-.172.238-1.056-2.177.356Z" transform="translate(22.676 11.777)" fill="#1c6ac2"/>
          <rect id="Rectángulo_454786" data-name="Rectángulo 454786" width="0.745" height="19.883" transform="translate(338.834 142.228) rotate(-71.906)" fill="#e7b899"/>
          <path id="Trazado_993842" data-name="Trazado 993842" d="M337.707,131.737a7.925,7.925,0,1,1-7.929,7.924,7.926,7.926,0,0,1,7.929-7.924" transform="translate(24.752 9.888)" fill="#307e34"/>
          <rect id="Rectángulo_454787" data-name="Rectángulo 454787" width="33.998" height="0.741" transform="translate(329.032 148.652) rotate(-69.421)" fill="#e7b899"/>
          <path id="Trazado_993843" data-name="Trazado 993843" d="M315.664,116.913a7.925,7.925,0,1,1,10-5.069,7.92,7.92,0,0,1-10,5.069" transform="translate(23.282 7.615)" fill="#e7b899"/>
          <path id="Trazado_993844" data-name="Trazado 993844" d="M261.492,187.51l-.61-.421c28.265-40.646,90.178-73.485,90.8-73.809l.344.659c-.622.327-62.37,33.082-90.534,73.576Z" transform="translate(19.581 8.502)" fill="#e7b899"/>
          <path id="Trazado_993845" data-name="Trazado 993845" d="M343.593,121.666a7.925,7.925,0,1,1,10-5.069,7.92,7.92,0,0,1-10,5.069" transform="translate(25.378 7.971)" fill="#e7b899"/>
          <rect id="Rectángulo_454788" data-name="Rectángulo 454788" width="0.741" height="12.495" transform="matrix(0.676, -0.737, 0.737, 0.676, 303.482, 102.56)" fill="#e7b899"/>
          <path id="Trazado_993846" data-name="Trazado 993846" d="M276.568,97.477a5.724,5.724,0,1,0-.348-8.084,5.733,5.733,0,0,0,.348,8.084" transform="translate(20.619 6.57)" fill="#e7b899"/>
          <rect id="Rectángulo_454789" data-name="Rectángulo 454789" width="24.666" height="0.74" transform="translate(311.745 119.152) rotate(-46.69)" fill="#e7b899"/>
          <path id="Trazado_993847" data-name="Trazado 993847" d="M302.571,99.068a5.724,5.724,0,1,0-.347-8.084A5.733,5.733,0,0,0,302.571,99.068Z" transform="translate(22.571 6.69)" fill="#307e34"/>
          <path id="Trazado_993848" data-name="Trazado 993848" d="M286.308,160.759l-.736-.082c4.058-37.054,7.752-81.688,7.79-82.134l.741.061c-.038.446-3.736,45.093-7.794,82.155" transform="translate(21.434 5.895)" fill="#e7b899"/>
          <path id="Trazado_993849" data-name="Trazado 993849" d="M289.69,83.191a5.724,5.724,0,1,0-.348-8.084,5.732,5.732,0,0,0,.348,8.084" transform="translate(21.604 5.498)" fill="#e7b899"/>
          <rect id="Rectángulo_454790" data-name="Rectángulo 454790" width="16.639" height="0.622" transform="translate(39.142 182.594) rotate(-18.091)" fill="#e7b899"/>
          <path id="Trazado_993850" data-name="Trazado 993850" d="M35.4,178.112a6.633,6.633,0,1,0-8.37-4.242,6.633,6.633,0,0,0,8.37,4.242" transform="translate(2.004 12.397)" fill="#307e34"/>
          <rect id="Rectángulo_454791" data-name="Rectángulo 454791" width="0.622" height="28.454" transform="translate(52.71 157.143) rotate(-20.533)" fill="#e7b899"/>
          <path id="Trazado_993851" data-name="Trazado 993851" d="M51.793,152.767a6.633,6.633,0,1,0-8.37-4.242,6.633,6.633,0,0,0,8.37,4.242" transform="translate(3.234 10.495)" fill="#e7b899"/>
          <path id="Trazado_993852" data-name="Trazado 993852" d="M101.529,211.855l.512-.356c-23.66-34.018-75.47-61.5-75.994-61.773l-.29.548C26.276,150.548,77.956,177.959,101.529,211.855Z" transform="translate(1.933 11.238)" fill="#e7b899"/>
          <path id="Trazado_993853" data-name="Trazado 993853" d="M28.415,156.748a6.633,6.633,0,1,0-8.37-4.242,6.633,6.633,0,0,0,8.37,4.242" transform="translate(1.48 10.794)" fill="#e7b899"/>
          <rect id="Rectángulo_454792" data-name="Rectángulo 454792" width="10.457" height="0.622" transform="translate(76.588 151.38) rotate(-42.521)" fill="#e7b899"/>
          <path id="Trazado_993854" data-name="Trazado 993854" d="M84.25,136.5a4.791,4.791,0,1,1,.29-6.766,4.8,4.8,0,0,1-.29,6.766" transform="translate(5.721 9.621)" fill="#e7b899"/>
          <rect id="Rectángulo_454793" data-name="Rectángulo 454793" width="0.622" height="20.644" transform="translate(63.168 144.301) rotate(-43.32)" fill="#e7b899"/>
          <path id="Trazado_993855" data-name="Trazado 993855" d="M62.49,137.836a4.791,4.791,0,1,1,.29-6.766,4.8,4.8,0,0,1-.29,6.766" transform="translate(4.087 9.721)" fill="#307e34"/>
          <path id="Trazado_993856" data-name="Trazado 993856" d="M75.931,189.468l.618-.07c-3.4-31.011-6.489-68.367-6.521-68.739l-.618.048c.032.373,3.125,37.738,6.521,68.756Z" transform="translate(5.21 9.056)" fill="#e7b899"/>
          <path id="Trazado_993857" data-name="Trazado 993857" d="M73.275,124.547a4.791,4.791,0,1,1,.289-6.766,4.8,4.8,0,0,1-.289,6.766" transform="translate(4.897 8.724)" fill="#e7b899"/>
          <path id="Trazado_993858" data-name="Trazado 993858" d="M42.851,244.241C29.8,243.206,8.8,240.981,1.963,229.98c0,0-1.194-15.014,1.326-19.433,0,0,4.443,14.928,23.963,18.463s10.036-10.817-1.98-12.883-18.239-16.54-18.239-16.54a.537.537,0,0,1,.025-.066,25.742,25.742,0,0,1,2.349-3.908c.822-1.154,1.566-2.323,2.373-3.485a56.964,56.964,0,0,1,5.728-6.664,11.687,11.687,0,0,0,3.289-5.139,8.606,8.606,0,0,0,.258-2.381c0-.168.037-.843.013-1.346l-.131-.589c.041.02.094.038.134.058a7.7,7.7,0,0,0,3.58.421c3.719-.254,7.086-2.1,10.559-3.285a48.4,48.4,0,0,1,10.912-2.5c.225-.016,1.448-.29,1.628-.123.009,0,11.607,10.638,9.614,22.67s8.456,25.709,11.521,6.1-9.562-28.713-9.562-28.713c4.987-.925,18.782,5.131,18.782,5.131,8.134,10.064,3.342,30.658.037,43.325s.675,9.124,4.484,7.339,3.621-10.625,4.047-24.817a80.631,80.631,0,0,0-3.87-26.3c10.568,4.12,23.536,12.249,24.755,16.766s-.621,3.972-2.7,18.386-11.078,21.9-12.019,29.366c-.942,7.479,9.062-6.844,12.588-15.076s6.8-10.964,7.217-18.23a119.062,119.062,0,0,1,1.563-13.375c8.051,9.132,14.7,19.912,15.489,25.026s-6,7.761-10.183,14.928-7.385,7.753-10.727,13.992,10.845-1.641,17.69-10.33c6.68-8.489,5.887-14.065,5.85-14.311,7.156,11.107,7.982,17.109.106,37.025S105.727,278.943,96.5,273.931c-5.282-2.864-7.058-3.281-7.618-3.113-.381.123-.192.5-.159.573-.156-.152-.994-.84-.831,2.516a52.5,52.5,0,0,0,.687,5.687c1.706,10.362-4.029,28.322-25.43,29.231-21.384.9-26.772-1.849-34.906-12.252.221.118,5.22,2.7,15.424-.839,10.45-3.618,22.55-14.438,15.563-13.334s-8.6,3.944-16.732,5.548-12.871,7.147-17.436,4.725S12.5,280.428,6.529,269.823a117.876,117.876,0,0,1,13.137,2.909c7,1.992,10.637-.2,19.564-.843,8.939-.626,25.738-5.376,18.381-6.947-7.364-1.555-17.375,4.484-31.669,1.722s-14.381-.847-18.243-3.481-7.275-17.56-7.7-28.9a80.6,80.6,0,0,0,23.557,12.294c13.538,4.255,21.8,7.332,24.748,4.321s7.58-5.617-5.454-6.652Z" transform="translate(0 12.799)" fill="#2871c5"/>
          <path id="Trazado_993859" data-name="Trazado 993859" d="M85.967,272.744C72.213,259.423,28.4,190.471,25.574,186.012c13.975,20.516,61.384,83.644,61.384,83.644-.381.123-.192.5-.159.573C86.643,270.077,85.8,269.389,85.967,272.744Z" transform="translate(1.919 13.961)" fill="#1c6ac2"/>
          <path id="Trazado_993860" data-name="Trazado 993860" d="M238.35,129.956s5.547,22.55,27.73,27.01c0,0,26.908,13.112,20.873-5.769s-16.446-38.023-48.608-39.336-33.207,20.64-42.651,37.852-27.37,76.676,3.5,83.55S224.5,190.641,224.5,190.641L208.5,157.485s24.249-8.652,29.849-27.533Z" transform="translate(13.651 8.392)" fill="#cb6825"/>
          <path id="Trazado_993861" data-name="Trazado 993861" d="M281.943,147.5c.916.5,1.919,4.344,2.336,5.257q2.916,6.4,6.088,12.682c4.451,8.78,10.313,17.057,12.633,26.785,3.49,14.635-.389,35.715-16.042,41.98-.257.1-.519.2-.781.295-16.8,5.932-45.458-24.49-45.458-24.49l2.054-36.3,13.353-37,9.246,1.747Z" transform="translate(18.067 10.261)" fill="#cb6825"/>
          <path id="Trazado_993862" data-name="Trazado 993862" d="M174.3,345.8H304.666a174.192,174.192,0,0,0-1.277-23.07c-.347-2.259-.748-4.665-1.206-7.193-6.849-38.035-25.411-102.594-25.411-102.594l-78.206,1.714s-19.957,64.24-25.84,102.9c-.385,2.521-.7,4.939-.965,7.214C170.5,336.148,170.954,344.183,174.3,345.8Z" transform="translate(12.843 15.983)" fill="#e0e9e9"/>
          <path id="Trazado_993863" data-name="Trazado 993863" d="M206.235,231.781A6.219,6.219,0,1,1,200.017,238a6.218,6.218,0,0,1,6.218-6.218" transform="translate(15.012 17.396)" fill="#f4b400"/>
          <path id="Trazado_993864" data-name="Trazado 993864" d="M231.893,246.062a6.218,6.218,0,1,1,5.142,7.134,6.219,6.219,0,0,1-5.142-7.134" transform="translate(17.399 18.076)" fill="#f4b400"/>
          <path id="Trazado_993865" data-name="Trazado 993865" d="M237.67,282.45a6.218,6.218,0,1,1,4.624,7.48,6.218,6.218,0,0,1-4.624-7.48" transform="translate(17.826 20.84)" fill="#f4b400"/>
          <path id="Trazado_993866" data-name="Trazado 993866" d="M206.136,272.568a6.218,6.218,0,1,1,0,8.794,6.218,6.218,0,0,1,0-8.794" transform="translate(15.335 20.321)" fill="#f4b400"/>
          <path id="Trazado_993867" data-name="Trazado 993867" d="M221.787,255.874a3.474,3.474,0,1,1-3.474,3.474,3.474,3.474,0,0,1,3.474-3.474" transform="translate(16.386 19.205)" fill="#f4b400"/>
          <path id="Trazado_993868" data-name="Trazado 993868" d="M260.873,292.381a3.473,3.473,0,1,1,2.873,3.985,3.474,3.474,0,0,1-2.873-3.985" transform="translate(19.577 21.726)" fill="#f4b400"/>
          <path id="Trazado_993869" data-name="Trazado 993869" d="M234.242,297.978a3.474,3.474,0,1,1-3.474,3.474,3.474,3.474,0,0,1,3.474-3.474" transform="translate(17.321 22.365)" fill="#f4b400"/>
          <path id="Trazado_993870" data-name="Trazado 993870" d="M253.655,231.1a3.474,3.474,0,1,1-3.474,3.474,3.474,3.474,0,0,1,3.474-3.474" transform="translate(18.778 17.346)" fill="#f4b400"/>
          <path id="Trazado_993871" data-name="Trazado 993871" d="M201.5,297.4a3.473,3.473,0,1,1,2.582,4.179A3.473,3.473,0,0,1,201.5,297.4" transform="translate(15.117 22.121)" fill="#f4b400"/>
          <path id="Trazado_993872" data-name="Trazado 993872" d="M258.426,257.343a3.474,3.474,0,1,1-3.473,3.474,3.474,3.474,0,0,1,3.473-3.474" transform="translate(19.136 19.315)" fill="#f4b400"/>
          <path id="Trazado_993873" data-name="Trazado 993873" d="M303.344,315.571c-21.343,5.695-44.618,7.462-65.262,7.462-9.225,0-17.919-.356-25.693-.863-16.519-1.088-30.88-3-40.674-4.553.261-2.275.581-4.693.965-7.213,25.39,3.988,83.018,10.6,129.456-2.021.459,2.527.86,4.933,1.207,7.192Z" transform="translate(12.888 23.146)" fill="#fff"/>
          <path id="Trazado_993874" data-name="Trazado 993874" d="M250.507,188.684a32.409,32.409,0,0,1-14.519,2.266l-7.136-8.987-10.117-3.834-5.289-2.009L207.673,159.2l-3.485-10.221,6.434-8.726,16.545-16.061,8.55-1.9,3.281-.728,15.171,9.434,8.477,17.98s7.933,30.909-12.131,39.705Z" transform="translate(15.325 9.124)" fill="#f7e8de"/>
          <path id="Trazado_993875" data-name="Trazado 993875" d="M234.707,128.689s3.465,17.579-4.3,24.776" transform="translate(17.293 9.659)" fill="none" stroke="#69300a" stroke-linecap="round" stroke-linejoin="round" stroke-width="0.811"/>
          <path id="Trazado_993876" data-name="Trazado 993876" d="M274.856,217.706s-5.318,15.571-36.465,15.522a84.805,84.805,0,0,1-19.609-2.139h-.008c-16.262-3.883-22.133-11.668-22.133-11.668s20.423-11.739,24.645-15.256c3.351-2.787,2.717-11.411,2.308-14.884-.083-.748-.164-1.251-.192-1.416a.227.227,0,0,1-.009-.053c-.491-.156-.974-.335-1.428-.524-.143-.061-.217-.095-.217-.095h-.02c-11.885-5.1-13.616-20.62-13.492-30.09a61.38,61.38,0,0,1,.524-7.618l14.4,12.269,27.975,23.815s-.028.357-.069,1.023a140.613,140.613,0,0,0,.032,14.765c.483,9.619,23.745,16.353,23.745,16.353Z" transform="translate(14.759 11.22)" fill="#f7e8de"/>
          <path id="Trazado_993877" data-name="Trazado 993877" d="M229.35,207.532c-9.4,6.276-15.759,12.928-10.568,20.881h-.008c-16.262-3.882-22.133-11.668-22.133-11.668s20.423-11.737,24.645-15.256c3.351-2.785,2.717-11.41,2.307-14.883-.082-.749-.163-1.252-.191-1.416a20.745,20.745,0,0,0,8.407,1.416s6.943,14.65-2.463,20.926Z" transform="translate(14.759 13.9)" fill="#f3ddcd"/>
          <path id="Trazado_993878" data-name="Trazado 993878" d="M233.827,143.664c-1.546,3.494-3.956,6.521-6.006,9.741a58.919,58.919,0,0,0-5.219,10.387,75.061,75.061,0,0,0-3.167,10.4,34.836,34.836,0,0,0-.7,3.886,15.228,15.228,0,0,0,.274,5.805c.84,3.159,3.384,6.072,6.632,6.378a6.406,6.406,0,0,1-2.606,1.064c-.1-.913-.2-1.469-.2-1.469-13.39-4.309-15.293-20.812-15.162-30.713l-3.485-10.219,6.435-8.726,16.544-16.062,8.551-1.9c2.615,5.257-.557,18.4-1.887,21.425Z" transform="translate(15.326 9.174)" fill="#f3ddcd"/>
          <path id="Trazado_993879" data-name="Trazado 993879" d="M246.888,153.684a2.549,2.549,0,1,1-2.549,2.549,2.549,2.549,0,0,1,2.549-2.549" transform="translate(18.339 11.535)" fill="#cb6825"/>
          <path id="Trazado_993880" data-name="Trazado 993880" d="M225.915,156.232a2.549,2.549,0,1,1-2.549-2.549,2.55,2.55,0,0,1,2.549,2.549" transform="translate(16.574 11.535)" fill="#cb6825"/>
          <path id="Trazado_993881" data-name="Trazado 993881" d="M235.5,157.485s-1.985,4.627.553,5.633,1.91,2.889-.074,3.793" transform="translate(17.62 11.82)" fill="none" stroke="#69300a" stroke-linecap="round" stroke-linejoin="round" stroke-width="0.811"/>
          <path id="Trazado_993882" data-name="Trazado 993882" d="M200.332,214.542s-19.217,3.94-36.923,33.732-24.4,63.482.049,71.914,30.585-35.58,30.585-35.58Z" transform="translate(11.073 16.103)" fill="#ebc4aa"/>
          <path id="Trazado_993883" data-name="Trazado 993883" d="M204.974,208.289a4.807,4.807,0,0,0-5.127,3.052c-6.668,16.532-46.594,117.256-31.376,121.7,21.774,6.362,56.946-121.459,36.5-124.752" transform="translate(12.387 15.629)" fill="#1c6ac2"/>
          <path id="Trazado_993884" data-name="Trazado 993884" d="M186.6,239.266l19.466,16.61s-4.275,52.682-25.235,61.245-30.839-10.9-26.9-27.767S186.6,239.266,186.6,239.266Z" transform="translate(11.49 17.958)" fill="#e7b899"/>
          <line id="Línea_3437" data-name="Línea 3437" x2="26.089" y2="20.219" transform="translate(189.569 267.628)" fill="none" stroke="#1c6ac2" stroke-miterlimit="10" stroke-width="1.267"/>
          <path id="Trazado_993885" data-name="Trazado 993885" d="M184.258,240.264s6.873-15.15,14.949-14.25,13.461,14.807,11.669,19.294-7.151,11.565-7.151,11.565Z" transform="translate(13.83 16.961)" fill="#f7e8de"/>
          <path id="Trazado_993886" data-name="Trazado 993886" d="M269.518,212.943s17.515,3.6,35.221,33.4,24.481,64.39.029,72.822-36.952-32.631-36.952-32.631Z" transform="translate(20.101 15.983)" fill="#ebc4aa"/>
          <path id="Trazado_993887" data-name="Trazado 993887" d="M265.076,208.289a4.805,4.805,0,0,1,5.126,3.052c6.669,16.532,46.6,117.256,31.375,121.7-21.773,6.362-56.945-121.459-36.5-124.752" transform="translate(19.433 15.629)" fill="#1c6ac2"/>
          <path id="Trazado_993888" data-name="Trazado 993888" d="M281.714,239.266l-19.466,16.61s4.276,52.682,25.235,61.245,30.839-10.9,26.9-27.767S281.714,239.266,281.714,239.266Z" transform="translate(19.683 17.958)" fill="#e7b899"/>
          <line id="Línea_3438" data-name="Línea 3438" x1="26.089" y2="20.219" transform="translate(283.826 267.628)" fill="none" stroke="#1c6ac2" stroke-miterlimit="10" stroke-width="1.267"/>
          <path id="Trazado_993889" data-name="Trazado 993889" d="M282.237,240.264s-6.873-15.15-14.949-14.25-13.461,14.807-11.669,19.294,7.151,11.565,7.151,11.565Z" transform="translate(19.16 16.961)" fill="#f7e8de"/>
          <path id="Trazado_993890" data-name="Trazado 993890" d="M207.255,157.3s24.608-5.683,29.849-27.533c0,0,23.914,34.267,41.088,31.972s-18.655-38.142-18.655-38.142L242.1,114.384l-11.95,1.743-10.7,4.48-5.478,4.979-6.709,6.473-2.638,4.979-4.84,8.214-1.244,11.382Z" transform="translate(14.901 8.585)" fill="#cb6825"/>
          <path id="Trazado_993891" data-name="Trazado 993891" d="M266.285,126.478l-4.275,4.484-4.439-5.531.9-1.575Z" transform="translate(19.332 9.296)" fill="#12263f"/>
          <path id="Trazado_993892" data-name="Trazado 993892" d="M261.348,132.214l-3.977,4.074-2.581-8.026,1.247-1.416Z" transform="translate(19.123 9.521)" fill="#12263f"/>
          <path id="Trazado_993893" data-name="Trazado 993893" d="M235.077,188.265a23.924,23.924,0,0,0,15.882-3.277c4.656-2.856,7.757-7.765,9.487-12.863a32.3,32.3,0,0,0,1.314-5.334,44.861,44.861,0,0,0,.139-12.208" transform="translate(17.644 11.602)" fill="none" stroke="#69300a" stroke-linecap="round" stroke-linejoin="round" stroke-width="0.849"/>
          <path id="Trazado_993894" data-name="Trazado 993894" d="M255.368,157.7a5.069,5.069,0,1,1,3.769,6.1,5.07,5.07,0,0,1-3.769-6.1" transform="translate(19.157 11.543)" fill="#f7e8de"/>
          <path id="Trazado_993895" data-name="Trazado 993895" d="M202.243,157.7a5.069,5.069,0,1,1,3.769,6.1,5.07,5.07,0,0,1-3.769-6.1" transform="translate(15.169 11.543)" fill="#f7e8de"/>
          <path id="Trazado_993896" data-name="Trazado 993896" d="M202.243,157.7a5.069,5.069,0,1,1,3.769,6.1,5.07,5.07,0,0,1-3.769-6.1" transform="translate(15.169 11.543)" fill="#f3ddcd"/>
          <path id="Trazado_993897" data-name="Trazado 993897" d="M227.086,171.915l16.5-.65s1.12,7.552-7.969,7.982c-9.316.438-8.535-7.328-8.535-7.328Z" transform="translate(17.043 12.854)" fill="#e8bc9e"/>
          <path id="Trazado_993898" data-name="Trazado 993898" d="M228.421,176.56s4.722-4.026,14.59-1.915c0,0-.811,3.612-6.833,4.344s-7.752-2.43-7.752-2.43Z" transform="translate(17.144 13.062)" fill="#e0a57d"/>
          <path id="Trazado_993899" data-name="Trazado 993899" d="M227.086,171.915l16.5-.65s1.12,7.552-7.969,7.982c-9.316.438-8.535-7.328-8.535-7.328Z" transform="translate(17.043 12.854)" fill="none" stroke="#69300a" stroke-linecap="round" stroke-linejoin="round" stroke-width="0.932"/>
          <path id="Trazado_993900" data-name="Trazado 993900" d="M228.421,176.56s4.722-4.026,14.59-1.915" transform="translate(17.144 13.062)" fill="none" stroke="#69300a" stroke-linecap="round" stroke-linejoin="round" stroke-width="0.932"/>
          <path id="Trazado_993901" data-name="Trazado 993901" d="M215.172,148.641s-4.239,13.231,1.019,20.522c0,0-9.652-5.2-9.32-19.225s8.3-1.3,8.3-1.3Z" transform="translate(15.526 10.759)" fill="#cb6825"/>
          <path id="Trazado_993902" data-name="Trazado 993902" d="M251.961,148.641s4.239,13.231-1.019,20.522c0,0,9.652-5.2,9.32-19.225s-8.3-1.3-8.3-1.3Z" transform="translate(18.835 10.759)" fill="#cb6825"/>
          <path id="Trazado_993903" data-name="Trazado 993903" d="M119.684,186.131s-52.052-5.355-54.916,54.735,6.251,106.955,6.251,106.955,45.531.872,57.1-13.97c7.81-10.015,7.675-106.37,7.675-106.37L119.68,186.126Z" transform="translate(4.819 13.961)" fill="#e4b08d"/>
          <path id="Trazado_993904" data-name="Trazado 993904" d="M146.188,184.268v6.292l3.723,14.221L142.8,220.16,98.69,189.4l3.272-5.134-.7-10.781Z" transform="translate(7.407 13.021)" fill="#f7e8de"/>
          <path id="Trazado_993905" data-name="Trazado 993905" d="M174.092,133.3c0,24.506-19.29,44.373-43.084,44.373S87.924,157.8,87.924,133.3s15.132-42.356,43.084-44.373c28.045-2.025,43.084,19.867,43.084,44.373" transform="translate(6.599 6.665)" fill="#cb6825"/>
          <path id="Trazado_993906" data-name="Trazado 993906" d="M89.313,120.31s8.51-27.873,13.231-27.043,1.35,11.443,1.35,11.443l-14.585,15.6Z" transform="translate(6.703 6.999)" fill="#cb6825"/>
          <path id="Trazado_993907" data-name="Trazado 993907" d="M163.526,114.8s15.268,27.578-.139,37.88S145.1,126.271,145.1,126.271l6.852-5.458L163.53,114.8Z" transform="translate(10.89 8.616)" fill="#cb6825"/>
          <path id="Trazado_993908" data-name="Trazado 993908" d="M169.24,125.385c-3.866,0-7.958-1.346-11.541-1.944a91.827,91.827,0,0,0-23.132-.4,94.661,94.661,0,0,0-37.8,11.669,33.6,33.6,0,0,0,.09,13.652c5.964,28.27,5.445,44.09,5.187,44.867l19.707-10.081,9.562,4.287c47.932,10.985,38.277-59.58,38.277-59.58a22.736,22.736,0,0,0-.353-2.47Z" transform="translate(7.213 9.195)" fill="#f7e8de"/>
          <path id="Trazado_993909" data-name="Trazado 993909" d="M133.056,184.883s-15.473-2.139-12.723,10.677L98.69,190.525l3.274-5.134L98.9,158.528l34.153,26.359Z" transform="translate(7.407 11.898)" fill="#f3ddcd"/>
          <path id="Trazado_993910" data-name="Trazado 993910" d="M129.157,124.641s-19.2,60.177,9.594,64.82c0,0-21.327-.09-39.529-27.427s21.429-50.228,21.429-50.228l8.506,12.838Z" transform="translate(7.088 8.392)" fill="#f3ddcd"/>
          <path id="Trazado_993911" data-name="Trazado 993911" d="M135.861,142.141a2.921,2.921,0,1,1-2.921,2.921,2.921,2.921,0,0,1,2.921-2.921" transform="translate(9.978 10.668)" fill="#cb6825"/>
          <path id="Trazado_993912" data-name="Trazado 993912" d="M157.009,142.141a2.921,2.921,0,1,1-2.921,2.921,2.92,2.92,0,0,1,2.921-2.921" transform="translate(11.565 10.668)" fill="#cb6825"/>
          <path id="Trazado_993913" data-name="Trazado 993913" d="M151.814,150.883s-1.006,6.914,3.895,5.5c3.154-.335.855,4.9-1.989,4.767" transform="translate(11.388 11.325)" fill="none" stroke="#69300a" stroke-linecap="round" stroke-linejoin="round" stroke-width="0.795"/>
          <path id="Trazado_993914" data-name="Trazado 993914" d="M147.053,164.059c-9.344,2.209-10.281-5.1-10.281-5.1" transform="translate(10.266 11.931)" fill="none" stroke="#69300a" stroke-linecap="round" stroke-linejoin="round" stroke-width="0.795"/>
          <path id="Trazado_993915" data-name="Trazado 993915" d="M120.545,128.679c-1.461-2.574-2.254-5.433-3.351-8.178-.388-.97-.8-1.931-1.227-2.889a17.172,17.172,0,0,0-6.326-4.12A50.981,50.981,0,0,0,90.2,137.083s.311,21.585,15.837,15.526,13.975-24.376,13.975-24.38c.013.124.21.274.528.446Z" transform="translate(6.77 8.518)" fill="#cb6825"/>
          <path id="Trazado_993916" data-name="Trazado 993916" d="M91.593,150.441a7.92,7.92,0,1,1,6.559,9.08,7.92,7.92,0,0,1-6.559-9.08" transform="translate(6.867 10.792)" fill="#f7e8de"/>
          <path id="Trazado_993917" data-name="Trazado 993917" d="M99.037,147.72A4.653,4.653,0,0,0,97,152.51" transform="translate(7.274 11.087)" fill="none" stroke="#69300a" stroke-linecap="round" stroke-linejoin="round" stroke-width="0.795"/>
          <path id="Trazado_993918" data-name="Trazado 993918" d="M168.541,134.861s4.235,47.187-23.864,52.3c0,0-14.237,2.565-25.856-6.2" transform="translate(8.918 10.122)" fill="none" stroke="#69300a" stroke-linecap="round" stroke-linejoin="round" stroke-width="0.795"/>
          <path id="Trazado_993919" data-name="Trazado 993919" d="M102.812,152.078s-.758-5.216-7.582-4.893" transform="translate(7.148 11.046)" fill="none" stroke="#69300a" stroke-linecap="round" stroke-linejoin="round" stroke-width="0.795"/>
          <path id="Trazado_993920" data-name="Trazado 993920" d="M273.638,238.69s8.955-17.326,14.683-15.538,2.16,12.191,2.16,12.191S284.729,244.024,273.638,238.69Z" transform="translate(20.538 16.739)" fill="#f5e1d4"/>
          <path id="Trazado_993921" data-name="Trazado 993921" d="M293.963,250.5l27.656-15.562s-7.081-8.035-13.827-3.732-17.465,10.973-17.465,10.973l3.637,8.325Z" transform="translate(21.791 17.258)" fill="#f5e1d4"/>
          <path id="Trazado_993922" data-name="Trazado 993922" d="M255.061,270.285s33.531-9.541,40.666-17.85,18.787-24.481,18.787-24.481-2.855-6.423-11.651,0a163.618,163.618,0,0,1-14.27,9.512s-25.447.238-35.434,8.8S255.061,270.285,255.061,270.285Z" transform="translate(18.701 16.895)" fill="#f7e8de"/>
          <path id="Trazado_993923" data-name="Trazado 993923" d="M264.275,281.7l-17.826,5.944-52.8,17.6L165.973,252l-11.014-50.817s28.548,23.25,53.009,53.042l35.782-11,17.031-5.764,3.494,44.246Z" transform="translate(11.631 15.1)" fill="#2871c5"/>
          <path id="Trazado_993924" data-name="Trazado 993924" d="M258.076,279.17l-17.826,5.944-2.7-44.421,17.031-5.769Z" transform="translate(17.83 17.632)" fill="#183461"/>
          <line id="Línea_3439" data-name="Línea 3439" x1="14.27" y2="1.604" transform="translate(237.292 274.211)" fill="none" stroke="#f3f9ff" stroke-linecap="round" stroke-linejoin="round" stroke-width="0.78"/>
          <line id="Línea_3440" data-name="Línea 3440" x1="9.177" y2="1.035" transform="translate(208.262 267.174)" fill="none" stroke="#f3f9ff" stroke-linecap="round" stroke-linejoin="round" stroke-width="0.78"/>
          <line id="Línea_3441" data-name="Línea 3441" x1="4.451" y1="13.656" transform="translate(227.503 280.131)" fill="none" stroke="#f3f9ff" stroke-linecap="round" stroke-linejoin="round" stroke-width="0.78"/>
          <line id="Línea_3442" data-name="Línea 3442" x1="13.607" y2="4.578" transform="translate(221.423 306.593)" fill="none" stroke="#f3f9ff" stroke-linecap="round" stroke-linejoin="round" stroke-width="0.78"/>
          <line id="Línea_3443" data-name="Línea 3443" x1="4.447" y1="13.652" transform="translate(189.569 269.858)" fill="none" stroke="#f3f9ff" stroke-linecap="round" stroke-linejoin="round" stroke-width="0.78"/>
          <line id="Línea_3444" data-name="Línea 3444" x1="14.119" y2="2.622" transform="translate(201.61 291.598)" fill="none" stroke="#f3f9ff" stroke-linecap="round" stroke-linejoin="round" stroke-width="0.78"/>
          <path id="Trazado_993925" data-name="Trazado 993925" d="M186.547,251.23a.866.866,0,1,1,.765-.958.869.869,0,0,1-.765.958" transform="translate(13.929 18.727)" fill="#f3f9ff"/>
          <path id="Trazado_993926" data-name="Trazado 993926" d="M202.416,286.329a.866.866,0,1,1,.765-.958.869.869,0,0,1-.765.958" transform="translate(15.12 21.361)" fill="#f3f9ff"/>
          <path id="Trazado_993927" data-name="Trazado 993927" d="M209.449,271.194a.866.866,0,1,1,.765-.958.869.869,0,0,1-.765.958" transform="translate(15.648 20.225)" fill="#f3f9ff"/>
          <path id="Trazado_993928" data-name="Trazado 993928" d="M178.559,232.035a.866.866,0,1,1,.765-.958.869.869,0,0,1-.765.958" transform="translate(13.33 17.286)" fill="#f3f9ff"/>
          <path id="Trazado_993929" data-name="Trazado 993929" d="M220.154,250.987a.866.866,0,1,1,.765-.958.869.869,0,0,1-.765.958" transform="translate(16.452 18.708)" fill="#f3f9ff"/>
          <path id="Trazado_993930" data-name="Trazado 993930" d="M179.758,272.91a.866.866,0,1,1,.765-.958.869.869,0,0,1-.765.958" transform="translate(13.42 20.354)" fill="#f3f9ff"/>
          <path id="Trazado_993931" data-name="Trazado 993931" d="M154.959,201.184s36.78,47.429,54.658,143.064c0,0,8.481-89.49-54.658-143.064" transform="translate(11.631 15.1)" fill="#e4b08d"/>
          <path id="Trazado_993932" data-name="Trazado 993932" d="M92.064,202.87S29,244.211,28.626,310.554c-.315,55.689,45.5,25.356,45.5,25.356l22.277-38.865L92.06,202.87Z" transform="translate(2.148 15.227)" fill="#1767c1"/>
          <path id="Trazado_993933" data-name="Trazado 993933" d="M217,347.254q-1.319-5.934-2.647-11.574-1.135-4.81-2.279-9.41c-.512-2.049-1.015-4.062-1.53-6.046q-1.216-4.768-2.438-9.308c-23.664-87.584-47.335-109.164-47.335-109.164l-3.474-4.173-12.908,21.07-9.741-5.629-33.522-19.4L88.4,203.564l-9.451,19.743L77.726,328.123l-.073,6.738-.111,9.164-.041,3.228H217Z" transform="translate(5.817 14.532)" fill="#1c6ac2"/>
          <path id="Trazado_993934" data-name="Trazado 993934" d="M139.721,216.9a8.773,8.773,0,0,1,.573,1.731c17.08,39.578,23.745,82.069,28.728,124.02" transform="translate(10.487 16.28)" fill="none" stroke="#478d4b" stroke-miterlimit="10" stroke-width="0.632"/>
          <path id="Trazado_993935" data-name="Trazado 993935" d="M109.273,337.993l105.086-11.574q-1.135-4.81-2.279-9.41L77.546,334.765l-.041,3.228Z" transform="translate(5.817 23.793)" fill="#fff"/>
          <path id="Trazado_993936" data-name="Trazado 993936" d="M210.544,312.035,77.651,326.673l-.192.02.082-6.734.184-.028,130.382-17.2Q209.321,307.263,210.544,312.035Z" transform="translate(5.814 22.721)" fill="#fff"/>
          <path id="Trazado_993937" data-name="Trazado 993937" d="M84.587,346.487h20.251c10.539-26.985,27.861-90.35-15.579-140.9-1.219-1.419-2.03-2.262-3.695-1.412a66.83,66.83,0,0,0-6.153,3.5,2.838,2.838,0,0,0-.872,3.788c6.9,11.8,39.566,73.641,6.051,135.021Z" transform="translate(5.866 15.299)" fill="#ebc4aa"/>
          <path id="Trazado_993938" data-name="Trazado 993938" d="M159.967,238.562a3.387,3.387,0,1,1-3.387,3.388,3.388,3.388,0,0,1,3.387-3.388" transform="translate(11.752 17.905)" fill="#478d4b"/>
          <path id="Trazado_993939" data-name="Trazado 993939" d="M163.628,263.985a3.387,3.387,0,1,1,.574,4.756,3.388,3.388,0,0,1-.574-4.756" transform="translate(12.227 19.716)" fill="#478d4b"/>
          <path id="Trazado_993940" data-name="Trazado 993940" d="M167.6,291.8a3.388,3.388,0,1,1,2.75,3.923,3.388,3.388,0,0,1-2.75-3.923" transform="translate(12.575 21.691)" fill="#478d4b"/>
          <path id="Trazado_993941" data-name="Trazado 993941" d="M143.63,219.26s-21.871-35.258-42.8-33.748l-13.2,18.664S133.828,214.736,143.63,219.26Z" transform="translate(6.578 13.92)" fill="#ebc4aa"/>
          <path id="Trazado_993942" data-name="Trazado 993942" d="M139.721,219.048l3.342-30.757a48.589,48.589,0,0,1,16.348,9.913S144.626,216.193,139.721,219.048Z" transform="translate(10.487 14.132)" fill="#ebc4aa"/>
          <path id="Trazado_993943" data-name="Trazado 993943" d="M123.68,242.556a57.261,57.261,0,0,1-9.954,21.614c-3.166,4.029-7.094,7.327-11.778,8.5C88.28,276.1,73.6,254.2,73.6,254.2l.843-2.983,5.134-18.177a18.662,18.662,0,0,1,8.089-10.682,98.64,98.64,0,0,1,12.044-6.615,27.8,27.8,0,0,1,4.935-1.723,6.805,6.805,0,0,1,3.6-.061c6.12,2.144,6.574,11.5,7.8,14.683s8.49,8.723,7.638,13.91Z" transform="translate(5.524 16.043)" fill="#f7e8de"/>
          <path id="Trazado_993944" data-name="Trazado 993944" d="M113.726,264.154c-3.166,4.029-7.094,7.328-11.778,8.5C88.28,276.08,73.6,254.184,73.6,254.184l.843-2.982,5.134-18.177a18.664,18.664,0,0,1,8.089-10.683,98.788,98.788,0,0,1,12.044-6.615,27.709,27.709,0,0,1,4.935-1.722c-.381.7-1.069,1.546-1.825,2.806a37.8,37.8,0,0,0-5.42,17.756,21.158,21.158,0,0,0,1.445,9.512c2.119,4.808,6.59,8.08,10.023,12.065a27.318,27.318,0,0,1,4.86,8.015Z" transform="translate(5.524 16.062)" fill="#f3ddcd"/>
          <path id="Trazado_993945" data-name="Trazado 993945" d="M109.082,275.394s-2.017,7-5.875,16.405H103.2c-6.665,16.238-18.845,39.644-35.7,46.582-6.705,2.769-14.16,2.921-22.3-1.027-29.133-14.139-3.064-56.815,13.767-79.537,6.508-8.8,11.643-14.609,11.643-14.609l14.5,12.13Z" transform="translate(2.408 18.254)" fill="#2871c5"/>
          <line id="Línea_3445" data-name="Línea 3445" y2="15.084" transform="translate(62.813 284.046)" fill="none" stroke="#f3f9ff" stroke-linecap="round" stroke-linejoin="round" stroke-width="0.818"/>
          <line id="Línea_3446" data-name="Línea 3446" y2="15.084" transform="translate(51.46 313.458)" fill="none" stroke="#f3f9ff" stroke-linecap="round" stroke-linejoin="round" stroke-width="0.818"/>
          <line id="Línea_3447" data-name="Línea 3447" x1="14.773" y2="3.04" transform="translate(66.167 306.813)" fill="none" stroke="#f3f9ff" stroke-linecap="round" stroke-linejoin="round" stroke-width="0.818"/>
          <line id="Línea_3448" data-name="Línea 3448" x2="3.179" y2="14.744" transform="translate(94.671 305.103)" fill="none" stroke="#f3f9ff" stroke-linecap="round" stroke-linejoin="round" stroke-width="0.818"/>
          <line id="Línea_3449" data-name="Línea 3449" x1="14.778" y2="3.043" transform="translate(50.985 345.205)" fill="none" stroke="#f3f9ff" stroke-linecap="round" stroke-linejoin="round" stroke-width="0.818"/>
          <line id="Línea_3450" data-name="Línea 3450" x2="1.08" y2="15.043" transform="translate(76.751 323.497)" fill="none" stroke="#f3f9ff" stroke-linecap="round" stroke-linejoin="round" stroke-width="0.818"/>
          <path id="Trazado_993946" data-name="Trazado 993946" d="M48.843,313.42a.912.912,0,1,1-.913-.913.914.914,0,0,1,.913.913" transform="translate(3.529 23.455)" fill="#f3f9ff"/>
          <path id="Trazado_993947" data-name="Trazado 993947" d="M87.34,300.976a.912.912,0,1,1-.913-.913.914.914,0,0,1,.913.913" transform="translate(6.418 22.521)" fill="#f3f9ff"/>
          <path id="Trazado_993948" data-name="Trazado 993948" d="M72.369,291.858a.912.912,0,1,1-.913-.913.914.914,0,0,1,.913.913" transform="translate(5.295 21.837)" fill="#f3f9ff"/>
          <path id="Trazado_993949" data-name="Trazado 993949" d="M37.285,304.253a.912.912,0,1,1-.913-.913.914.914,0,0,1,.913.913" transform="translate(2.662 22.767)" fill="#f3f9ff"/>
          <path id="Trazado_993950" data-name="Trazado 993950" d="M52.534,278.31a.912.912,0,1,1-.913-.913.914.914,0,0,1,.913.913" transform="translate(3.806 20.82)" fill="#f3f9ff"/>
          <path id="Trazado_993951" data-name="Trazado 993951" d="M70.675,323.052a.912.912,0,1,1-.913-.913.914.914,0,0,1,.913.913" transform="translate(5.168 24.178)" fill="#f3f9ff"/>
          <path id="Trazado_993952" data-name="Trazado 993952" d="M107.2,275.394s-2.017,7-5.875,16.405h-.008L73.531,270.444,57.088,257.815c6.509-8.8,11.644-14.61,11.644-14.61l14.5,12.13L107.2,275.39Z" transform="translate(4.285 18.254)" fill="#183461"/>
          <line id="Línea_3451" data-name="Línea 3451" y1="35.892" x2="3.388" transform="translate(150.208 197.289)" fill="none" stroke="#69300a" stroke-linecap="round" stroke-linejoin="round" stroke-width="0.795"/>
          <path id="Trazado_993953" data-name="Trazado 993953" d="M119.238,130.2s81.283,25.047,73.69-34.886c0,0-13.574,14.413-50.263-5.318s-60.746,29.55-23.427,40.2" transform="translate(7.544 6.408)" fill="#cb6825"/>
          <path id="Trazado_993954" data-name="Trazado 993954" d="M117.931,127.071s10.935,10.278,6.014,22.043" transform="translate(8.851 9.537)" fill="none" stroke="#69300a" stroke-linecap="round" stroke-linejoin="round" stroke-width="0.811"/>
          <g id="Grupo_1177309" data-name="Grupo 1177309" transform="translate(33.288 268.442)" opacity="0.52" style="isolation: isolate">
            <g id="Grupo_1177308" data-name="Grupo 1177308">
              <g id="Grupo_1177307" data-name="Grupo 1177307" clip-path="url(#clip-path-4)">
                <path id="Trazado_993955" data-name="Trazado 993955" d="M68.631,274.936c-12.51,22.052-31.518,61.773-6.877,62.926-5.83,2.565-12.31,2.7-19.38-.954-25.324-13.1-2.663-52.624,11.966-73.674C60,255.082,64.462,249.7,64.462,249.7L77.067,260.94c-.958,1.481-4.349,6.8-8.432,13.992Z" transform="translate(-30.964 -249.701)" fill="#183461"/>
              </g>
            </g>
          </g>
          <path id="Trazado_993956" data-name="Trazado 993956" d="M338.993,345.289c18.107-14.969,20.464-66.028,1.657-99.088-20.677-36.363-40.125-24.571-40.125-24.571l3.248,9.442.8,2.348,2.062,5.986,2.279,6.644s3.014,10.244-6.272,22.522a57.066,57.066,0,0,1-15.215,13.472c-19.408,12.335-26.06,45.515-28.27,63.241h79.83Z" transform="translate(19.451 16.498)" fill="#141114"/>
          <path id="Trazado_993957" data-name="Trazado 993957" d="M330.207,294.194c-.3.073-.6.143-.892.2-20.115,4.337-25.95-17.518-27.832-23.454a9.837,9.837,0,0,0-1.227-2.5c-2.909-4.345-8.789-6.922-9.21-7.1-.008-.009-.02-.009-.028-.013v-.009l.932-5.219,2.929-16.361,2.889-16.2.368-2.042c15.17.278,20.329,14.59,20.329,14.59,27.55,18.238,32.582,52.919,11.746,58.1Z" transform="translate(21.843 16.625)" fill="#fcfdfd"/>
          <path id="Trazado_993958" data-name="Trazado 993958" d="M306.523,246.368a.169.169,0,0,0-.009.041c-.053.72-.13,1.416-.2,2.082a15.248,15.248,0,0,1-2.2,6.3c-.111.184-.233.36-.348.535s-.245.356-.376.532c-.09.115-.175.233-.266.348-.266.339-.553.674-.843.986-.111.114-.217.233-.335.34a12.966,12.966,0,0,1-1.219,1.1,14.924,14.924,0,0,1-4.3,2.4c-.286.1-.573.205-.863.295v.009c-1.022.347-2.082.667-3.188.965-14.18,3.907-34.488,4.512-41.7,4.889a17.021,17.021,0,0,0-2.123.245c-.233.032-.454.082-.678.131-.278.053-.557.123-.831.192-.217.053-.438.114-.655.175a1.421,1.421,0,0,0-.155.049,5.545,5.545,0,0,0-.614.192c-.516.155-1.023.335-1.527.535-.216.074-.429.163-.638.254a31.843,31.843,0,0,0-3.188,1.538c-.184.095-.36.2-.535.3-.254.134-.5.278-.741.429-.736.434-1.428.88-2.091,1.322-.433.295-.859.585-1.26.879-.217.155-.43.306-.626.454-.176.131-.356.267-.516.4-.114.082-.233.172-.34.258-.277.217-.544.421-.782.618-.163.13-.318.257-.461.381-.246.2-.471.388-.675.572-.095.074-.185.156-.267.226-.572.495-.952.859-1.108,1.006l-.082.082a.567.567,0,0,0-.009-.082,46.871,46.871,0,0,1,1.743-20.178,38.362,38.362,0,0,1,7.348-13.022h.009c14.36-16.856,41.435-21.159,54.85-22.256,3.453-.287,6.005-.356,7.2-.369.295-.008.5-.008.627-.008h.13a32.283,32.283,0,0,1,3.249,9.442,49.478,49.478,0,0,1,.822,8.2,65.724,65.724,0,0,1-.233,7.217Z" transform="translate(17.293 16.625)" fill="#305729"/>
          <path id="Trazado_993959" data-name="Trazado 993959" d="M304.088,252.464c-.111.184-.233.36-.348.536s-.245.356-.376.531c-.089.115-.175.233-.266.348-.266.34-.553.675-.843.986-.111.114-.217.233-.335.34a12.991,12.991,0,0,1-1.219,1.1,14.933,14.933,0,0,1-4.3,2.4c-.286.1-.573.205-.863.295v.009c-1.022.347-2.082.667-3.186.965-14.18,3.907-34.489,4.513-41.7,4.889a16.974,16.974,0,0,0-2.123.245c-.226.033-.45.082-.679.131-.274.053-.553.123-.831.192-.216.053-.438.11-.655.175a1.5,1.5,0,0,0-.155.049,5.86,5.86,0,0,0-.614.192c-.515.155-1.022.335-1.525.535-.217.074-.43.164-.639.254a32.081,32.081,0,0,0-3.188,1.538c-.184.095-.359.2-.535.3-.254.135-.5.286-.741.43-.736.433-1.428.879-2.091,1.321-.433.295-.859.593-1.26.879-.217.156-.429.306-.626.454-.176.135-.348.267-.516.4-.114.089-.233.175-.339.257-.278.217-.545.421-.782.618-.163.131-.319.258-.462.381-.246.2-.471.388-.675.573-.095.082-.184.155-.266.225-.573.495-.954.859-1.109,1.006h-.089a16.981,16.981,0,0,1,5.723-9.941c3.928-3.548,10.519-6.8,21.569-7.25a342.61,342.61,0,0,0,38.432-4.042c.5-.082.983-.163,1.449-.245,2.45-.4,4.532-.769,6.161-1.068Z" transform="translate(17.32 18.949)" fill="#e5b492"/>
          <path id="Trazado_993960" data-name="Trazado 993960" d="M309.839,233.419a2.782,2.782,0,1,1-3.068-2.463,2.784,2.784,0,0,1,3.068,2.463" transform="translate(22.839 17.333)" fill="#141114"/>
          <path id="Trazado_993961" data-name="Trazado 993961" d="M291.047,259.607l-.029-.012v-.009c.061-.163.962-2.606,2.381-5.466,1.633-3.294,3.969-7.147,6.537-8.723a4.458,4.458,0,0,1,2.03-.728C307.677,244.208,298.337,262.569,291.047,259.607Z" transform="translate(21.843 18.363)" fill="#141114"/>
          <path id="Trazado_993962" data-name="Trazado 993962" d="M296.936,221.5s.859,1.772,2.565,25.631l.63,1.763,1.4-2.488s2.47-17.514-3.834-24.9h-.757Z" transform="translate(22.287 16.625)" fill="#141114"/>
          <path id="Trazado_993963" data-name="Trazado 993963" d="M243.454,251.6a139.594,139.594,0,0,1-6.951,14.3c-3.064,5.6-5.724,9.942-5.724,9.942a46.854,46.854,0,0,1,1.744-20.178,38.342,38.342,0,0,1,7.347-13.022h.009c6.979-3.641,6.5,1.628,3.58,8.968Z" transform="translate(17.293 18.123)" fill="#141114"/>
          <g id="Grupo_1177312" data-name="Grupo 1177312" transform="translate(247.681 255.75)" opacity="0.21" style="mix-blend-mode: multiply;isolation: isolate">
            <g id="Grupo_1177311" data-name="Grupo 1177311">
              <g id="Grupo_1177310" data-name="Grupo 1177310" clip-path="url(#clip-path-5)">
                <path id="Trazado_993964" data-name="Trazado 993964" d="M230.785,276.185l.082-.082c.156-.152.536-.512,1.108-1.006.082-.07.172-.143.267-.226.2-.184.429-.376.675-.572.143-.124.3-.254.462-.381.237-.2.5-.4.78-.618.111-.082.226-.172.34-.258.172-.13.34-.257.516-.4.2-.152.409-.3.626-.454.4-.287.822-.585,1.26-.879q.989-.663,2.091-1.322c.238-.143.49-.295.741-.429.175-.1.356-.2.535-.3a31.84,31.84,0,0,1,3.188-1.538c.213-.09.421-.175.637-.254.5-.2,1.007-.381,1.527-.535.2-.074.409-.135.614-.192.053-.02.11-.033.155-.049.217-.07.438-.123.655-.175.274-.07.553-.135.831-.192.225-.049.449-.095.678-.131a17.02,17.02,0,0,1,2.123-.245c7.209-.377,27.518-.983,41.7-4.889,1.105-.3,2.165-.618,3.188-.965.009.008.02.008.029.012.421.176,6.3,2.758,9.209,7.1a57.047,57.047,0,0,1-15.215,13.472c-19.408,12.335-26.06,45.515-28.27,63.241H292.5a85.2,85.2,0,0,1,4.889-7.081c7.188-9.258,16.831-16.312,24.617-25.079a67.473,67.473,0,0,0,11.844-18.6,47.889,47.889,0,0,0,3.764-23.946c-1.751-15.195-13.685-29.579-28.831-31.174-.266-.029-.531-.049-.8-.07-.34-.028-.678-.048-1.015-.053a2.143,2.143,0,0,0-.233-.009c-.961-.032-1.914-.02-2.867.041a36.417,36.417,0,0,0-4.459.553c-6.938,1.26-13.677,4.246-20.391,6.657-11.921,4.274-23.651,4.41-35.585,6.7-1.014.2-2.029.4-3.043.634a23.88,23.88,0,0,0-7.892,3.424,46.857,46.857,0,0,0-1.743,20.178.579.579,0,0,1,.009.082Z" transform="translate(-230.389 -237.895)" fill="#e7b899"/>
              </g>
            </g>
          </g>
        </g>
      </g>
    </g>
  </g>
</svg>
