<svg xmlns="http://www.w3.org/2000/svg" xmlns:xlink="http://www.w3.org/1999/xlink" width="1228" height="227" viewBox="0 0 1228 227">
  <defs>
    <clipPath id="clip-path">
      <rect id="Rectángulo_33824" data-name="Rectángulo 33824" width="1228" height="227" transform="translate(-24423 -8854)" fill="#fff7da"/>
    </clipPath>
    <clipPath id="clip-path-2">
      <rect id="Rectángulo_455227" data-name="Rectángulo 455227" width="1235.771" height="420.313" fill="none"/>
    </clipPath>
    <clipPath id="clip-path-3">
      <rect id="Rectángulo_455196" data-name="Rectángulo 455196" width="1235.768" height="420.313" fill="none"/>
    </clipPath>
    <clipPath id="clip-path-4">
      <rect id="Rectángulo_455195" data-name="Rectángulo 455195" width="1235.674" height="32.317" fill="none"/>
    </clipPath>
    <clipPath id="clip-path-6">
      <rect id="Rectángulo_455199" data-name="Rectángulo 455199" width="56.919" height="56.915" fill="none"/>
    </clipPath>
    <clipPath id="clip-path-7">
      <rect id="Rectángulo_455201" data-name="Rectángulo 455201" width="18.132" height="8.08" fill="none"/>
    </clipPath>
    <clipPath id="clip-path-8">
      <rect id="Rectángulo_455210" data-name="Rectángulo 455210" width="14.505" height="8.619" fill="none"/>
    </clipPath>
    <clipPath id="clip-path-9">
      <rect id="Rectángulo_455212" data-name="Rectángulo 455212" width="14.506" height="8.619" fill="none"/>
    </clipPath>
    <clipPath id="clip-path-10">
      <rect id="Rectángulo_455220" data-name="Rectángulo 455220" width="14.743" height="12.047" fill="none"/>
    </clipPath>
    <clipPath id="clip-path-12">
      <rect id="Rectángulo_455223" data-name="Rectángulo 455223" width="66.317" height="66.317" fill="none"/>
    </clipPath>
    <clipPath id="clip-path-13">
      <rect id="Rectángulo_455224" data-name="Rectángulo 455224" width="44.73" height="12.137" fill="none"/>
    </clipPath>
    <clipPath id="clip-path-14">
      <rect id="Rectángulo_455225" data-name="Rectángulo 455225" width="44.731" height="12.137" fill="none"/>
    </clipPath>
  </defs>
  <g id="Enmascarar_grupo_1119157" data-name="Enmascarar grupo 1119157" transform="translate(24423 8854)" clip-path="url(#clip-path)">
    <g id="Grupo_1178307" data-name="Grupo 1178307" transform="translate(-24430.518 -8949.127)">
      <g id="Grupo_1178306" data-name="Grupo 1178306" clip-path="url(#clip-path-2)">
        <rect id="Rectángulo_455192" data-name="Rectángulo 455192" width="1235.099" height="420.313" transform="translate(0.669)" fill="#fff"/>
        <rect id="Rectángulo_455193" data-name="Rectángulo 455193" width="1235.721" height="420.313" fill="#90caf9"/>
        <g id="Grupo_1178276" data-name="Grupo 1178276">
          <g id="Grupo_1178275" data-name="Grupo 1178275" clip-path="url(#clip-path-3)">
            <g id="Grupo_1178274" data-name="Grupo 1178274" transform="translate(0.047 266.529)" opacity="0.4">
              <g id="Grupo_1178273" data-name="Grupo 1178273">
                <g id="Grupo_1178272" data-name="Grupo 1178272" clip-path="url(#clip-path-4)">
                  <rect id="Rectángulo_455194" data-name="Rectángulo 455194" width="1235.674" height="32.317" transform="translate(0)" fill="#f5b90f"/>
                </g>
              </g>
            </g>
          </g>
        </g>
        <rect id="Rectángulo_455197" data-name="Rectángulo 455197" width="1235.674" height="121.467" transform="translate(0.047 298.846)" fill="#f5b90f"/>
        <g id="Grupo_1178305" data-name="Grupo 1178305">
          <g id="Grupo_1178304" data-name="Grupo 1178304" clip-path="url(#clip-path-3)">
            <path id="Trazado_995813" data-name="Trazado 995813" d="M1315.1,107.809h20.017a25.117,25.117,0,0,0-22.328-17.456l14.494-8.5A26.583,26.583,0,0,0,1302.8,75.9l6.9-11.309a26.577,26.577,0,0,0-26.388,8.379,26.577,26.577,0,0,0-26.389-8.379l6.905,11.309a26.583,26.583,0,0,0-24.479,5.952l14.693,8.612a25.121,25.121,0,0,0-21.073,17.34h20.018A20.9,20.9,0,0,0,1246.5,128l29.027-16.985a6.291,6.291,0,0,0,2.724.714V316.5h11.543V111.731a6.276,6.276,0,0,0,2.748-.727l29.052,17a20.9,20.9,0,0,0-6.495-20.193" transform="translate(-196.504 -10.173)" fill="#f5b90f"/>
            <path id="Trazado_995814" data-name="Trazado 995814" d="M1394.809,187.42h20.017a25.117,25.117,0,0,0-22.328-17.456l14.494-8.5a26.585,26.585,0,0,0-24.479-5.952l6.9-11.309a26.577,26.577,0,0,0-26.388,8.379,26.577,26.577,0,0,0-26.388-8.379l6.9,11.309a26.584,26.584,0,0,0-24.479,5.952l14.693,8.612a25.124,25.124,0,0,0-21.074,17.34H1332.7a20.9,20.9,0,0,0-6.495,20.193l29.029-16.985a6.307,6.307,0,0,0,2.723.714V396.109H1369.5V191.342a6.285,6.285,0,0,0,2.749-.728l29.051,17a20.9,20.9,0,0,0-6.495-20.193" transform="translate(-209.207 -22.861)" fill="#f5b90f"/>
            <path id="Trazado_995815" data-name="Trazado 995815" d="M1235.387,187.42H1255.4a25.117,25.117,0,0,0-22.328-17.456l14.494-8.5a26.585,26.585,0,0,0-24.479-5.952l6.9-11.309a26.579,26.579,0,0,0-26.389,8.379,26.576,26.576,0,0,0-26.388-8.379l6.9,11.309a26.584,26.584,0,0,0-24.479,5.952l14.693,8.612a25.123,25.123,0,0,0-21.074,17.34h20.018a20.9,20.9,0,0,0-6.495,20.193l29.028-16.985a6.315,6.315,0,0,0,2.724.714V396.109h11.544V191.342a6.278,6.278,0,0,0,2.748-.728l29.051,17a20.9,20.9,0,0,0-6.494-20.193" transform="translate(-183.8 -22.861)" fill="#f5b90f"/>
            <path id="Trazado_995816" data-name="Trazado 995816" d="M220.018,107.809h20.017a25.117,25.117,0,0,0-22.328-17.456l14.494-8.5A26.583,26.583,0,0,0,207.722,75.9l6.9-11.309a26.577,26.577,0,0,0-26.388,8.379A26.578,26.578,0,0,0,161.849,64.6l6.9,11.309a26.583,26.583,0,0,0-24.479,5.952l14.693,8.612a25.121,25.121,0,0,0-21.074,17.34h20.018A20.9,20.9,0,0,0,151.418,128l29.028-16.985a6.291,6.291,0,0,0,2.724.714V316.5h11.543V111.731a6.277,6.277,0,0,0,2.748-.727l29.052,17a20.9,20.9,0,0,0-6.495-20.193" transform="translate(-21.977 -10.173)" fill="#f5b90f"/>
            <path id="Trazado_995817" data-name="Trazado 995817" d="M299.729,187.42h20.017a25.117,25.117,0,0,0-22.328-17.456l14.494-8.5a26.585,26.585,0,0,0-24.479-5.952l6.9-11.309a26.577,26.577,0,0,0-26.388,8.379,26.577,26.577,0,0,0-26.388-8.379l6.9,11.309a26.585,26.585,0,0,0-24.479,5.952l14.693,8.612a25.123,25.123,0,0,0-21.074,17.34h20.018a20.9,20.9,0,0,0-6.495,20.193l29.029-16.985a6.308,6.308,0,0,0,2.723.714V396.109h11.544V191.342a6.284,6.284,0,0,0,2.749-.728l29.051,17a20.9,20.9,0,0,0-6.495-20.193" transform="translate(-34.681 -22.861)" fill="#f5b90f"/>
            <path id="Trazado_995818" data-name="Trazado 995818" d="M140.306,187.42h20.017A25.116,25.116,0,0,0,138,169.964l14.493-8.5a26.585,26.585,0,0,0-24.479-5.952l6.9-11.309a26.577,26.577,0,0,0-26.388,8.379,26.577,26.577,0,0,0-26.389-8.379l6.9,11.309a26.585,26.585,0,0,0-24.479,5.952l14.693,8.612a25.123,25.123,0,0,0-21.074,17.34H78.2a20.9,20.9,0,0,0-6.495,20.193l29.028-16.985a6.315,6.315,0,0,0,2.724.714V396.109H115V191.342a6.277,6.277,0,0,0,2.748-.728l29.052,17a20.9,20.9,0,0,0-6.495-20.193" transform="translate(-9.273 -22.861)" fill="#f5b90f"/>
            <path id="Trazado_995819" data-name="Trazado 995819" d="M1224.614,357.635H499.356v30.534h725.258a15.267,15.267,0,1,0,0-30.534" transform="translate(-79.584 -56.998)" fill="#f4b400"/>
            <path id="Trazado_995820" data-name="Trazado 995820" d="M77.6,357.635H802.859v30.534H77.6a15.267,15.267,0,1,1,0-30.534" transform="translate(-9.934 -56.998)" fill="#f4b400"/>
            <path id="Trazado_995821" data-name="Trazado 995821" d="M753.413,205.4A62.051,62.051,0,1,1,766.3,243.262,61.828,61.828,0,0,1,753.413,205.4" transform="translate(-120.074 -22.847)" fill="#cf7233"/>
            <path id="Trazado_995822" data-name="Trazado 995822" d="M827.982,223.731a10.333,10.333,0,0,1,10.329-10.33H864.5a10.328,10.328,0,0,0,.983-20.61H854.527a10.332,10.332,0,0,1-.591-20.647c.193-.011.393-.017.591-.017h21.98a62.116,62.116,0,0,1,8.047,61.938H838.311a10.331,10.331,0,0,1-10.329-10.335" transform="translate(-131.958 -27.432)" fill="#fff"/>
            <path id="Trazado_995823" data-name="Trazado 995823" d="M753.413,212.6a61.828,61.828,0,0,1,4.845-24.076H804.5a10.33,10.33,0,0,1,0,20.659H778.315a10.331,10.331,0,0,0-.989,20.615h10.958a10.333,10.333,0,0,1,.586,20.648c-.193.011-.387.016-.586.016H766.3A61.769,61.769,0,0,1,753.413,212.6" transform="translate(-120.074 -30.046)" fill="#fff"/>
            <path id="Trazado_995824" data-name="Trazado 995824" d="M827.221,299.6h0a4.015,4.015,0,0,1-4.015-4.015V127.2a4.015,4.015,0,0,1,8.03,0V295.584a4.015,4.015,0,0,1-4.015,4.015" transform="translate(-131.197 -19.632)" fill="#183461"/>
            <path id="Trazado_995825" data-name="Trazado 995825" d="M855.528,358.854H791.078L803.958,317.9h38.691Z" transform="translate(-126.077 -50.664)" fill="#20334b"/>
            <path id="Trazado_995826" data-name="Trazado 995826" d="M866.023,389.6H764.9a11.491,11.491,0,1,1,0-22.982H866.023a11.491,11.491,0,0,1,0,22.982" transform="translate(-120.074 -58.429)" fill="#fff"/>
            <path id="Trazado_995827" data-name="Trazado 995827" d="M1122.694,268.17V357.6c0,.23-.008.456-.018.683a14.07,14.07,0,0,1-14.054,13.389H948.972a14.068,14.068,0,0,1-14.054-13.389c-.011-.227-.018-.453-.018-.683V268.17A14.069,14.069,0,0,1,948.972,254.1h159.649a14.071,14.071,0,0,1,14.072,14.071" transform="translate(-148.998 -40.497)" fill="#cf7233"/>
            <rect id="Rectángulo_455198" data-name="Rectángulo 455198" width="96.106" height="62.899" transform="translate(858.4 265.037)" fill="#69300a"/>
            <path id="Trazado_995828" data-name="Trazado 995828" d="M1107.943,250.55h-73.138l5.411-9.393,3.12-5.41a7.819,7.819,0,0,1,6.775-3.914h42.527a7.819,7.819,0,0,1,6.775,3.914l3.12,5.41Z" transform="translate(-164.92 -36.948)" fill="#fff"/>
            <path id="Trazado_995829" data-name="Trazado 995829" d="M1117.249,306.175a48.053,48.053,0,1,1-48.053-48.053,48.053,48.053,0,0,1,48.053,48.053" transform="translate(-162.743 -41.138)" fill="#fff"/>
            <path id="Trazado_995830" data-name="Trazado 995830" d="M1111.258,307.576a40.661,40.661,0,1,1-40.661-40.661,40.661,40.661,0,0,1,40.661,40.661" transform="translate(-164.145 -42.539)" fill="#e3ebeb"/>
            <path id="Trazado_995831" data-name="Trazado 995831" d="M1095.183,311.337a20.824,20.824,0,1,1-20.824-20.824,20.824,20.824,0,0,1,20.824,20.824" transform="translate(-167.906 -46.3)" fill="#e0e9e9"/>
            <g id="Grupo_1178279" data-name="Grupo 1178279" transform="translate(877.992 236.579)" opacity="0.1">
              <g id="Grupo_1178278" data-name="Grupo 1178278">
                <g id="Grupo_1178277" data-name="Grupo 1178277" clip-path="url(#clip-path-6)">
                  <path id="Trazado_995832" data-name="Trazado 995832" d="M1072.912,338.348a28.458,28.458,0,1,1,28.458-28.458,28.491,28.491,0,0,1-28.458,28.458" transform="translate(-1044.45 -281.432)" fill="#fff"/>
                </g>
              </g>
            </g>
            <path id="Trazado_995833" data-name="Trazado 995833" d="M1122.681,378.028a14.071,14.071,0,0,1-14.055,13.39H948.977a14.071,14.071,0,0,1-14.055-13.39Z" transform="translate(-149.002 -60.248)" fill="#fff"/>
            <path id="Trazado_995834" data-name="Trazado 995834" d="M1007.4,378.028v13.39H948.977a14.071,14.071,0,0,1-14.055-13.39Z" transform="translate(-149.002 -60.248)" fill="#25374e"/>
            <path id="Trazado_995835" data-name="Trazado 995835" d="M933.26,339.79H928.2a3.588,3.588,0,0,1-3.589-3.589V282.729a3.589,3.589,0,0,1,3.589-3.589h5.064Z" transform="translate(-147.358 -44.487)" fill="#fff"/>
            <path id="Trazado_995836" data-name="Trazado 995836" d="M1158.3,279.14h5.064a3.588,3.588,0,0,1,3.588,3.589V336.2a3.589,3.589,0,0,1-3.588,3.589H1158.3Z" transform="translate(-184.602 -44.487)" fill="#fff"/>
            <rect id="Rectángulo_455200" data-name="Rectángulo 455200" width="36.275" height="17.213" transform="translate(806.991 235.836)" fill="#cf7233"/>
            <path id="Trazado_995837" data-name="Trazado 995837" d="M996.261,248.146v4.42H959.99v-4.42a3.657,3.657,0,0,1,3.653-3.658H992.6a3.658,3.658,0,0,1,3.659,3.658" transform="translate(-152.997 -38.965)" fill="#fff"/>
            <g id="Grupo_1178282" data-name="Grupo 1178282" transform="translate(806.993 205.522)" opacity="0.6">
              <g id="Grupo_1178281" data-name="Grupo 1178281">
                <g id="Grupo_1178280" data-name="Grupo 1178280" clip-path="url(#clip-path-7)">
                  <path id="Trazado_995838" data-name="Trazado 995838" d="M978.122,244.487v8.079H959.99v-4.42a3.657,3.657,0,0,1,3.653-3.659Z" transform="translate(-959.99 -244.487)" fill="#12263f"/>
                </g>
              </g>
            </g>
            <path id="Trazado_995839" data-name="Trazado 995839" d="M970.474,286.791a7.651,7.651,0,1,1-7.651-7.651,7.651,7.651,0,0,1,7.651,7.651" transform="translate(-152.229 -44.487)" fill="#fff"/>
            <path id="Trazado_995840" data-name="Trazado 995840" d="M992.588,286.791a7.651,7.651,0,1,1-7.651-7.651,7.651,7.651,0,0,1,7.651,7.651" transform="translate(-155.754 -44.487)" fill="#e3ebeb"/>
            <path id="Trazado_995841" data-name="Trazado 995841" d="M928.519,176.749h59.7a3.194,3.194,0,0,0,3.194-3.194v-41.43a3.2,3.2,0,0,0-3.194-3.2h-59.7a3.2,3.2,0,0,0-3.194,3.2v41.43a3.194,3.194,0,0,0,3.194,3.194" transform="translate(-147.472 -20.548)" fill="#fff"/>
            <path id="Trazado_995842" data-name="Trazado 995842" d="M969.436,144.151c-5.559,0-7.193,4.088-7.193,4.088s-1.635-4.087-7.194-4.087-11.28,8.83,7.2,24.2c18.473-15.37,12.75-24.2,7.192-24.2" transform="translate(-151.345 -22.974)" fill="#fff"/>
            <path id="Trazado_995843" data-name="Trazado 995843" d="M958.8,185.815l-9.486,9.486v-9.486Z" transform="translate(-151.295 -29.614)" fill="#fff"/>
            <rect id="Rectángulo_455202" data-name="Rectángulo 455202" width="19.804" height="51.234" transform="translate(348.862 103.752)" fill="#cf7233"/>
            <rect id="Rectángulo_455203" data-name="Rectángulo 455203" width="19.804" height="51.234" transform="translate(382.216 103.752)" fill="#cf7233"/>
            <path id="Trazado_995844" data-name="Trazado 995844" d="M494.054,298.566H376.994v-98.11a46.544,46.544,0,0,1,46.545-46.544H447.51a46.544,46.544,0,0,1,46.544,46.544Z" transform="translate(-60.083 -24.53)" fill="#20334b"/>
            <path id="Trazado_995845" data-name="Trazado 995845" d="M451.335,233.612H425.706A29.908,29.908,0,0,1,395.8,203.7V162.041a13.52,13.52,0,0,1,13.519-13.52h58.407a13.52,13.52,0,0,1,13.52,13.52V203.7a29.909,29.909,0,0,1-29.909,29.909" transform="translate(-63.08 -23.67)" fill="#fff"/>
            <path id="Trazado_995846" data-name="Trazado 995846" d="M372.682,239.951v72.327a22.754,22.754,0,0,1-22.757-22.75V262.7a22.753,22.753,0,0,1,22.757-22.749" transform="translate(-55.769 -38.242)" fill="#cf7233"/>
            <path id="Trazado_995847" data-name="Trazado 995847" d="M516.247,239.951h0A22.751,22.751,0,0,1,539,262.7v26.824a22.752,22.752,0,0,1-22.752,22.752Z" transform="translate(-82.276 -38.242)" fill="#cf7233"/>
            <path id="Trazado_995848" data-name="Trazado 995848" d="M476.253,343.792H394.8a17.8,17.8,0,0,1-17.8-17.8h117.06a17.8,17.8,0,0,1-17.8,17.8" transform="translate(-60.083 -51.954)" fill="#cf7233"/>
            <path id="Rectángulo_455204" data-name="Rectángulo 455204" d="M12.867,0H72.58A12.866,12.866,0,0,1,85.445,12.866V26.432A12.867,12.867,0,0,1,72.578,39.3H12.867A12.867,12.867,0,0,1,0,26.432V12.867A12.867,12.867,0,0,1,12.867,0Z" transform="translate(332.718 218.671)" fill="none" stroke="#fff" stroke-miterlimit="10" stroke-width="0.952"/>
            <rect id="Rectángulo_455205" data-name="Rectángulo 455205" width="15.806" height="15.806" transform="translate(364.264 167.564) rotate(-45.002)" fill="#cf7233"/>
            <path id="Trazado_995849" data-name="Trazado 995849" d="M372.682,239.951v36.612H349.925V262.7a22.753,22.753,0,0,1,22.757-22.749" transform="translate(-55.769 -38.242)" fill="#fff"/>
            <path id="Trazado_995850" data-name="Trazado 995850" d="M516.244,239.951v36.612H539V262.7a22.753,22.753,0,0,0-22.757-22.749" transform="translate(-82.276 -38.242)" fill="#fff"/>
            <rect id="Rectángulo_455206" data-name="Rectángulo 455206" width="16.58" height="37.566" transform="translate(367.151 193.976)" fill="#f3f9ff"/>
            <rect id="Rectángulo_455207" data-name="Rectángulo 455207" width="14.506" height="94.075" transform="translate(490.915 137.037)" fill="#fff"/>
            <rect id="Rectángulo_455208" data-name="Rectángulo 455208" width="14.506" height="94.075" transform="translate(543.703 137.037)" fill="#fff"/>
            <path id="Trazado_995851" data-name="Trazado 995851" d="M651.277,159.936H583.992v-9.393a6.843,6.843,0,0,1,6.844-6.843h53.6a6.843,6.843,0,0,1,6.843,6.843Z" transform="translate(-93.073 -22.902)" fill="#fff"/>
            <g id="Grupo_1178285" data-name="Grupo 1178285" transform="translate(490.916 137.037)" opacity="0.2">
              <g id="Grupo_1178284" data-name="Grupo 1178284">
                <g id="Grupo_1178283" data-name="Grupo 1178283" clip-path="url(#clip-path-8)">
                  <rect id="Rectángulo_455209" data-name="Rectángulo 455209" width="14.506" height="8.619" transform="translate(-0.001)" fill="#e3ebeb"/>
                </g>
              </g>
            </g>
            <g id="Grupo_1178288" data-name="Grupo 1178288" transform="translate(543.703 137.037)" opacity="0.2">
              <g id="Grupo_1178287" data-name="Grupo 1178287">
                <g id="Grupo_1178286" data-name="Grupo 1178286" clip-path="url(#clip-path-9)">
                  <rect id="Rectángulo_455211" data-name="Rectángulo 455211" width="14.506" height="8.619" fill="#e3ebeb"/>
                </g>
              </g>
            </g>
            <rect id="Rectángulo_455213" data-name="Rectángulo 455213" width="13.145" height="13.145" transform="translate(406.627 318.027)" fill="#fff"/>
            <rect id="Rectángulo_455214" data-name="Rectángulo 455214" width="13.145" height="13.145" transform="translate(526.881 318.027)" fill="#fff"/>
            <rect id="Rectángulo_455215" data-name="Rectángulo 455215" width="13.145" height="13.145" transform="translate(457.862 318.027)" fill="#e3ebeb"/>
            <rect id="Rectángulo_455216" data-name="Rectángulo 455216" width="13.145" height="13.145" transform="translate(578.116 318.027)" fill="#e3ebeb"/>
            <path id="Trazado_995852" data-name="Trazado 995852" d="M695.765,219.056V332.78a17.4,17.4,0,0,1-17.377,17.393H534.1a17.387,17.387,0,0,1-17.377-17.393V219.056A17.373,17.373,0,0,1,534.1,201.679H678.387a17.383,17.383,0,0,1,17.377,17.377" transform="translate(-82.352 -32.142)" fill="#f3f9ff"/>
            <path id="Trazado_995853" data-name="Trazado 995853" d="M695.765,357.635a17.4,17.4,0,0,1-17.377,17.393H534.1a17.387,17.387,0,0,1-17.377-17.393Z" transform="translate(-82.352 -56.998)" fill="#e1eaea"/>
            <path id="Trazado_995854" data-name="Trazado 995854" d="M635.613,219.062V332.776a17.387,17.387,0,0,1-17.378,17.393H473.948a17.387,17.387,0,0,1-17.377-17.393V219.062a17.373,17.373,0,0,1,17.377-17.377H618.234a17.374,17.374,0,0,1,17.378,17.377" transform="translate(-72.765 -32.143)" fill="#cf7233"/>
            <path id="Trazado_995855" data-name="Trazado 995855" d="M609.033,201.685v71.544H488.779V201.685" transform="translate(-77.898 -32.143)" fill="none" stroke="#fff" stroke-miterlimit="10" stroke-width="1.904"/>
            <rect id="Rectángulo_455217" data-name="Rectángulo 455217" width="13.656" height="23.48" transform="translate(427.035 241.086)" fill="none" stroke="#fff" stroke-miterlimit="10" stroke-width="1.904"/>
            <rect id="Rectángulo_455218" data-name="Rectángulo 455218" width="13.656" height="23.48" transform="translate(501.324 241.086)" fill="none" stroke="#fff" stroke-miterlimit="10" stroke-width="1.904"/>
            <path id="Trazado_995856" data-name="Trazado 995856" d="M521.154,270a6.215,6.215,0,1,1-6.215-6.215A6.215,6.215,0,0,1,521.154,270" transform="translate(-81.077 -42.04)" fill="#fff"/>
            <path id="Trazado_995857" data-name="Trazado 995857" d="M609.529,270a6.215,6.215,0,1,1-6.215-6.215A6.215,6.215,0,0,1,609.529,270" transform="translate(-95.162 -42.04)" fill="#fff"/>
            <line id="Línea_3502" data-name="Línea 3502" x2="50.565" transform="translate(562.847 241.086)" fill="none" stroke="#cf7233" stroke-miterlimit="10" stroke-width="1.904"/>
            <g id="Grupo_1178291" data-name="Grupo 1178291" transform="translate(426.492 271.236)" opacity="0.3">
              <g id="Grupo_1178290" data-name="Grupo 1178290">
                <g id="Grupo_1178289" data-name="Grupo 1178289" clip-path="url(#clip-path-10)">
                  <rect id="Rectángulo_455219" data-name="Rectángulo 455219" width="14.743" height="12.047" fill="#fff"/>
                </g>
              </g>
            </g>
            <g id="Grupo_1178294" data-name="Grupo 1178294" transform="translate(500.781 271.236)" opacity="0.3">
              <g id="Grupo_1178293" data-name="Grupo 1178293">
                <g id="Grupo_1178292" data-name="Grupo 1178292" clip-path="url(#clip-path-10)">
                  <rect id="Rectángulo_455221" data-name="Rectángulo 455221" width="14.744" height="12.047" transform="translate(-0.001)" fill="#fff"/>
                </g>
              </g>
            </g>
            <path id="Trazado_995858" data-name="Trazado 995858" d="M870.874,80.932a13.084,13.084,0,0,1,12.975,11.4,26.181,26.181,0,0,1,52.2.909H857.8a13.092,13.092,0,0,1,13.073-12.3" transform="translate(-136.711 -10.937)" fill="#fff"/>
            <path id="Trazado_995859" data-name="Trazado 995859" d="M521.008,80.932a13.084,13.084,0,0,0-12.975,11.4,26.181,26.181,0,0,0-52.2.909h78.246a13.092,13.092,0,0,0-13.073-12.3" transform="translate(-72.648 -10.937)" fill="#fff"/>
            <g id="Grupo_1178297" data-name="Grupo 1178297" transform="translate(556.702 43.101)" opacity="0.3">
              <g id="Grupo_1178296" data-name="Grupo 1178296">
                <g id="Grupo_1178295" data-name="Grupo 1178295" clip-path="url(#clip-path-12)">
                  <path id="Trazado_995860" data-name="Trazado 995860" d="M728.564,84.431a33.159,33.159,0,1,1-33.159-33.159,33.158,33.158,0,0,1,33.159,33.159" transform="translate(-662.247 -51.272)" fill="#fff"/>
                </g>
              </g>
            </g>
            <path id="Trazado_995861" data-name="Trazado 995861" d="M427.636,390.984H403.67l11.982-14.379Z" transform="translate(-64.334 -60.021)" fill="#e0e9e9"/>
            <path id="Trazado_995862" data-name="Trazado 995862" d="M399.126,390.984H375.161l11.982-14.379Z" transform="translate(-59.791 -60.021)" fill="#e0e9e9"/>
            <path id="Trazado_995863" data-name="Trazado 995863" d="M370.616,390.984H346.65l11.983-14.379Z" transform="translate(-55.247 -60.021)" fill="#e0e9e9"/>
            <g id="Grupo_1178300" data-name="Grupo 1178300" transform="translate(884.087 159.619)" opacity="0.5">
              <g id="Grupo_1178299" data-name="Grupo 1178299">
                <g id="Grupo_1178298" data-name="Grupo 1178298" clip-path="url(#clip-path-13)">
                  <path id="Trazado_995864" data-name="Trazado 995864" d="M1063.838,189.881a12.14,12.14,0,0,1,10.228,5.61,12.134,12.134,0,0,1,22.366,6.527h-3.825a8.314,8.314,0,0,0-16.628,0h-3.826a8.314,8.314,0,0,0-16.628,0H1051.7a12.151,12.151,0,0,1,12.137-12.137" transform="translate(-1051.7 -189.881)" fill="#305729"/>
                </g>
              </g>
            </g>
            <g id="Grupo_1178303" data-name="Grupo 1178303" transform="translate(475.803 43.101)" opacity="0.5">
              <g id="Grupo_1178302" data-name="Grupo 1178302">
                <g id="Grupo_1178301" data-name="Grupo 1178301" clip-path="url(#clip-path-14)">
                  <path id="Trazado_995865" data-name="Trazado 995865" d="M578.147,51.272a12.14,12.14,0,0,1,10.228,5.61,12.134,12.134,0,0,1,22.366,6.527h-3.825a8.314,8.314,0,0,0-16.628,0h-3.826a8.314,8.314,0,0,0-16.628,0H566.01a12.151,12.151,0,0,1,12.137-12.137" transform="translate(-566.01 -51.272)" fill="#305729"/>
                </g>
              </g>
            </g>
          </g>
        </g>
      </g>
    </g>
  </g>
</svg>
